<mxfile host="65bd71144e">
    <diagram id="3vJI7QXsskfFWkMhxEzt" name="Page-1">
        <mxGraphModel dx="2746" dy="1120" grid="1" gridSize="10" guides="1" tooltips="1" connect="1" arrows="1" fold="1" page="1" pageScale="1" pageWidth="827" pageHeight="1169" background="none" math="0" shadow="0">
            <root>
                <mxCell id="0"/>
                <mxCell id="1" parent="0"/>
                <mxCell id="31" value="" style="shape=image;verticalLabelPosition=bottom;labelBackgroundColor=#ffffff;verticalAlign=top;aspect=fixed;imageAspect=0;image=data:image/svg+xml,PHN2ZyB4bWxucz0iaHR0cDovL3d3dy53My5vcmcvMjAwMC9zdmciIHhtbG5zOnhsaW5rPSJodHRwOi8vd3d3LnczLm9yZy8xOTk5L3hsaW5rIiB3aWR0aD0iNTAwcHQiIGhlaWdodD0iNDgwcHQiIHZpZXdCb3g9IjAgMjQgNTAwIDUwNCIgdmVyc2lvbj0iMS4xIj4KPGRlZnM+CjxnPgo8c3ltYm9sIG92ZXJmbG93PSJ2aXNpYmxlIiBpZD0iZ2x5cGgwLTAiPgo8cGF0aCBzdHlsZT0ic3Ryb2tlOm5vbmU7IiBkPSJNIDIuMzUxNTYzIDAgTCAyLjM1MTU2MyAtMTguNDgwNDY5IEwgMTYuNDY0ODQ0IC0xOC40ODA0NjkgTCAxNi40NjQ4NDQgMCBaIE0gNi40NDE0MDYgLTIuMTAxNTYzIEwgMTIuMzIwMzEzIC0yLjEwMTU2MyBMIDEwLjc1MzkwNiAtNS4wMTE3MTkgTCA5LjQ2NDg0NCAtNy44MTI1IEwgOS4zNTE1NjMgLTcuODEyNSBMIDguMDM1MTU2IC01LjAxMTcxOSBaIE0gOS4zNTE1NjMgLTExLjIyNjU2MyBMIDkuNDY0ODQ0IC0xMS4yMjY1NjMgTCAxMC43NTM5MDYgLTEzLjg1OTM3NSBMIDEyLjA5NzY1NiAtMTYuMzUxNTYzIEwgNi42OTE0MDYgLTE2LjM1MTU2MyBMIDguMDYyNSAtMTMuODU5Mzc1IFogTSA0LjY0ODQzOCAtMy43MjI2NTYgTCA3Ljc1NzgxMyAtOS41MTk1MzEgTCA0LjY0ODQzOCAtMTUuMzcxMDk0IFogTSAxNC4xNDA2MjUgLTMuNzIyNjU2IEwgMTQuMTQwNjI1IC0xNS4zNzEwOTQgTCAxMS4wNTg1OTQgLTkuNTE5NTMxIFogTSAxNC4xNDA2MjUgLTMuNzIyNjU2ICIvPgo8L3N5bWJvbD4KPHN5bWJvbCBvdmVyZmxvdz0idmlzaWJsZSIgaWQ9ImdseXBoMC0xIj4KPHBhdGggc3R5bGU9InN0cm9rZTpub25lOyIgZD0iTSA1Ljg3ODkwNiAwLjMzNTkzOCBDIDQuOTI1NzgxIDAuMzMyMDMxIDMuOTg4MjgxIDAuMTUyMzQ0IDMuMDY2NDA2IC0wLjIxMDkzOCBDIDIuMTM2NzE5IC0wLjU3NDIxOSAxLjMzOTg0NCAtMS4wMjM0MzggMC42NzE4NzUgLTEuNTY2NDA2IEwgMi4xODM1OTQgLTMuNjQwNjI1IEMgMi43OTY4NzUgLTMuMTQ4NDM4IDMuNDEwMTU2IC0yLjc2OTUzMSA0LjAxOTUzMSAtMi41MDM5MDYgQyA0LjYyNSAtMi4yMzA0NjkgNS4yODEyNSAtMi4wOTc2NTYgNS45OTIxODggLTIuMTAxNTYzIEMgNi43MzgyODEgLTIuMDk3NjU2IDcuMjg5MDYzIC0yLjI1IDcuNjQ0NTMxIC0yLjU2MjUgQyA3Ljk5NjA5NCAtMi44NjcxODggOC4xNzE4NzUgLTMuMjY1NjI1IDguMTc1NzgxIC0zLjc1MzkwNiBDIDguMTcxODc1IC00LjAzMTI1IDguMDg5ODQ0IC00LjI3NzM0NCA3LjkyMTg3NSAtNC40OTIxODggQyA3Ljc1MzkwNiAtNC43MDcwMzEgNy41MjczNDQgLTQuODk4NDM4IDcuMjUgLTUuMDY2NDA2IEMgNi45Njg3NSAtNS4yMzQzNzUgNi42NTIzNDQgLTUuMzg2NzE5IDYuMzAwNzgxIC01LjUyNzM0NCBDIDUuOTQxNDA2IC01LjY2NDA2MyA1LjU4NTkzOCAtNS44MTI1IDUuMjM0Mzc1IC01Ljk2NDg0NCBDIDQuNzgxMjUgLTYuMTI4OTA2IDQuMzI0MjE5IC02LjMyNDIxOSAzLjg2MzI4MSAtNi41NTA3ODEgQyAzLjM5NDUzMSAtNi43NzM0MzggMi45ODA0NjkgLTcuMDQyOTY5IDIuNjE3MTg4IC03LjM2MzI4MSBDIDIuMjUgLTcuNjc5Njg4IDEuOTQ5MjE5IC04LjA0Njg3NSAxLjcxODc1IC04LjQ2ODc1IEMgMS40ODQzNzUgLTguODg2NzE5IDEuMzcxMDk0IC05LjM4NjcxOSAxLjM3MTA5NCAtOS45Njg3NSBDIDEuMzcxMDk0IC0xMS4xNzk2ODggMS44MTY0MDYgLTEyLjE3MTg3NSAyLjcxNDg0NCAtMTIuOTM3NSBDIDMuNjA1NDY5IC0xMy43MDMxMjUgNC44MjgxMjUgLTE0LjA4NTkzOCA2LjM4MjgxMyAtMTQuMDg1OTM4IEMgNy4zMzIwMzEgLTE0LjA4NTkzOCA4LjE5MTQwNiAtMTMuOTE0MDYzIDguOTYwOTM4IC0xMy41NzgxMjUgQyA5LjcyMjY1NiAtMTMuMjM4MjgxIDEwLjM4NjcxOSAtMTIuODU5Mzc1IDEwLjk0OTIxOSAtMTIuNDMzNTk0IEwgOS40NjQ4NDQgLTEwLjQ3MjY1NiBDIDguOTcyNjU2IC0xMC44MjQyMTkgOC40ODQzNzUgLTExLjEwOTM3NSA3Ljk5MjE4OCAtMTEuMzI0MjE5IEMgNy41IC0xMS41MzkwNjMgNi45ODA0NjkgLTExLjY0ODQzOCA2LjQ0MTQwNiAtMTEuNjQ4NDM4IEMgNS43NDYwOTQgLTExLjY0ODQzOCA1LjIzODI4MSAtMTEuNTAzOTA2IDQuOTE0MDYzIC0xMS4yMTQ4NDQgQyA0LjU4NTkzOCAtMTAuOTI1NzgxIDQuNDIxODc1IC0xMC41NjY0MDYgNC40MjU3ODEgLTEwLjEzNjcxOSBDIDQuNDIxODc1IC05Ljg1NTQ2OSA0LjUgLTkuNjE3MTg4IDQuNjYwMTU2IC05LjQyMTg3NSBDIDQuODE2NDA2IC05LjIyNjU2MyA1LjAyNzM0NCAtOS4wNTA3ODEgNS4yODkwNjMgLTguOTAyMzQ0IEMgNS41NTA3ODEgLTguNzUgNS44NTU0NjkgLTguNjEzMjgxIDYuMTk5MjE5IC04LjQ4NDM3NSBDIDYuNTQyOTY5IC04LjM1MTU2MyA2LjkwMjM0NCAtOC4yMTg3NSA3LjI4MTI1IC04LjA5Mzc1IEMgNy43NDYwOTQgLTcuOTIxODc1IDguMjEwOTM4IC03LjczMDQ2OSA4LjY3OTY4OCAtNy41MTU2MjUgQyA5LjE0MDYyNSAtNy4zMDA3ODEgOS41NjY0MDYgLTcuMDM1MTU2IDkuOTUzMTI1IC02LjcxODc1IEMgMTAuMzMyMDMxIC02LjM5ODQzOCAxMC42NDA2MjUgLTYuMDExNzE5IDEwLjg3NSAtNS41NTQ2ODggQyAxMS4xMDkzNzUgLTUuMDk3NjU2IDExLjIyNjU2MyAtNC41NTA3ODEgMTEuMjI2NTYzIC0zLjkyMTg3NSBDIDExLjIyNjU2MyAtMy4zMjAzMTMgMTEuMTA5Mzc1IC0yLjc2NTYyNSAxMC44NzUgLTIuMjUzOTA2IEMgMTAuNjQwNjI1IC0xLjczODI4MSAxMC4zMDA3ODEgLTEuMjg5MDYzIDkuODU1NDY5IC0wLjkxMDE1NiBDIDkuNDA2MjUgLTAuNTIzNDM4IDguODQzNzUgLTAuMjIyNjU2IDguMTc1NzgxIDAgQyA3LjUgMC4yMjI2NTYgNi43MzQzNzUgMC4zMzIwMzEgNS44Nzg5MDYgMC4zMzU5MzggWiBNIDUuODc4OTA2IDAuMzM1OTM4ICIvPgo8L3N5bWJvbD4KPHN5bWJvbCBvdmVyZmxvdz0idmlzaWJsZSIgaWQ9ImdseXBoMC0yIj4KPHBhdGggc3R5bGU9InN0cm9rZTpub25lOyIgZD0iTSAyLjA0Mjk2OSAwIEwgMi4wNDI5NjkgLTE5Ljc2OTUzMSBMIDUuMjA3MDMxIC0xOS43Njk1MzEgTCA1LjIwNzAzMSAtNy40MjE4NzUgTCA1LjI5Mjk2OSAtNy40MjE4NzUgTCAxMC4zODY3MTkgLTEzLjc0NjA5NCBMIDEzLjkxNDA2MyAtMTMuNzQ2MDk0IEwgOS4yMTA5MzggLTguMTQ4NDM4IEwgMTQuMzkwNjI1IDAgTCAxMC44OTA2MjUgMCBMIDcuMzYzMjgxIC01Ljk2NDg0NCBMIDUuMjA3MDMxIC0zLjUgTCA1LjIwNzAzMSAwIFogTSAyLjA0Mjk2OSAwICIvPgo8L3N5bWJvbD4KPHN5bWJvbCBvdmVyZmxvdz0idmlzaWJsZSIgaWQ9ImdseXBoMC0zIj4KPHBhdGggc3R5bGU9InN0cm9rZTpub25lOyIgZD0iTSA2LjgzMjAzMSA2LjA3NDIxOSBDIDYuMDExNzE5IDYuMDcwMzEzIDUuMjUgNS45OTYwOTQgNC41NTA3ODEgNS44NTE1NjMgQyAzLjg0NzY1NiA1LjY5OTIxOSAzLjI0NjA5NCA1LjQ3NjU2MyAyLjc0MjE4OCA1LjE3OTY4OCBDIDIuMjM4MjgxIDQuODc4OTA2IDEuODM5ODQ0IDQuNTAzOTA2IDEuNTU0Njg4IDQuMDU4NTk0IEMgMS4yNjE3MTkgMy42MDkzNzUgMS4xMTcxODggMy4wODU5MzggMS4xMjEwOTQgMi40OTIxODggQyAxLjExNzE4OCAxLjkxMDE1NiAxLjI4NTE1NiAxLjM3NSAxLjYyNSAwLjg4MjgxMyBDIDEuOTU3MDMxIDAuMzg2NzE5IDIuNDQxNDA2IC0wLjA1NDY4NzUgMy4wNzgxMjUgLTAuNDQ5MjE5IEwgMy4wNzgxMjUgLTAuNTU4NTk0IEMgMi43MTg3NSAtMC43NzczNDQgMi40MjU3ODEgLTEuMDc4MTI1IDIuMTk1MzEzIC0xLjQ1MzEyNSBDIDEuOTYwOTM4IC0xLjgyODEyNSAxLjg0Mzc1IC0yLjI5Mjk2OSAxLjg0NzY1NiAtMi44NTU0NjkgQyAxLjg0Mzc1IC0zLjM5NDUzMSAyIC0zLjg4NjcxOSAyLjMwODU5NCAtNC4zMjQyMTkgQyAyLjYxNzE4OCAtNC43NjE3MTkgMi45NjQ4NDQgLTUuMTIxMDk0IDMuMzU5Mzc1IC01LjQwMjM0NCBMIDMuMzU5Mzc1IC01LjUxNTYyNSBDIDIuODkwNjI1IC01Ljg2NzE4OCAyLjQ3NjU2MyAtNi4zNTkzNzUgMi4xMTMyODEgLTYuOTg0Mzc1IEMgMS43NDYwOTQgLTcuNjA5Mzc1IDEuNTYyNSAtOC4zMzIwMzEgMS41NjY0MDYgLTkuMTU2MjUgQyAxLjU2MjUgLTkuOTM3NSAxLjcxNDg0NCAtMTAuNjM2NzE5IDIuMDE1NjI1IC0xMS4yNTM5MDYgQyAyLjMxMjUgLTExLjg2NzE4OCAyLjcwNzAzMSAtMTIuMzg2NzE5IDMuMjA3MDMxIC0xMi44MDg1OTQgQyAzLjY5OTIxOSAtMTMuMjMwNDY5IDQuMjczNDM4IC0xMy41NDY4NzUgNC45MjU3ODEgLTEzLjc2MTcxOSBDIDUuNTc4MTI1IC0xMy45NzY1NjMgNi4yNjk1MzEgLTE0LjA4NTkzOCA3IC0xNC4wODU5MzggQyA3LjM3MTA5NCAtMTQuMDg1OTM4IDcuNzMwNDY5IC0xNC4wNTA3ODEgOC4wNzgxMjUgLTEzLjk4NDM3NSBDIDguNDIxODc1IC0xMy45MTc5NjkgOC43MzQzNzUgLTEzLjgzOTg0NCA5LjAxNTYyNSAtMTMuNzQ2MDk0IEwgMTMuOTQ1MzEzIC0xMy43NDYwOTQgTCAxMy45NDUzMTMgLTExLjM2NzE4OCBMIDExLjQyNTc4MSAtMTEuMzY3MTg4IEMgMTEuNjQ4NDM4IC0xMS4xMDU0NjkgMTEuODMyMDMxIC0xMC43NzM0MzggMTEuOTg0Mzc1IC0xMC4zNzUgQyAxMi4xMjg5MDYgLTkuOTcyNjU2IDEyLjIwMzEyNSAtOS41MjczNDQgMTIuMjA3MDMxIC05LjA0Mjk2OSBDIDEyLjIwMzEyNSAtOC4yNzM0MzggMTIuMDcwMzEzIC03LjYwMTU2MyAxMS44MDA3ODEgLTcuMDI3MzQ0IEMgMTEuNTI3MzQ0IC02LjQ0NTMxMyAxMS4xNTYyNSAtNS45NjA5MzggMTAuNjk1MzEzIC01LjU3MDMxMyBDIDEwLjIyNjU2MyAtNS4xNzU3ODEgOS42NzU3ODEgLTQuODc4OTA2IDkuMDQyOTY5IC00LjY3NTc4MSBDIDguNDA2MjUgLTQuNDY4NzUgNy43MjY1NjMgLTQuMzYzMjgxIDcgLTQuMzY3MTg4IEMgNi42OTkyMTkgLTQuMzYzMjgxIDYuMzkwNjI1IC00LjM5MDYyNSA2LjA3NDIxOSAtNC40NDkyMTkgQyA1Ljc1NzgxMyAtNC41MDM5MDYgNS40NDE0MDYgLTQuNTk3NjU2IDUuMTI1IC00LjczMDQ2OSBDIDQuOTE3OTY5IC00LjU0Mjk2OSA0Ljc1MzkwNiAtNC4zNTkzNzUgNC42MzI4MTMgLTQuMTcxODc1IEMgNC41MTE3MTkgLTMuOTg0Mzc1IDQuNDUzMTI1IC0zLjczMDQ2OSA0LjQ1MzEyNSAtMy40MTQwNjMgQyA0LjQ1MzEyNSAtMy4wMTk1MzEgNC42MTMyODEgLTIuNzEwOTM4IDQuOTQxNDA2IC0yLjQ5MjE4OCBDIDUuMjY1NjI1IC0yLjI2NTYyNSA1Ljg1MTU2MyAtMi4xNTYyNSA2LjY5MTQwNiAtMi4xNTYyNSBMIDkuMTI4OTA2IC0yLjE1NjI1IEMgMTAuNzg5MDYzIC0yLjE1NjI1IDEyLjA0Mjk2OSAtMS44ODY3MTkgMTIuODk0NTMxIC0xLjM1NTQ2OSBDIDEzLjc0MjE4OCAtMC44MjAzMTMgMTQuMTY3OTY5IDAuMDM5MDYyNSAxNC4xNjc5NjkgMS4yMzA0NjkgQyAxNC4xNjc5NjkgMS45MDIzNDQgMTMuOTkyMTg4IDIuNTM1MTU2IDEzLjY0ODQzOCAzLjEzMjgxMyBDIDEzLjMwMDc4MSAzLjczMDQ2OSAxMi44MTI1IDQuMjQ2MDk0IDEyLjE3OTY4OCA0LjY3NTc4MSBDIDExLjU0Mjk2OSA1LjEwNTQ2OSAxMC43NzM0MzggNS40NDUzMTMgOS44NjcxODggNS42OTUzMTMgQyA4Ljk2MDkzOCA1Ljk0NTMxMyA3Ljk0OTIxOSA2LjA3MDMxMyA2LjgzMjAzMSA2LjA3NDIxOSBaIE0gNyAtNi4zODI4MTMgQyA3LjY1MjM0NCAtNi4zNzg5MDYgOC4yMTA5MzggLTYuNjE3MTg4IDguNjc5Njg4IC03LjA5NzY1NiBDIDkuMTQwNjI1IC03LjU3MDMxMyA5LjM3NSAtOC4yNTc4MTMgOS4zNzg5MDYgLTkuMTU2MjUgQyA5LjM3NSAtMTAuMDExNzE5IDkuMTQ0NTMxIC0xMC42Nzk2ODggOC42OTE0MDYgLTExLjE1NjI1IEMgOC4yMzA0NjkgLTExLjYzMjgxMyA3LjY2Nzk2OSAtMTEuODcxMDk0IDcgLTExLjg3MTA5NCBDIDYuMzI0MjE5IC0xMS44NzEwOTQgNS43NTM5MDYgLTExLjYzNjcxOSA1LjI5Mjk2OSAtMTEuMTcxODc1IEMgNC44MjQyMTkgLTEwLjcwMzEyNSA0LjU5Mzc1IC0xMC4wMzEyNSA0LjU5Mzc1IC05LjE1NjI1IEMgNC41OTM3NSAtOC4yNTc4MTMgNC44MjQyMTkgLTcuNTcwMzEzIDUuMjkyOTY5IC03LjA5NzY1NiBDIDUuNzUzOTA2IC02LjYxNzE4OCA2LjMyNDIxOSAtNi4zNzg5MDYgNyAtNi4zODI4MTMgWiBNIDcuMzM1OTM4IDMuOTc2NTYzIEMgOC40NTMxMjUgMy45NzI2NTYgOS4zNTE1NjMgMy43NTM5MDYgMTAuMDM1MTU2IDMuMzE2NDA2IEMgMTAuNzE0ODQ0IDIuODc4OTA2IDExLjA1NDY4OCAyLjM1OTM3NSAxMS4wNTg1OTQgMS43NjU2MjUgQyAxMS4wNTQ2ODggMS4yMTg3NSAxMC44NDc2NTYgMC44NTU0NjkgMTAuNDI5Njg4IDAuNjcxODc1IEMgMTAuMDA3ODEzIDAuNDgwNDY5IDkuNDA2MjUgMC4zODY3MTkgOC42MjUgMC4zOTA2MjUgTCA2Ljc0NjA5NCAwLjM5MDYyNSBDIDUuOTk2MDk0IDAuMzg2NzE5IDUuMzcxMDk0IDAuMzIwMzEzIDQuODcxMDk0IDAuMTk1MzEzIEMgNC4xNjAxNTYgMC43MzQzNzUgMy44MDg1OTQgMS4zNDM3NSAzLjgwODU5NCAyLjAxNTYyNSBDIDMuODA4NTk0IDIuNjMyODEzIDQuMTIxMDk0IDMuMTEzMjgxIDQuNzQ2MDk0IDMuNDU3MDMxIEMgNS4zNzEwOTQgMy44MDA3ODEgNi4yMzQzNzUgMy45NzI2NTYgNy4zMzU5MzggMy45NzY1NjMgWiBNIDcuMzM1OTM4IDMuOTc2NTYzICIvPgo8L3N5bWJvbD4KPHN5bWJvbCBvdmVyZmxvdz0idmlzaWJsZSIgaWQ9ImdseXBoMC00Ij4KPHBhdGggc3R5bGU9InN0cm9rZTpub25lOyIgZD0iTSAyLjA0Mjk2OSAwIEwgMi4wNDI5NjkgLTEzLjc0NjA5NCBMIDQuNzAzMTI1IC0xMy43NDYwOTQgTCA0LjkyOTY4OCAtMTEuODcxMDk0IEwgNS4wMzkwNjMgLTExLjg3MTA5NCBDIDUuNjE3MTg4IC0xMi40ODgyODEgNi4yNDYwOTQgLTEzLjAxMTcxOSA2LjkyOTY4OCAtMTMuNDQxNDA2IEMgNy42MDkzNzUgLTEzLjg3MTA5NCA4LjM3ODkwNiAtMTQuMDg1OTM4IDkuMjM4MjgxIC0xNC4wODU5MzggQyAxMC4yNDYwOTQgLTE0LjA4NTkzOCAxMS4wNTQ2ODggLTEzLjg3MTA5NCAxMS42NjAxNTYgLTEzLjQ0MTQwNiBDIDEyLjI2NTYyNSAtMTMuMDExNzE5IDEyLjcyNjU2MyAtMTIuNDAyMzQ0IDEzLjA0Njg3NSAtMTEuNjIxMDk0IEMgMTMuNjk5MjE5IC0xMi4zMjQyMTkgMTQuMzc4OTA2IC0xMi45MTQwNjMgMTUuMDg5ODQ0IC0xMy4zODI4MTMgQyAxNS43OTY4NzUgLTEzLjg1MTU2MyAxNi41OTM3NSAtMTQuMDg1OTM4IDE3LjQ3MjY1NiAtMTQuMDg1OTM4IEMgMTguOTI1NzgxIC0xNC4wODU5MzggMTkuOTk2MDk0IC0xMy42MTMyODEgMjAuNjkxNDA2IC0xMi42NzE4NzUgQyAyMS4zNzg5MDYgLTExLjcyNjU2MyAyMS43MjY1NjMgLTEwLjM3ODkwNiAyMS43MjY1NjMgLTguNjI1IEwgMjEuNzI2NTYzIDAgTCAxOC40ODA0NjkgMCBMIDE4LjQ4MDQ2OSAtOC4yMDMxMjUgQyAxOC40ODA0NjkgLTkuMzM5ODQ0IDE4LjMwNDY4OCAtMTAuMTQwNjI1IDE3Ljk2MDkzOCAtMTAuNjA5Mzc1IEMgMTcuNjEzMjgxIC0xMS4wNzQyMTkgMTcuMDg1OTM4IC0xMS4zMDg1OTQgMTYuMzc4OTA2IC0xMS4zMTI1IEMgMTUuNTE5NTMxIC0xMS4zMDg1OTQgMTQuNTU4NTk0IC0xMC43MzgyODEgMTMuNDk2MDk0IC05LjYwNTQ2OSBMIDEzLjQ5NjA5NCAwIEwgMTAuMjc3MzQ0IDAgTCAxMC4yNzczNDQgLTguMjAzMTI1IEMgMTAuMjc3MzQ0IC05LjMzOTg0NCAxMC4xMDE1NjMgLTEwLjE0MDYyNSA5Ljc1NzgxMyAtMTAuNjA5Mzc1IEMgOS40MDYyNSAtMTEuMDc0MjE5IDguODcxMDk0IC0xMS4zMDg1OTQgOC4xNDg0MzggLTExLjMxMjUgQyA3LjI4NTE1NiAtMTEuMzA4NTk0IDYuMzI0MjE5IC0xMC43MzgyODEgNS4yNjU2MjUgLTkuNjA1NDY5IEwgNS4yNjU2MjUgMCBaIE0gMi4wNDI5NjkgMCAiLz4KPC9zeW1ib2w+CjxzeW1ib2wgb3ZlcmZsb3c9InZpc2libGUiIGlkPSJnbHlwaDAtNSI+CjxwYXRoIHN0eWxlPSJzdHJva2U6bm9uZTsiIGQ9Ik0gNy42NzE4NzUgMC4zMzU5MzggQyA2LjgwODU5NCAwLjMzMjAzMSA1Ljk4ODI4MSAwLjE3NTc4MSA1LjIwNzAzMSAtMC4xNDA2MjUgQyA0LjQyMTg3NSAtMC40NTcwMzEgMy43MjY1NjMgLTAuOTIxODc1IDMuMTIxMDk0IC0xLjUzOTA2MyBDIDIuNTExNzE5IC0yLjE1MjM0NCAyLjAzMTI1IC0yLjkxMDE1NiAxLjY3OTY4OCAtMy44MDg1OTQgQyAxLjMyNDIxOSAtNC43MDMxMjUgMS4xNDg0MzggLTUuNzE4NzUgMS4xNDg0MzggLTYuODU5Mzc1IEMgMS4xNDg0MzggLTcuOTk2MDk0IDEuMzI0MjE5IC05LjAxMTcxOSAxLjY3OTY4OCAtOS45MTAxNTYgQyAyLjAzMTI1IC0xMC44MDQ2ODggMi41MTE3MTkgLTExLjU2MjUgMy4xMjEwOTQgLTEyLjE3OTY4OCBDIDMuNzI2NTYzIC0xMi43OTI5NjkgNC40MjE4NzUgLTEzLjI2NTYyNSA1LjIwNzAzMSAtMTMuNTkzNzUgQyA1Ljk4ODI4MSAtMTMuOTIxODc1IDYuODA4NTk0IC0xNC4wODU5MzggNy42NzE4NzUgLTE0LjA4NTkzOCBDIDguNTI3MzQ0IC0xNC4wODU5MzggOS4zNTU0NjkgLTEzLjkyMTg3NSAxMC4xNDg0MzggLTEzLjU5Mzc1IEMgMTAuOTQxNDA2IC0xMy4yNjU2MjUgMTEuNjM2NzE5IC0xMi43OTI5NjkgMTIuMjM0Mzc1IC0xMi4xNzk2ODggQyAxMi44MzIwMzEgLTExLjU2MjUgMTMuMzEyNSAtMTAuODA0Njg4IDEzLjY3NTc4MSAtOS45MTAxNTYgQyAxNC4wMzkwNjMgLTkuMDExNzE5IDE0LjIxODc1IC03Ljk5NjA5NCAxNC4yMjI2NTYgLTYuODU5Mzc1IEMgMTQuMjE4NzUgLTUuNzE4NzUgMTQuMDM5MDYzIC00LjcwMzEyNSAxMy42NzU3ODEgLTMuODA4NTk0IEMgMTMuMzEyNSAtMi45MTAxNTYgMTIuODMyMDMxIC0yLjE1MjM0NCAxMi4yMzQzNzUgLTEuNTM5MDYzIEMgMTEuNjM2NzE5IC0wLjkyMTg3NSAxMC45NDE0MDYgLTAuNDU3MDMxIDEwLjE0ODQzOCAtMC4xNDA2MjUgQyA5LjM1NTQ2OSAwLjE3NTc4MSA4LjUyNzM0NCAwLjMzMjAzMSA3LjY3MTg3NSAwLjMzNTkzOCBaIE0gNy42NzE4NzUgLTIuMjk2ODc1IEMgOC42NzU3ODEgLTIuMjk2ODc1IDkuNDY4NzUgLTIuNzEwOTM4IDEwLjA1MDc4MSAtMy41NDI5NjkgQyAxMC42Mjg5MDYgLTQuMzcxMDk0IDEwLjkyMTg3NSAtNS40NzY1NjMgMTAuOTIxODc1IC02Ljg1OTM3NSBDIDEwLjkyMTg3NSAtOC4yNTc4MTMgMTAuNjI4OTA2IC05LjM3NSAxMC4wNTA3ODEgLTEwLjIwNzAzMSBDIDkuNDY4NzUgLTExLjAzNTE1NiA4LjY3NTc4MSAtMTEuNDQ5MjE5IDcuNjcxODc1IC0xMS40NTMxMjUgQyA2LjY2MDE1NiAtMTEuNDQ5MjE5IDUuODcxMDk0IC0xMS4wMzUxNTYgNS4zMDQ2ODggLTEwLjIwNzAzMSBDIDQuNzM0Mzc1IC05LjM3NSA0LjQ1MzEyNSAtOC4yNTc4MTMgNC40NTMxMjUgLTYuODU5Mzc1IEMgNC40NTMxMjUgLTUuNDc2NTYzIDQuNzM0Mzc1IC00LjM3MTA5NCA1LjMwNDY4OCAtMy41NDI5NjkgQyA1Ljg3MTA5NCAtMi43MTA5MzggNi42NjAxNTYgLTIuMjk2ODc1IDcuNjcxODc1IC0yLjI5Njg3NSBaIE0gNy42NzE4NzUgLTIuMjk2ODc1ICIvPgo8L3N5bWJvbD4KPHN5bWJvbCBvdmVyZmxvdz0idmlzaWJsZSIgaWQ9ImdseXBoMC02Ij4KPHBhdGggc3R5bGU9InN0cm9rZTpub25lOyIgZD0iTSA1LjE3OTY4OCAwLjMzNTkzOCBDIDQuMDIzNDM4IDAuMzMyMDMxIDMuMjEwOTM4IC0wLjAwNzgxMjUgMi43NDIxODggLTAuNjk5MjE5IEMgMi4yNzM0MzggLTEuMzg2NzE5IDIuMDM5MDYzIC0yLjMzMjAzMSAyLjA0Mjk2OSAtMy41MjczNDQgTCAyLjA0Mjk2OSAtMTkuNzY5NTMxIEwgNS4yNjU2MjUgLTE5Ljc2OTUzMSBMIDUuMjY1NjI1IC0zLjM1OTM3NSBDIDUuMjYxNzE5IC0yLjk2NDg0NCA1LjMzNTkzOCAtMi42OTE0MDYgNS40ODgyODEgLTIuNTM1MTU2IEMgNS42MzI4MTMgLTIuMzc1IDUuNzkyOTY5IC0yLjI5Njg3NSA1Ljk2NDg0NCAtMi4yOTY4NzUgQyA2LjAzNTE1NiAtMi4yOTY4NzUgNi4xMDE1NjMgLTIuMjk2ODc1IDYuMTcxODc1IC0yLjI5Njg3NSBDIDYuMjM0Mzc1IC0yLjI5Njg3NSA2LjMzNTkzOCAtMi4zMTI1IDYuNDY4NzUgLTIuMzUxNTYzIEwgNi44ODY3MTkgMC4wNTQ2ODc1IEMgNi40NTMxMjUgMC4yMzgyODEgNS44ODY3MTkgMC4zMzIwMzEgNS4xNzk2ODggMC4zMzU5MzggWiBNIDUuMTc5Njg4IDAuMzM1OTM4ICIvPgo8L3N5bWJvbD4KPHN5bWJvbCBvdmVyZmxvdz0idmlzaWJsZSIgaWQ9ImdseXBoMC03Ij4KPHBhdGggc3R5bGU9InN0cm9rZTpub25lOyIgZD0iTSA3Ljc4NTE1NiAwLjMzNTkzOCBDIDYuODQ3NjU2IDAuMzMyMDMxIDUuOTcyNjU2IDAuMTc1NzgxIDUuMTY0MDYzIC0wLjE0MDYyNSBDIDQuMzUxNTYzIC0wLjQ1NzAzMSAzLjY0ODQzOCAtMC45MjE4NzUgMy4wNTA3ODEgLTEuNTM5MDYzIEMgMi40NTMxMjUgLTIuMTUyMzQ0IDEuOTg4MjgxIC0yLjkxMDE1NiAxLjY1MjM0NCAtMy44MDg1OTQgQyAxLjMxNjQwNiAtNC43MDMxMjUgMS4xNDg0MzggLTUuNzE4NzUgMS4xNDg0MzggLTYuODU5Mzc1IEMgMS4xNDg0MzggLTcuOTk2MDk0IDEuMzMyMDMxIC05LjAxMTcxOSAxLjcwNzAzMSAtOS45MTAxNTYgQyAyLjA3ODEyNSAtMTAuODA0Njg4IDIuNTgyMDMxIC0xMS41NjI1IDMuMjE4NzUgLTEyLjE3OTY4OCBDIDMuODUxNTYzIC0xMi43OTI5NjkgNC41ODU5MzggLTEzLjI2NTYyNSA1LjQxNzk2OSAtMTMuNTkzNzUgQyA2LjI0NjA5NCAtMTMuOTIxODc1IDcuMTE3MTg4IC0xNC4wODU5MzggOC4wMzUxNTYgLTE0LjA4NTkzOCBDIDguOTI1NzgxIC0xNC4wODU5MzggOS42OTUzMTMgLTEzLjkzMzU5NCAxMC4zNDM3NSAtMTMuNjM2NzE5IEMgMTAuOTg0Mzc1IC0xMy4zMzIwMzEgMTEuNTU4NTk0IC0xMi45Njg3NSAxMi4wNjY0MDYgLTEyLjU0Mjk2OSBMIDEwLjUgLTEwLjQ0NTMxMyBDIDEwLjEyNSAtMTAuNzYxNzE5IDkuNzUzOTA2IC0xMS4wMDc4MTMgOS4zOTQ1MzEgLTExLjE4NzUgQyA5LjAyNzM0NCAtMTEuMzU5Mzc1IDguNjMyODEzIC0xMS40NDkyMTkgOC4yMDMxMjUgLTExLjQ1MzEyNSBDIDcuMDgyMDMxIC0xMS40NDkyMTkgNi4xNzU3ODEgLTExLjAzNTE1NiA1LjQ4ODI4MSAtMTAuMjA3MDMxIEMgNC43OTY4NzUgLTkuMzc1IDQuNDUzMTI1IC04LjI1NzgxMyA0LjQ1MzEyNSAtNi44NTkzNzUgQyA0LjQ1MzEyNSAtNS40NzY1NjMgNC43OTI5NjkgLTQuMzcxMDk0IDUuNDcyNjU2IC0zLjU0Mjk2OSBDIDYuMTUyMzQ0IC0yLjcxMDkzOCA3LjAzNTE1NiAtMi4yOTY4NzUgOC4xMjEwOTQgLTIuMjk2ODc1IEMgOC42NjAxNTYgLTIuMjk2ODc1IDkuMTY3OTY5IC0yLjQxMDE1NiA5LjY0NDUzMSAtMi42NDQ1MzEgQyAxMC4xMjEwOTQgLTIuODc1IDEwLjU1NDY4OCAtMy4xNTIzNDQgMTAuOTQ5MjE5IC0zLjQ3MjY1NiBMIDEyLjI2NTYyNSAtMS4zNDM3NSBDIDExLjYwOTM3NSAtMC43ODEyNSAxMC44OTQ1MzEgLTAuMzYzMjgxIDEwLjEyMTA5NCAtMC4wODIwMzEzIEMgOS4zNDM3NSAwLjE5NTMxMyA4LjU2NjQwNiAwLjMzMjAzMSA3Ljc4NTE1NiAwLjMzNTkzOCBaIE0gNy43ODUxNTYgMC4zMzU5MzggIi8+Cjwvc3ltYm9sPgo8c3ltYm9sIG92ZXJmbG93PSJ2aXNpYmxlIiBpZD0iZ2x5cGgwLTgiPgo8cGF0aCBzdHlsZT0ic3Ryb2tlOm5vbmU7IiBkPSJNIDYuODU5Mzc1IDAuMzM1OTM4IEMgNS4xMjEwOTQgMC4zMzIwMzEgMy43NDYwOTQgLTAuMjkyOTY5IDIuNzMwNDY5IC0xLjU1NDY4OCBDIDEuNzEwOTM4IC0yLjgxMjUgMS4xOTkyMTkgLTQuNTgyMDMxIDEuMjAzMTI1IC02Ljg1OTM3NSBDIDEuMTk5MjE5IC03Ljk3NjU2MyAxLjM2MzI4MSAtOC45ODQzNzUgMS42OTE0MDYgLTkuODgyODEzIEMgMi4wMTU2MjUgLTEwLjc3NzM0NCAyLjQ0OTIxOSAtMTEuNTMxMjUgMi45OTYwOTQgLTEyLjE0ODQzOCBDIDMuNTM1MTU2IC0xMi43NjE3MTkgNC4xNTYyNSAtMTMuMjM4MjgxIDQuODU1NDY5IC0xMy41NzgxMjUgQyA1LjU1NDY4OCAtMTMuOTE0MDYzIDYuMjc3MzQ0IC0xNC4wODU5MzggNy4wMjczNDQgLTE0LjA4NTkzOCBDIDcuODA4NTk0IC0xNC4wODU5MzggOC40NzI2NTYgLTEzLjk0OTIxOSA5LjAxNTYyNSAtMTMuNjc5Njg4IEMgOS41NTQ2ODggLTEzLjQwNjI1IDEwLjA5NzY1NiAtMTMuMDM1MTU2IDEwLjY0MDYyNSAtMTIuNTcwMzEzIEwgMTAuNTI3MzQ0IC0xNC43ODUxNTYgTCAxMC41MjczNDQgLTE5Ljc2OTUzMSBMIDEzLjc0NjA5NCAtMTkuNzY5NTMxIEwgMTMuNzQ2MDk0IDAgTCAxMS4wODk4NDQgMCBMIDEwLjg2MzI4MSAtMS40ODQzNzUgTCAxMC43NTM5MDYgLTEuNDg0Mzc1IEMgMTAuMjQ2MDk0IC0wLjk3NjU2MyA5LjY2MDE1NiAtMC41NDY4NzUgOC45ODgyODEgLTAuMTk1MzEzIEMgOC4zMTY0MDYgMC4xNjAxNTYgNy42MDU0NjkgMC4zMzIwMzEgNi44NTkzNzUgMC4zMzU5MzggWiBNIDcuNjQ0NTMxIC0yLjMyNDIxOSBDIDguNjY3OTY5IC0yLjMyMDMxMyA5LjYyODkwNiAtMi44MzIwMzEgMTAuNTI3MzQ0IC0zLjg2MzI4MSBMIDEwLjUyNzM0NCAtMTAuMjc3MzQ0IEMgMTAuMDM5MDYzIC0xMC43MDcwMzEgOS41NjY0MDYgLTExLjAwMzkwNiA5LjExMzI4MSAtMTEuMTcxODc1IEMgOC42NTIzNDQgLTExLjMzOTg0NCA4LjE5MTQwNiAtMTEuNDI1NzgxIDcuNzI2NTYzIC0xMS40MjU3ODEgQyA2LjgyODEyNSAtMTEuNDI1NzgxIDYuMDcwMzEzIC0xMS4wMzEyNSA1LjQ1NzAzMSAtMTAuMjQ2MDk0IEMgNC44Mzk4NDQgLTkuNDYwOTM4IDQuNTM1MTU2IC04LjMzOTg0NCA0LjUzNTE1NiAtNi44ODY3MTkgQyA0LjUzNTE1NiAtNS4zOTA2MjUgNC44MDA3ODEgLTQuMjU3ODEzIDUuMzMyMDMxIC0zLjQ4NDM3NSBDIDUuODYzMjgxIC0yLjcwNzAzMSA2LjYzMjgxMyAtMi4zMjAzMTMgNy42NDQ1MzEgLTIuMzI0MjE5IFogTSA3LjY0NDUzMSAtMi4zMjQyMTkgIi8+Cjwvc3ltYm9sPgo8c3ltYm9sIG92ZXJmbG93PSJ2aXNpYmxlIiBpZD0iZ2x5cGgwLTkiPgo8cGF0aCBzdHlsZT0ic3Ryb2tlOm5vbmU7IiBkPSJNIDIuMzI0MjE5IDAgTCAyLjMyNDIxOSAtMTguMzEyNSBMIDUuNTcwMzEzIC0xOC4zMTI1IEwgNS41NzAzMTMgLTkuOTk2MDk0IEwgNS42NTYyNSAtOS45OTYwOTQgTCAxMi4xNzk2ODggLTE4LjMxMjUgTCAxNS43OTI5NjkgLTE4LjMxMjUgTCAxMC4xNjQwNjMgLTExLjE3MTg3NSBMIDE2Ljc0MjE4OCAwIEwgMTMuMTYwMTU2IDAgTCA4LjIwMzEyNSAtOC42MjUgTCA1LjU3MDMxMyAtNS4zNDc2NTYgTCA1LjU3MDMxMyAwIFogTSAyLjMyNDIxOSAwICIvPgo8L3N5bWJvbD4KPHN5bWJvbCBvdmVyZmxvdz0idmlzaWJsZSIgaWQ9ImdseXBoMC0xMCI+CjxwYXRoIHN0eWxlPSJzdHJva2U6bm9uZTsiIGQ9Ik0gNi4wNzQyMTkgLTkuNzQyMTg4IEwgNS40MzM1OTQgLTcuNTAzOTA2IEwgMTAuMTA5Mzc1IC03LjUwMzkwNiBMIDkuNDY0ODQ0IC05Ljc0MjE4OCBDIDkuMTYwMTU2IC0xMC43MTA5MzggOC44NzUgLTExLjcxMDkzOCA4LjYwOTM3NSAtMTIuNzM4MjgxIEMgOC4zMzU5MzggLTEzLjc2NTYyNSA4LjA3MDMxMyAtMTQuNzgxMjUgNy44MTI1IC0xNS43OTI5NjkgTCA3LjY5OTIxOSAtMTUuNzkyOTY5IEMgNy40Mzc1IC0xNC43NjE3MTkgNy4xNzU3ODEgLTEzLjc0MjE4OCA2LjkxNDA2MyAtMTIuNzI2NTYzIEMgNi42NTIzNDQgLTExLjcwNzAzMSA2LjM3MTA5NCAtMTAuNzEwOTM4IDYuMDc0MjE5IC05Ljc0MjE4OCBaIE0gLTAuMDU0Njg3NSAwIEwgNS45MDYyNSAtMTguMzEyNSBMIDkuNzE0ODQ0IC0xOC4zMTI1IEwgMTUuNjc5Njg4IDAgTCAxMi4yNjU2MjUgMCBMIDEwLjgzNTkzOCAtNC45NTcwMzEgTCA0LjY3NTc4MSAtNC45NTcwMzEgTCAzLjI0NjA5NCAwIFogTSAtMC4wNTQ2ODc1IDAgIi8+Cjwvc3ltYm9sPgo8c3ltYm9sIG92ZXJmbG93PSJ2aXNpYmxlIiBpZD0iZ2x5cGgxLTAiPgo8cGF0aCBzdHlsZT0ic3Ryb2tlOm5vbmU7IiBkPSJNIDEuMDc0MjE5IDAgTCAxLjA3NDIxOSAtOC40MzM1OTQgTCA3LjUxNTYyNSAtOC40MzM1OTQgTCA3LjUxNTYyNSAwIFogTSAyLjkzNzUgLTAuOTU3MDMxIEwgNS42MjEwOTQgLTAuOTU3MDMxIEwgNC45MDYyNSAtMi4yODkwNjMgTCA0LjMyMDMxMyAtMy41NjY0MDYgTCA0LjI2OTUzMSAtMy41NjY0MDYgTCAzLjY2Nzk2OSAtMi4yODkwNjMgWiBNIDQuMjY5NTMxIC01LjEyNSBMIDQuMzIwMzEzIC01LjEyNSBMIDQuOTA2MjUgLTYuMzI0MjE5IEwgNS41MTk1MzEgLTcuNDY0ODQ0IEwgMy4wNTQ2ODggLTcuNDY0ODQ0IEwgMy42Nzk2ODggLTYuMzI0MjE5IFogTSAyLjEyMTA5NCAtMS42OTkyMTkgTCAzLjUzOTA2MyAtNC4zNDM3NSBMIDIuMTIxMDk0IC03LjAxNTYyNSBaIE0gNi40NTMxMjUgLTEuNjk5MjE5IEwgNi40NTMxMjUgLTcuMDE1NjI1IEwgNS4wNDY4NzUgLTQuMzQzNzUgWiBNIDYuNDUzMTI1IC0xLjY5OTIxOSAiLz4KPC9zeW1ib2w+CjxzeW1ib2wgb3ZlcmZsb3c9InZpc2libGUiIGlkPSJnbHlwaDEtMSI+CjxwYXRoIHN0eWxlPSJzdHJva2U6bm9uZTsiIGQ9Ik0gNC4zOTQ1MzEgMC4xNTIzNDQgQyAzLjg2NzE4OCAwLjE1MjM0NCAzLjM3MTA5NCAwLjA1ODU5MzggMi45MTQwNjMgLTAuMTI4OTA2IEMgMi40NDkyMTkgLTAuMzE2NDA2IDIuMDUwNzgxIC0wLjU4OTg0NCAxLjcxODc1IC0wLjk1NzAzMSBDIDEuMzc4OTA2IC0xLjMyMDMxMyAxLjExMzI4MSAtMS43NzM0MzggMC45MTc5NjkgLTIuMzEyNSBDIDAuNzE4NzUgLTIuODQ3NjU2IDAuNjIxMDk0IC0zLjQ2MDkzOCAwLjYyNSAtNC4xNTIzNDQgQyAwLjYyMTA5NCAtNC44MzIwMzEgMC43MjI2NTYgLTUuNDQxNDA2IDAuOTI1NzgxIC01Ljk4NDM3NSBDIDEuMTI1IC02LjUyMzQzOCAxLjM5NDUzMSAtNi45ODQzNzUgMS43NDIxODggLTcuMzU5Mzc1IEMgMi4wODU5MzggLTcuNzM0Mzc1IDIuNDkyMTg4IC04LjAxOTUzMSAyLjk1NzAzMSAtOC4yMTQ4NDQgQyAzLjQyMTg3NSAtOC40MTAxNTYgMy45MTc5NjkgLTguNTA3ODEzIDQuNDQ1MzEzIC04LjUxMTcxOSBDIDQuOTcyNjU2IC04LjUwNzgxMyA1LjQ0MTQwNiAtOC40MDIzNDQgNS44NTE1NjMgLTguMTkxNDA2IEMgNi4yNTc4MTMgLTcuOTc2NTYzIDYuNTkzNzUgLTcuNzI2NTYzIDYuODYzMjgxIC03LjQ0OTIxOSBMIDYuMDcwMzEzIC02LjQ5MjE4OCBDIDUuODQ3NjU2IC02LjcxMDkzOCA1LjYwOTM3NSAtNi44ODY3MTkgNS4zNTU0NjkgLTcuMDE5NTMxIEMgNS4wOTc2NTYgLTcuMTUyMzQ0IDQuODA0Njg4IC03LjIxODc1IDQuNDg0Mzc1IC03LjIxODc1IEMgNC4xNDA2MjUgLTcuMjE4NzUgMy44MjgxMjUgLTcuMTQ4NDM4IDMuNTQyOTY5IC03LjAwNzgxMyBDIDMuMjU3ODEzIC02Ljg2NzE4OCAzLjAxMTcxOSAtNi42NjQwNjMgMi44MDQ2ODggLTYuNDA2MjUgQyAyLjU5Mzc1IC02LjE0NDUzMSAyLjQzMzU5NCAtNS44MjgxMjUgMi4zMjAzMTMgLTUuNDU3MDMxIEMgMi4yMDMxMjUgLTUuMDc4MTI1IDIuMTQ0NTMxIC00LjY1NjI1IDIuMTQ4NDM4IC00LjE5MTQwNiBDIDIuMTQ0NTMxIC0zLjIzNDM3NSAyLjM1MTU2MyAtMi40ODgyODEgMi43NjU2MjUgLTEuOTQ5MjE5IEMgMy4xNzk2ODggLTEuNDA2MjUgMy43MzgyODEgLTEuMTM2NzE5IDQuNDQ1MzEzIC0xLjEzNjcxOSBDIDQuODE2NDA2IC0xLjEzNjcxOSA1LjE0ODQzOCAtMS4yMTQ4NDQgNS40NDE0MDYgLTEuMzcxMDk0IEMgNS43MzA0NjkgLTEuNTI3MzQ0IDUuOTk2MDk0IC0xLjczNDM3NSA2LjIzNDM3NSAtMS45OTIxODggTCA3LjAyNzM0NCAtMS4wNjI1IEMgNi42ODM1OTQgLTAuNjY0MDYzIDYuMjk2ODc1IC0wLjM2MzI4MSA1Ljg1OTM3NSAtMC4xNjAxNTYgQyA1LjQyMTg3NSAwLjA1MDc4MTMgNC45MzM1OTQgMC4xNTIzNDQgNC4zOTQ1MzEgMC4xNTIzNDQgWiBNIDQuMzk0NTMxIDAuMTUyMzQ0ICIvPgo8L3N5bWJvbD4KPHN5bWJvbCBvdmVyZmxvdz0idmlzaWJsZSIgaWQ9ImdseXBoMS0yIj4KPHBhdGggc3R5bGU9InN0cm9rZTpub25lOyIgZD0iTSAyLjY4MzU5NCAwLjE1MjM0NCBDIDIuMjQ2MDk0IDAuMTUyMzQ0IDEuODE2NDA2IDAuMDcwMzEyNSAxLjM5ODQzOCAtMC4wOTM3NSBDIDAuOTcyNjU2IC0wLjI1NzgxMyAwLjYwOTM3NSAtMC40NjQ4NDQgMC4zMDg1OTQgLTAuNzE0ODQ0IEwgMC45OTYwOTQgLTEuNjYwMTU2IEMgMS4yNzczNDQgLTEuNDMzNTk0IDEuNTU0Njg4IC0xLjI2MTcxOSAxLjgzMjAzMSAtMS4xNDA2MjUgQyAyLjEwOTM3NSAtMS4wMTU2MjUgMi40MTAxNTYgLTAuOTUzMTI1IDIuNzM0Mzc1IC0wLjk1NzAzMSBDIDMuMDc0MjE5IC0wLjk1MzEyNSAzLjMyNDIxOSAtMS4wMjM0MzggMy40ODgyODEgLTEuMTY3OTY5IEMgMy42NDQ1MzEgLTEuMzA0Njg4IDMuNzI2NTYzIC0xLjQ4ODI4MSAzLjczMDQ2OSAtMS43MTA5MzggQyAzLjcyNjU2MyAtMS44MzU5MzggMy42ODc1IC0xLjk0OTIxOSAzLjYxMzI4MSAtMi4wNTA3ODEgQyAzLjUzNTE1NiAtMi4xNDg0MzggMy40MzM1OTQgLTIuMjM0Mzc1IDMuMzA4NTk0IC0yLjMxMjUgQyAzLjE3OTY4OCAtMi4zODY3MTkgMy4wMzUxNTYgLTIuNDU3MDMxIDIuODc1IC0yLjUyMzQzOCBDIDIuNzEwOTM4IC0yLjU4NTkzOCAyLjU1MDc4MSAtMi42NTIzNDQgMi4zOTA2MjUgLTIuNzIyNjU2IEMgMi4xODM1OTQgLTIuNzk2ODc1IDEuOTcyNjU2IC0yLjg4NjcxOSAxLjc2MTcxOSAtMi45ODgyODEgQyAxLjU0Njg3NSAtMy4wODk4NDQgMS4zNTkzNzUgLTMuMjEwOTM4IDEuMTk1MzEzIC0zLjM1OTM3NSBDIDEuMDI3MzQ0IC0zLjUgMC44OTA2MjUgLTMuNjY3OTY5IDAuNzg1MTU2IC0zLjg2MzI4MSBDIDAuNjc1NzgxIC00LjA1MDc4MSAwLjYyMTA5NCAtNC4yODEyNSAwLjYyNSAtNC41NTA3ODEgQyAwLjYyMTA5NCAtNS4xMDE1NjMgMC44MjQyMTkgLTUuNTUwNzgxIDEuMjM4MjgxIC01LjkwMjM0NCBDIDEuNjQ0NTMxIC02LjI1IDIuMjAzMTI1IC02LjQyNTc4MSAyLjkxNDA2MyAtNi40Mjk2ODggQyAzLjM0Mzc1IC02LjQyNTc4MSAzLjczODI4MSAtNi4zNTE1NjMgNC4wODk4NDQgLTYuMTk5MjE5IEMgNC40Mzc1IC02LjA0Mjk2OSA0LjczODI4MSAtNS44NjcxODggNC45OTYwOTQgLTUuNjc1NzgxIEwgNC4zMjAzMTMgLTQuNzgxMjUgQyA0LjA5Mzc1IC00Ljk0MTQwNiAzLjg3MTA5NCAtNS4wNzAzMTMgMy42NDg0MzggLTUuMTY3OTY5IEMgMy40MTc5NjkgLTUuMjY1NjI1IDMuMTc5Njg4IC01LjMxMjUgMi45Mzc1IC01LjMxNjQwNiBDIDIuNjE3MTg4IC01LjMxMjUgMi4zODY3MTkgLTUuMjQ2MDk0IDIuMjQyMTg4IC01LjExNzE4OCBDIDIuMDg5ODQ0IC00Ljk4NDM3NSAyLjAxNTYyNSAtNC44MjAzMTMgMi4wMTk1MzEgLTQuNjI1IEMgMi4wMTU2MjUgLTQuNDkyMTg4IDIuMDUwNzgxIC00LjM4NjcxOSAyLjEyODkwNiAtNC4zMDA3ODEgQyAyLjE5OTIxOSAtNC4yMTA5MzggMi4yOTY4NzUgLTQuMTI4OTA2IDIuNDE0MDYzIC00LjA2MjUgQyAyLjUzMTI1IC0zLjk5MjE4OCAyLjY2Nzk2OSAtMy45Mjk2ODggMi44MjgxMjUgLTMuODcxMDk0IEMgMi45ODQzNzUgLTMuODA4NTk0IDMuMTQ4NDM4IC0zLjc1IDMuMzI0MjE5IC0zLjY5MTQwNiBDIDMuNTMxMjUgLTMuNjEzMjgxIDMuNzQ2MDk0IC0zLjUyMzQzOCAzLjk2MDkzOCAtMy40Mjk2ODggQyA0LjE3MTg3NSAtMy4zMjgxMjUgNC4zNjMyODEgLTMuMjA3MDMxIDQuNTQyOTY5IC0zLjA2NjQwNiBDIDQuNzE0ODQ0IC0yLjkxNzk2OSA0Ljg1NTQ2OSAtMi43NDIxODggNC45NjQ4NDQgLTIuNTM1MTU2IEMgNS4wNjY0MDYgLTIuMzI0MjE5IDUuMTIxMDk0IC0yLjA3NDIxOSA1LjEyNSAtMS43ODkwNjMgQyA1LjEyMTA5NCAtMS41MTE3MTkgNS4wNjY0MDYgLTEuMjU3ODEzIDQuOTY0ODQ0IC0xLjAyNzM0NCBDIDQuODU1NDY5IC0wLjc4OTA2MyA0LjY5OTIxOSAtMC41ODU5MzggNC40OTYwOTQgLTAuNDE0MDYzIEMgNC4yODkwNjMgLTAuMjM4MjgxIDQuMDM1MTU2IC0wLjEwMTU2MyAzLjczMDQ2OSAwIEMgMy40MjE4NzUgMC4xMDE1NjMgMy4wNzQyMTkgMC4xNTIzNDQgMi42ODM1OTQgMC4xNTIzNDQgWiBNIDIuNjgzNTk0IDAuMTUyMzQ0ICIvPgo8L3N5bWJvbD4KPHN5bWJvbCBvdmVyZmxvdz0idmlzaWJsZSIgaWQ9ImdseXBoMi0wIj4KPHBhdGggc3R5bGU9InN0cm9rZTpub25lOyIgZD0iTSAwLjgzMjAzMSAwIEwgNC4yMTA5MzggLTE3LjE2MDE1NiBMIDE2LjcxODc1IC0xNy4xNjAxNTYgTCAxMy4zMzk4NDQgMCBaIE0gOS4xMDE1NjMgLTEwLjI5Njg3NSBMIDkuMjAzMTI1IC0xMC4yOTY4NzUgTCAxMC44NjcxODggLTEyLjc2NTYyNSBMIDEyLjYwOTM3NSAtMTUuMjg5MDYzIEwgNy42NzE4NzUgLTE1LjI4OTA2MyBMIDguNDI1NzgxIC0xMi43NjU2MjUgWiBNIDQuNzg1MTU2IC0xLjg3MTA5NCBMIDEwLjExMzI4MSAtMS44NzEwOTQgTCA5LjI1NzgxMyAtNC43MzA0NjkgTCA4LjYwNTQ2OSAtNy4zMDQ2ODggTCA4LjUwMzkwNiAtNy4zMDQ2ODggTCA2LjgxMjUgLTQuNzMwNDY5IFogTSAzLjUzNTE1NiAtMy4yNzczNDQgTCA3LjQzNzUgLTguODM5ODQ0IEwgNS43NDYwOTQgLTE0LjQwMjM0NCBaIE0gMTEuOTYwOTM4IC0zLjI3NzM0NCBMIDE0LjI0NjA5NCAtMTQuNDAyMzQ0IEwgMTAuMjk2ODc1IC04LjgzOTg0NCBaIE0gMTEuOTYwOTM4IC0zLjI3NzM0NCAiLz4KPC9zeW1ib2w+CjxzeW1ib2wgb3ZlcmZsb3c9InZpc2libGUiIGlkPSJnbHlwaDItMSI+CjxwYXRoIHN0eWxlPSJzdHJva2U6bm9uZTsiIGQ9Ik0gMC41NzAzMTMgMCBMIDQuMjY1NjI1IC0xOC4zNTU0NjkgTCA3LjA0Njg3NSAtMTguMzU1NDY5IEwgNS45Mjk2ODggLTEyLjk0OTIxOSBMIDUuNDMzNTk0IC0xMS4xMDE1NjMgTCA1LjUzOTA2MyAtMTEuMTAxNTYzIEMgNi4xOTUzMTMgLTExLjY1MjM0NCA2Ljg2NzE4OCAtMTIuMTIxMDk0IDcuNTUwNzgxIC0xMi41MDM5MDYgQyA4LjIzNDM3NSAtMTIuODg2NzE5IDguOTY4NzUgLTEzLjA3ODEyNSA5Ljc1IC0xMy4wNzgxMjUgQyAxMC44MjQyMTkgLTEzLjA3ODEyNSAxMS41OTM3NSAtMTIuODAwNzgxIDEyLjA2MjUgLTEyLjI0NjA5NCBDIDEyLjUyNzM0NCAtMTEuNjkxNDA2IDEyLjc2MTcxOSAtMTAuODk0NTMxIDEyLjc2NTYyNSAtOS44NTU0NjkgQyAxMi43NjE3MTkgLTkuNTU4NTk0IDEyLjc1IC05LjI2OTUzMSAxMi43MjY1NjMgLTguOTkyMTg4IEMgMTIuNjk5MjE5IC04LjcxNDg0NCAxMi42NDA2MjUgLTguNDAyMzQ0IDEyLjU1ODU5NCAtOC4wNTg1OTQgTCAxMC45NDUzMTMgMCBMIDguMTY0MDYzIDAgTCA5LjcyMjY1NiAtNy42OTUzMTMgQyA5Ljc2OTUzMSAtNy45ODQzNzUgOS44MjAzMTMgLTguMjM4MjgxIDkuODY3MTg4IC04LjQ0OTIxOSBDIDkuOTEwMTU2IC04LjY1NjI1IDkuOTI5Njg4IC04Ljg1NTQ2OSA5LjkzMzU5NCAtOS4wNDY4NzUgQyA5LjkyOTY4OCAtMTAuMTQwNjI1IDkuMzk0NTMxIC0xMC42ODc1IDguMzIwMzEzIC0xMC42ODc1IEMgNy44NjcxODggLTEwLjY4NzUgNy4zODI4MTMgLTEwLjUzMTI1IDYuODc1IC0xMC4yMTg3NSBDIDYuMzU5Mzc1IC05LjkwNjI1IDUuNzY5NTMxIC05LjQwMjM0NCA1LjA5NzY1NiAtOC43MTA5MzggTCAzLjM3ODkwNiAwIFogTSAwLjU3MDMxMyAwICIvPgo8L3N5bWJvbD4KPHN5bWJvbCBvdmVyZmxvdz0idmlzaWJsZSIgaWQ9ImdseXBoMi0yIj4KPHBhdGggc3R5bGU9InN0cm9rZTpub25lOyIgZD0iTSAwLjgzMjAzMSAwIEwgNC4yMTA5MzggLTE3LjAwMzkwNiBMIDYuOTY4NzUgLTE3LjAwMzkwNiBMIDEwLjI5Njg3NSAtNy4xNDg0MzggTCAxMS4yODUxNTYgLTMuNDg0Mzc1IEwgMTEuMzg2NzE5IC0zLjQ4NDM3NSBDIDExLjQ4ODI4MSAtNC4zNjMyODEgMTEuNTkzNzUgLTUuMzE2NDA2IDExLjY5OTIxOSAtNi4zNDM3NSBDIDExLjgwMDc4MSAtNy4zNjMyODEgMTEuOTQ5MjE5IC04LjM0Mzc1IDEyLjE0MDYyNSAtOS4yODEyNSBMIDEzLjY3NTc4MSAtMTcuMDAzOTA2IEwgMTYuMzc4OTA2IC0xNy4wMDM5MDYgTCAxMi45NzI2NTYgMCBMIDEwLjI0MjE4OCAwIEwgNi45NDE0MDYgLTkuODI4MTI1IEwgNS45NTMxMjUgLTEzLjU0Njg3NSBMIDUuODUxNTYzIC0xMy41NDY4NzUgQyA1Ljc0NjA5NCAtMTIuNjI1IDUuNjMyODEzIC0xMS42Njc5NjkgNS41MTE3MTkgLTEwLjY4MzU5NCBDIDUuMzg2NzE5IC05LjY5MTQwNiA1LjIzMDQ2OSAtOC43MzA0NjkgNS4wNDI5NjkgLTcuODAwNzgxIEwgMy41MTE3MTkgMCBaIE0gMC44MzIwMzEgMCAiLz4KPC9zeW1ib2w+CjxzeW1ib2wgb3ZlcmZsb3c9InZpc2libGUiIGlkPSJnbHlwaDItMyI+CjxwYXRoIHN0eWxlPSJzdHJva2U6bm9uZTsiIGQ9Ik0gMC44MzIwMzEgMCBMIDQuMjEwOTM4IC0xNy4wMDM5MDYgTCA3LjAxOTUzMSAtMTcuMDAzOTA2IEwgNS40ODQzNzUgLTkuMzA4NTk0IEwgNS41ODk4NDQgLTkuMzA4NTk0IEwgMTMuMDI3MzQ0IC0xNy4wMDM5MDYgTCAxNi4xMjEwOTQgLTE3LjAwMzkwNiBMIDkuODU1NDY5IC0xMC4yNDIxODggTCAxMy42NzU3ODEgMCBMIDEwLjc2NTYyNSAwIEwgNy43NzM0MzggLTguNDc2NTYzIEwgNC43MDcwMzEgLTUuMzU1NDY5IEwgMy42NDA2MjUgMCBaIE0gMC44MzIwMzEgMCAiLz4KPC9zeW1ib2w+CjxzeW1ib2wgb3ZlcmZsb3c9InZpc2libGUiIGlkPSJnbHlwaDItNCI+CjxwYXRoIHN0eWxlPSJzdHJva2U6bm9uZTsiIGQ9Ik0gMC41NzAzMTMgMCBMIDQuMjY1NjI1IC0xOC4zNTU0NjkgTCA3LjA0Njg3NSAtMTguMzU1NDY5IEwgNC43MzA0NjkgLTYuODEyNSBMIDQuODM1OTM4IC02LjgxMjUgTCAxMC40NzY1NjMgLTEyLjc2NTYyNSBMIDEzLjU5NzY1NiAtMTIuNzY1NjI1IEwgOC40NDkyMTkgLTcuMzA0Njg4IEwgMTEuNDkyMTg4IDAgTCA4LjY4MzU5NCAwIEwgNi41IC01LjY2Nzk2OSBMIDQuMDAzOTA2IC0zLjE0NDUzMSBMIDMuMzc4OTA2IDAgWiBNIDAuNTcwMzEzIDAgIi8+Cjwvc3ltYm9sPgo8c3ltYm9sIG92ZXJmbG93PSJ2aXNpYmxlIiBpZD0iZ2x5cGgyLTUiPgo8cGF0aCBzdHlsZT0ic3Ryb2tlOm5vbmU7IiBkPSJNIDAuODU5Mzc1IC01LjA5NzY1NiBDIDAuODU1NDY5IC02LjI5Mjk2OSAxLjA1ODU5NCAtNy4zNzg5MDYgMS40Njg3NSAtOC4zNTkzNzUgQyAxLjg3MTA5NCAtOS4zMzU5MzggMi40MDYyNSAtMTAuMTc1NzgxIDMuMDc4MTI1IC0xMC44Nzg5MDYgQyAzLjc0MjE4OCAtMTEuNTc4MTI1IDQuNDkyMTg4IC0xMi4xMjEwOTQgNS4zMjgxMjUgLTEyLjUwMzkwNiBDIDYuMTU2MjUgLTEyLjg4NjcxOSA2Ljk4ODI4MSAtMTMuMDc4MTI1IDcuODI0MjE5IC0xMy4wNzgxMjUgQyA4LjU2NjQwNiAtMTMuMDc4MTI1IDkuMTk1MzEzIC0xMi45NTcwMzEgOS43MTA5MzggLTEyLjcxNDg0NCBDIDEwLjIxODc1IC0xMi40NzI2NTYgMTAuNjM2NzE5IC0xMi4xMzY3MTkgMTAuOTU3MDMxIC0xMS43MTA5MzggQyAxMS4yNzczNDQgLTExLjI4NTE1NiAxMS41MTE3MTkgLTEwLjc4NTE1NiAxMS42NjAxNTYgLTEwLjIxNDg0NCBDIDExLjgwODU5NCAtOS42NDA2MjUgMTEuODgyODEzIC05LjAyNzM0NCAxMS44ODI4MTMgLTguMzcxMDk0IEMgMTEuODgyODEzIC03LjgxMjUgMTEuODEyNSAtNy4yNzM0MzggMTEuNjcxODc1IC02Ljc1NzgxMyBDIDExLjUzMTI1IC02LjIzNDM3NSAxMS40MTc5NjkgLTUuODcxMDk0IDExLjMzNTkzOCAtNS42Njc5NjkgTCAzLjU2MjUgLTUuNjY3OTY5IEMgMy40OTIxODggLTQuOTg4MjgxIDMuNTIzNDM4IC00LjQxMDE1NiAzLjY2NDA2MyAtMy45MjU3ODEgQyAzLjgwMDc4MSAtMy40NDE0MDYgNC4wMTU2MjUgLTMuMDQyOTY5IDQuMzAwNzgxIC0yLjczMDQ2OSBDIDQuNTg1OTM4IC0yLjQxNzk2OSA0LjkzNzUgLTIuMTg3NSA1LjM1NTQ2OSAtMi4wMzkwNjMgQyA1Ljc2OTUzMSAtMS44OTA2MjUgNi4yMTg3NSAtMS44MTY0MDYgNi43MDcwMzEgLTEuODIwMzEzIEMgNy4xNTYyNSAtMS44MTY0MDYgNy42MTcxODggLTEuOTIxODc1IDguMDg1OTM4IC0yLjEzMjgxMyBDIDguNTU0Njg4IC0yLjMzOTg0NCA4Ljk2MDkzOCAtMi41NzQyMTkgOS4zMDg1OTQgLTIuODM1OTM4IEwgMTAuMzQ3NjU2IC0xLjAzOTA2MyBDIDkuODI0MjE5IC0wLjY3MTg3NSA5LjE5NTMxMyAtMC4zNTU0NjkgOC40NjA5MzggLTAuMDg5ODQzOCBDIDcuNzI2NTYzIDAuMTc5Njg4IDYuODk4NDM4IDAuMzA4NTk0IDUuOTgwNDY5IDAuMzEyNSBDIDUuMjE0ODQ0IDAuMzA4NTk0IDQuNTE5NTMxIDAuMTkxNDA2IDMuODk4NDM4IC0wLjA1MDc4MTMgQyAzLjI3MzQzOCAtMC4yODkwNjMgMi43MzgyODEgLTAuNjQwNjI1IDIuMjg5MDYzIC0xLjEwMTU2MyBDIDEuODM1OTM4IC0xLjU2MjUgMS40ODQzNzUgLTIuMTI1IDEuMjM0Mzc1IC0yLjc5Mjk2OSBDIDAuOTgwNDY5IC0zLjQ2MDkzOCAwLjg1NTQ2OSAtNC4yMzA0NjkgMC44NTkzNzUgLTUuMDk3NjU2IFogTSAzLjc5Njg3NSAtNy40Mzc1IEwgOS40Mzc1IC03LjQzNzUgQyA5LjQ2ODc1IC03LjYwNTQ2OSA5LjUgLTcuNzg1MTU2IDkuNTI3MzQ0IC03Ljk2ODc1IEMgOS41NTA3ODEgLTguMTQ4NDM4IDkuNTYyNSAtOC4zNDM3NSA5LjU2NjQwNiAtOC41NTQ2ODggQyA5LjU2MjUgLTkuMTc1NzgxIDkuNDEwMTU2IC05LjcyMjY1NiA5LjEwOTM3NSAtMTAuMjAzMTI1IEMgOC44MDQ2ODggLTEwLjY3OTY4OCA4LjI2NTYyNSAtMTAuOTIxODc1IDcuNDg4MjgxIC0xMC45MjE4NzUgQyA2LjcwNzAzMSAtMTAuOTIxODc1IDUuOTcyNjU2IC0xMC42MTMyODEgNS4yODkwNjMgLTkuOTk2MDk0IEMgNC42MDU0NjkgLTkuMzc4OTA2IDQuMTA5Mzc1IC04LjUyMzQzOCAzLjc5Njg3NSAtNy40Mzc1IFogTSAzLjc5Njg3NSAtNy40Mzc1ICIvPgo8L3N5bWJvbD4KPHN5bWJvbCBvdmVyZmxvdz0idmlzaWJsZSIgaWQ9ImdseXBoMi02Ij4KPHBhdGggc3R5bGU9InN0cm9rZTpub25lOyIgZD0iTSA1LjcxODc1IDAuMzEyNSBDIDUuMDA3ODEzIDAuMzA4NTk0IDQuMzU1NDY5IDAuMTk1MzEzIDMuNzY5NTMxIC0wLjAzOTA2MjUgQyAzLjE3NTc4MSAtMC4yNjk1MzEgMi42NjQwNjMgLTAuNjA1NDY5IDIuMjM0Mzc1IC0xLjA1MDc4MSBDIDEuNzk2ODc1IC0xLjQ4ODI4MSAxLjQ2MDkzOCAtMi4wMzEyNSAxLjIyMjY1NiAtMi42NzU3ODEgQyAwLjk3NjU2MyAtMy4zMTY0MDYgMC44NTU0NjkgLTQuMDU0Njg4IDAuODU5Mzc1IC00Ljg4NjcxOSBDIDAuODU1NDY5IC02LjAzMTI1IDEuMDUwNzgxIC03LjEwMTU2MyAxLjQ0MTQwNiAtOC4wOTc2NTYgQyAxLjgzMjAzMSAtOS4wOTM3NSAyLjM1OTM3NSAtOS45NjA5MzggMy4wMjczNDQgLTEwLjY5OTIxOSBDIDMuNjk1MzEzIC0xMS40MzM1OTQgNC40NzY1NjMgLTEyLjAxMTcxOSA1LjM2NzE4OCAtMTIuNDQxNDA2IEMgNi4yNTc4MTMgLTEyLjg2MzI4MSA3LjE5OTIxOSAtMTMuMDc4MTI1IDguMTkxNDA2IC0xMy4wNzgxMjUgQyA4Ljk2ODc1IC0xMy4wNzgxMjUgOS42MzI4MTMgLTEyLjkyMTg3NSAxMC4xOTE0MDYgLTEyLjYwOTM3NSBDIDEwLjc0MjE4OCAtMTIuMjk2ODc1IDExLjE5NTMxMyAtMTEuOTMzNTk0IDExLjU0Mjk2OSAtMTEuNTE5NTMxIEwgOS45ODQzNzUgLTkuODI4MTI1IEMgOS42ODc1IC0xMC4xNzE4NzUgOS4zOTA2MjUgLTEwLjQyNTc4MSA5LjA5NzY1NiAtMTAuNTgyMDMxIEMgOC44MDA3ODEgLTEwLjczODI4MSA4LjQzNzUgLTEwLjgxNjQwNiA4LjAwNzgxMyAtMTAuODE2NDA2IEMgNy40MzM1OTQgLTEwLjgxNjQwNiA2Ljg4NjcxOSAtMTAuNjYwMTU2IDYuMzY3MTg4IC0xMC4zNDc2NTYgQyA1Ljg0NzY1NiAtMTAuMDM1MTU2IDUuMzk0NTMxIC05LjYxMzI4MSA1LjAwMzkwNiAtOS4wODU5MzggQyA0LjYxMzI4MSAtOC41NTQ2ODggNC4zMDA3ODEgLTcuOTM3NSA0LjA3MDMxMyAtNy4yMzgyODEgQyAzLjgzMjAzMSAtNi41MzUxNTYgMy43MTQ4NDQgLTUuNzg5MDYzIDMuNzE4NzUgLTQuOTkyMTg4IEMgMy43MTQ4NDQgLTQuMDE5NTMxIDMuOTI1NzgxIC0zLjI2OTUzMSA0LjM1NTQ2OSAtMi43NDIxODggQyA0Ljc3NzM0NCAtMi4yMTA5MzggNS40MjU3ODEgLTEuOTQ1MzEzIDYuMjkyOTY5IC0xLjk0OTIxOSBDIDYuNzkyOTY5IC0xLjk0NTMxMyA3LjIzODI4MSAtMi4wNDI5NjkgNy42Mjg5MDYgLTIuMjQ2MDk0IEMgOC4wMTk1MzEgLTIuNDQxNDA2IDguMzc4OTA2IC0yLjY3MTg3NSA4LjcxMDkzOCAtMi45Mzc1IEwgOS45MDYyNSAtMS4xNzE4NzUgQyA5LjQxNzk2OSAtMC44MjAzMTMgOC44Mzk4NDQgLTAuNDg0Mzc1IDguMTc1NzgxIC0wLjE2Nzk2OSBDIDcuNTAzOTA2IDAuMTUyMzQ0IDYuNjg3NSAwLjMwODU5NCA1LjcxODc1IDAuMzEyNSBaIE0gNS43MTg3NSAwLjMxMjUgIi8+Cjwvc3ltYm9sPgo8c3ltYm9sIG92ZXJmbG93PSJ2aXNpYmxlIiBpZD0iZ2x5cGgzLTAiPgo8cGF0aCBzdHlsZT0ic3Ryb2tlOm5vbmU7IiBkPSJNIDEuNTUwNzgxIDAgTCAxLjU1MDc4MSAtMTIuMTgzNTk0IEwgMTAuODU1NDY5IC0xMi4xODM1OTQgTCAxMC44NTU0NjkgMCBaIE0gNC4yNDYwOTQgLTEuMzgyODEzIEwgOC4xMjEwOTQgLTEuMzgyODEzIEwgNy4wODk4NDQgLTMuMzA0Njg4IEwgNi4yMzgyODEgLTUuMTQ4NDM4IEwgNi4xNjQwNjMgLTUuMTQ4NDM4IEwgNS4yOTY4NzUgLTMuMzA0Njg4IFogTSA2LjE2NDA2MyAtNy40MDIzNDQgTCA2LjIzODI4MSAtNy40MDIzNDQgTCA3LjA4OTg0NCAtOS4xMzY3MTkgTCA3Ljk3NjU2MyAtMTAuNzgxMjUgTCA0LjQxMDE1NiAtMTAuNzgxMjUgTCA1LjMxNjQwNiAtOS4xMzY3MTkgWiBNIDMuMDYyNSAtMi40NTcwMzEgTCA1LjExMzI4MSAtNi4yNzczNDQgTCAzLjA2MjUgLTEwLjEzMjgxMyBaIE0gOS4zMjQyMTkgLTIuNDU3MDMxIEwgOS4zMjQyMTkgLTEwLjEzMjgxMyBMIDcuMjkyOTY5IC02LjI3NzM0NCBaIE0gOS4zMjQyMTkgLTIuNDU3MDMxICIvPgo8L3N5bWJvbD4KPHN5bWJvbCBvdmVyZmxvdz0idmlzaWJsZSIgaWQ9ImdseXBoMy0xIj4KPHBhdGggc3R5bGU9InN0cm9rZTpub25lOyIgZD0iTSA0LjAwMzkwNiAtNi40MjU3ODEgTCAzLjU4MjAzMSAtNC45NDkyMTkgTCA2LjY2NDA2MyAtNC45NDkyMTkgTCA2LjIzODI4MSAtNi40MjU3ODEgQyA2LjAzOTA2MyAtNy4wNjI1IDUuODUxNTYzIC03LjcxODc1IDUuNjc1NzgxIC04LjM5ODQzOCBDIDUuNDk2MDk0IC05LjA3MDMxMyA1LjMyMDMxMyAtOS43NDIxODggNS4xNDg0MzggLTEwLjQxMDE1NiBMIDUuMDc4MTI1IC0xMC40MTAxNTYgQyA0LjkwMjM0NCAtOS43MzA0NjkgNC43MzA0NjkgLTkuMDU0Njg4IDQuNTU4NTk0IC04LjM4NjcxOSBDIDQuMzg2NzE5IC03LjcxNDg0NCA0LjE5OTIxOSAtNy4wNjI1IDQuMDAzOTA2IC02LjQyNTc4MSBaIE0gLTAuMDM1MTU2MyAwIEwgMy44OTQ1MzEgLTEyLjA3NDIxOSBMIDYuNDA2MjUgLTEyLjA3NDIxOSBMIDEwLjMzNTkzOCAwIEwgOC4wODU5MzggMCBMIDcuMTQ0NTMxIC0zLjI2NTYyNSBMIDMuMDgyMDMxIC0zLjI2NTYyNSBMIDIuMTQwNjI1IDAgWiBNIC0wLjAzNTE1NjMgMCAiLz4KPC9zeW1ib2w+CjxzeW1ib2wgb3ZlcmZsb3c9InZpc2libGUiIGlkPSJnbHlwaDMtMiI+CjxwYXRoIHN0eWxlPSJzdHJva2U6bm9uZTsiIGQ9Ik0gNS4xMzI4MTMgMC4yMjI2NTYgQyA0LjUxNTYyNSAwLjIyMjY1NiAzLjkzNzUgMC4xMjEwOTQgMy40MDIzNDQgLTAuMDg5ODQzOCBDIDIuODY3MTg4IC0wLjI5Njg3NSAyLjQwMjM0NCAtMC42MDU0NjkgMi4wMTE3MTkgLTEuMDE1NjI1IEMgMS42MTMyODEgLTEuNDE3OTY5IDEuMzA4NTk0IC0xLjkxNzk2OSAxLjA4OTg0NCAtMi41MTE3MTkgQyAwLjg2NzE4OCAtMy4xMDE1NjMgMC43NTM5MDYgLTMuNzczNDM4IDAuNzU3ODEzIC00LjUyMzQzOCBDIDAuNzUzOTA2IC01LjI3MzQzOCAwLjg3ODkwNiAtNS45NDE0MDYgMS4xMjUgLTYuNTM1MTU2IEMgMS4zNzEwOTQgLTcuMTIxMDk0IDEuNzAzMTI1IC03LjYyMTA5NCAyLjEyMTA5NCAtOC4wMzEyNSBDIDIuNTM5MDYzIC04LjQzMzU5NCAzLjAxOTUzMSAtOC43NDIxODggMy41NzAzMTMgLTguOTYwOTM4IEMgNC4xMTcxODggLTkuMTcxODc1IDQuNjk1MzEzIC05LjI4MTI1IDUuMjk2ODc1IC05LjI4NTE1NiBDIDUuODg2NzE5IC05LjI4MTI1IDYuMzk0NTMxIC05LjE4MzU5NCA2LjgyMDMxMyAtOC45ODgyODEgQyA3LjI0MjE4OCAtOC43OTI5NjkgNy42MjEwOTQgLTguNTUwNzgxIDcuOTU3MDMxIC04LjI2OTUzMSBMIDYuOTIxODc1IC02Ljg4NjcxOSBDIDYuNjcxODc1IC03LjA4OTg0NCA2LjQyOTY4OCAtNy4yNTM5MDYgNi4xOTE0MDYgLTcuMzc1IEMgNS45NDkyMTkgLTcuNDg4MjgxIDUuNjg3NSAtNy41NDY4NzUgNS40MTAxNTYgLTcuNTUwNzgxIEMgNC42Njc5NjkgLTcuNTQ2ODc1IDQuMDcwMzEzIC03LjI3MzQzOCAzLjYxNzE4OCAtNi43MjY1NjMgQyAzLjE1NjI1IC02LjE3OTY4OCAyLjkyOTY4OCAtNS40NDUzMTMgMi45MzM1OTQgLTQuNTIzNDM4IEMgMi45Mjk2ODggLTMuNjA5Mzc1IDMuMTUyMzQ0IC0yLjg3ODkwNiAzLjYwNTQ2OSAtMi4zMzU5MzggQyA0LjA1MDc4MSAtMS43ODUxNTYgNC42MzI4MTMgLTEuNTExNzE5IDUuMzUxNTYzIC0xLjUxNTYyNSBDIDUuNzA3MDMxIC0xLjUxMTcxOSA2LjA0Mjk2OSAtMS41ODk4NDQgNi4zNTkzNzUgLTEuNzQ2MDk0IEMgNi42NzE4NzUgLTEuODk4NDM4IDYuOTYwOTM4IC0yLjA3ODEyNSA3LjIxODc1IC0yLjI4OTA2MyBMIDguMDg1OTM4IC0wLjg4NjcxOSBDIDcuNjUyMzQ0IC0wLjUxMTcxOSA3LjE3OTY4OCAtMC4yMzQzNzUgNi42NzE4NzUgLTAuMDU0Njg3NSBDIDYuMTYwMTU2IDAuMTMyODEzIDUuNjQ4NDM4IDAuMjIyNjU2IDUuMTMyODEzIDAuMjIyNjU2IFogTSA1LjEzMjgxMyAwLjIyMjY1NiAiLz4KPC9zeW1ib2w+CjxzeW1ib2wgb3ZlcmZsb3c9InZpc2libGUiIGlkPSJnbHlwaDMtMyI+CjxwYXRoIHN0eWxlPSJzdHJva2U6bm9uZTsiIGQ9Ik0gNC41MjM0MzggMC4yMjI2NTYgQyAzLjM3NSAwLjIyMjY1NiAyLjQ2NDg0NCAtMC4xOTE0MDYgMS43OTY4NzUgLTEuMDIzNDM4IEMgMS4xMjUgLTEuODUxNTYzIDAuNzg5MDYzIC0zLjAxOTUzMSAwLjc5Mjk2OSAtNC41MjM0MzggQyAwLjc4OTA2MyAtNS4yNTc4MTMgMC44OTg0MzggLTUuOTIxODc1IDEuMTE3MTg4IC02LjUxNTYyNSBDIDEuMzMyMDMxIC03LjEwNTQ2OSAxLjYxNzE4OCAtNy42MDE1NjMgMS45NzY1NjMgLTguMDExNzE5IEMgMi4zMjgxMjUgLTguNDE0MDYzIDIuNzM4MjgxIC04LjczMDQ2OSAzLjIwMzEyNSAtOC45NTMxMjUgQyAzLjY2MDE1NiAtOS4xNzE4NzUgNC4xMzY3MTkgLTkuMjgxMjUgNC42MzI4MTMgLTkuMjg1MTU2IEMgNS4xNDg0MzggLTkuMjgxMjUgNS41ODU5MzggLTkuMTkxNDA2IDUuOTQ1MzEzIC05LjAxNTYyNSBDIDYuMzAwNzgxIC04LjgzNTkzOCA2LjY1NjI1IC04LjU5Mzc1IDcuMDE1NjI1IC04LjI4OTA2MyBMIDYuOTQxNDA2IC05Ljc0NjA5NCBMIDYuOTQxNDA2IC0xMy4wMzEyNSBMIDkuMDYyNSAtMTMuMDMxMjUgTCA5LjA2MjUgMCBMIDcuMzA4NTk0IDAgTCA3LjE2NDA2MyAtMC45NzY1NjMgTCA3LjA4OTg0NCAtMC45NzY1NjMgQyA2Ljc1MzkwNiAtMC42NDQ1MzEgNi4zNjMyODEgLTAuMzYzMjgxIDUuOTI1NzgxIC0wLjEyODkwNiBDIDUuNDgwNDY5IDAuMTA1NDY5IDUuMDE1NjI1IDAuMjIyNjU2IDQuNTIzNDM4IDAuMjIyNjU2IFogTSA1LjAzOTA2MyAtMS41MzEyNSBDIDUuNzE0ODQ0IC0xLjUyNzM0NCA2LjM0NzY1NiAtMS44NjcxODggNi45NDE0MDYgLTIuNTQ2ODc1IEwgNi45NDE0MDYgLTYuNzczNDM4IEMgNi42MTcxODggLTcuMDU0Njg4IDYuMzA0Njg4IC03LjI1IDYuMDA3ODEzIC03LjM2MzI4MSBDIDUuNzAzMTI1IC03LjQ3MjY1NiA1LjM5ODQzOCAtNy41MjczNDQgNS4wOTM3NSAtNy41MzEyNSBDIDQuNSAtNy41MjczNDQgNC4wMDM5MDYgLTcuMjY5NTMxIDMuNTk3NjU2IC02Ljc1MzkwNiBDIDMuMTkxNDA2IC02LjIzNDM3NSAyLjk4ODI4MSAtNS40OTYwOTQgMi45OTIxODggLTQuNTQyOTY5IEMgMi45ODgyODEgLTMuNTUwNzgxIDMuMTY0MDYzIC0yLjgwNDY4OCAzLjUxNTYyNSAtMi4yOTY4NzUgQyAzLjg2NzE4OCAtMS43ODUxNTYgNC4zNzUgLTEuNTI3MzQ0IDUuMDM5MDYzIC0xLjUzMTI1IFogTSA1LjAzOTA2MyAtMS41MzEyNSAiLz4KPC9zeW1ib2w+CjxzeW1ib2wgb3ZlcmZsb3c9InZpc2libGUiIGlkPSJnbHlwaDMtNCI+CjxwYXRoIHN0eWxlPSJzdHJva2U6bm9uZTsiIGQ9Ik0gMS41MzEyNSAwIEwgMS41MzEyNSAtMTIuMDc0MjE5IEwgNS4zOTA2MjUgLTEyLjA3NDIxOSBDIDYuMDE1NjI1IC0xMi4wNzAzMTMgNi41ODk4NDQgLTEyLjAxNTYyNSA3LjExNzE4OCAtMTEuOTE0MDYzIEMgNy42MzY3MTkgLTExLjgwNDY4OCA4LjA4OTg0NCAtMTEuNjQwNjI1IDguNDgwNDY5IC0xMS40MTQwNjMgQyA4Ljg2MzI4MSAtMTEuMTg3NSA5LjE2Nzk2OSAtMTAuODgyODEzIDkuMzg2NzE5IC0xMC41IEMgOS42MDE1NjMgLTEwLjExNzE4OCA5LjcwNzAzMSAtOS42NDg0MzggOS43MTA5MzggLTkuMTAxNTYzIEMgOS43MDcwMzEgLTguNTE5NTMxIDkuNTU4NTk0IC03Ljk4NDM3NSA5LjI2NTYyNSAtNy40OTYwOTQgQyA4Ljk2ODc1IC03IDguNTU4NTk0IC02LjY2NDA2MyA4LjAzMTI1IC02LjQ4MDQ2OSBMIDguMDMxMjUgLTYuNDA2MjUgQyA4LjY5MTQwNiAtNi4yNTM5MDYgOS4yNDIxODggLTUuOTQ1MzEzIDkuNjc5Njg4IC01LjQ3MjY1NiBDIDEwLjExNzE4OCAtNC45OTYwOTQgMTAuMzM1OTM4IC00LjM1MTU2MyAxMC4zMzU5MzggLTMuNTQyOTY5IEMgMTAuMzM1OTM4IC0yLjkzNzUgMTAuMjE4NzUgLTIuNDE0MDYzIDkuOTg0Mzc1IC0xLjk3NjU2MyBDIDkuNzUgLTEuNTMxMjUgOS40MjU3ODEgLTEuMTY0MDYzIDkuMDE1NjI1IC0wLjg2NzE4OCBDIDguNjAxNTYzIC0wLjU3MDMxMyA4LjExMzI4MSAtMC4zNTE1NjMgNy41NDY4NzUgLTAuMjEwOTM4IEMgNi45ODA0NjkgLTAuMDcwMzEyNSA2LjM2MzI4MSAwIDUuNzAzMTI1IDAgWiBNIDMuNjcxODc1IC03LjA4OTg0NCBMIDUuMjA3MDMxIC03LjA4OTg0NCBDIDYuMDU0Njg4IC03LjA4OTg0NCA2LjY2Nzk2OSAtNy4yNDIxODggNy4wNDI5NjkgLTcuNTUwNzgxIEMgNy40MTc5NjkgLTcuODU1NDY5IDcuNjA1NDY5IC04LjI2NTYyNSA3LjYwNTQ2OSAtOC43ODUxNTYgQyA3LjYwNTQ2OSAtOS4zNzEwOTQgNy40MDYyNSAtOS43ODkwNjMgNy4wMTU2MjUgLTEwLjAzOTA2MyBDIDYuNjE3MTg4IC0xMC4yODEyNSA2LjAyNzM0NCAtMTAuNDA2MjUgNS4yNDIxODggLTEwLjQxMDE1NiBMIDMuNjcxODc1IC0xMC40MTAxNTYgWiBNIDMuNjcxODc1IC0xLjY2MDE1NiBMIDUuNDg0Mzc1IC0xLjY2MDE1NiBDIDYuMzY3MTg4IC0xLjY1NjI1IDcuMDQ2ODc1IC0xLjgyMDMxMyA3LjUzMTI1IC0yLjE0ODQzOCBDIDguMDA3ODEzIC0yLjQ3MjY1NiA4LjI1IC0yLjk3NjU2MyA4LjI1IC0zLjY1NjI1IEMgOC4yNSAtNC4yOTI5NjkgOC4wMTU2MjUgLTQuNzUzOTA2IDcuNTQ2ODc1IC01LjA0Njg3NSBDIDcuMDc4MTI1IC01LjMzNTkzOCA2LjM5MDYyNSAtNS40ODQzNzUgNS40ODQzNzUgLTUuNDg0Mzc1IEwgMy42NzE4NzUgLTUuNDg0Mzc1IFogTSAzLjY3MTg3NSAtMS42NjAxNTYgIi8+Cjwvc3ltYm9sPgo8L2c+CjwvZGVmcz4KPGcgaWQ9InN1cmZhY2U0Ij4KPHBhdGggc3R5bGU9IiBzdHJva2U6bm9uZTtmaWxsLXJ1bGU6ZXZlbm9kZDtmaWxsOnJnYig5Ny4yNTM0MTglLDY2LjI3MzQ5OSUsMy41MjkzNTglKTtmaWxsLW9wYWNpdHk6MTsiIGQ9Ik0gMjc3LjIxODc1IDE2NyBDIDI3Ny4yMTg3NSAxNTkuNzgxMjUgMjc0LjM1MTU2MyAxNTIuODU1NDY5IDI2OS4yNDYwOTQgMTQ3Ljc1MzkwNiBDIDI2NC4xNDQ1MzEgMTQyLjY0ODQzOCAyNTcuMjE4NzUgMTM5Ljc4MTI1IDI1MCAxMzkuNzgxMjUgQyAyNDIuNzgxMjUgMTM5Ljc4MTI1IDIzNS44NTU0NjkgMTQyLjY0ODQzOCAyMzAuNzUzOTA2IDE0Ny43NTM5MDYgQyAyMjUuNjQ4NDM4IDE1Mi44NTU0NjkgMjIyLjc4MTI1IDE1OS43ODEyNSAyMjIuNzgxMjUgMTY3IEMgMjIyLjc4MTI1IDE3NC4yMTg3NSAyMjUuNjQ4NDM4IDE4MS4xNDQ1MzEgMjMwLjc1MzkwNiAxODYuMjQ2MDk0IEMgMjM1Ljg1NTQ2OSAxOTEuMzUxNTYzIDI0Mi43ODEyNSAxOTQuMjE4NzUgMjUwIDE5NC4yMTg3NSBDIDI1Ny4yMTg3NSAxOTQuMjE4NzUgMjY0LjE0NDUzMSAxOTEuMzUxNTYzIDI2OS4yNDYwOTQgMTg2LjI0NjA5NCBDIDI3NC4zNTE1NjMgMTgxLjE0NDUzMSAyNzcuMjE4NzUgMTc0LjIxODc1IDI3Ny4yMTg3NSAxNjcgWiBNIDI3Ny4yMTg3NSAxNjcgIi8+CjxnIHN0eWxlPSJmaWxsOnJnYig5OS45OTg0NzQlLDk5Ljk5ODQ3NCUsOTkuOTk4NDc0JSk7ZmlsbC1vcGFjaXR5OjE7Ij4KICA8dXNlIHhsaW5rOmhyZWY9IiNnbHlwaDAtMSIgeD0iMjQzLjUiIHk9IjE3Ny4yMDk4MTEiLz4KPC9nPgo8cGF0aCBzdHlsZT0iIHN0cm9rZTpub25lO2ZpbGwtcnVsZTpldmVub2RkO2ZpbGw6cmdiKDgxLjE3NTIzMiUsNy4wNTg3MTYlLDE3LjY0Njc5JSk7ZmlsbC1vcGFjaXR5OjE7IiBkPSJNIDM3Mi4yMTg3NSAyMTMgQyAzNzIuMjE4NzUgMjA1Ljc4MTI1IDM2OS4zNTE1NjMgMTk4Ljg1NTQ2OSAzNjQuMjQ2MDk0IDE5My43NTM5MDYgQyAzNTkuMTQ0NTMxIDE4OC42NDg0MzggMzUyLjIxODc1IDE4NS43ODEyNSAzNDUgMTg1Ljc4MTI1IEMgMzM3Ljc4MTI1IDE4NS43ODEyNSAzMzAuODU1NDY5IDE4OC42NDg0MzggMzI1Ljc1MzkwNiAxOTMuNzUzOTA2IEMgMzIwLjY0ODQzOCAxOTguODU1NDY5IDMxNy43ODEyNSAyMDUuNzgxMjUgMzE3Ljc4MTI1IDIxMyBDIDMxNy43ODEyNSAyMjAuMjE4NzUgMzIwLjY0ODQzOCAyMjcuMTQ0NTMxIDMyNS43NTM5MDYgMjMyLjI0NjA5NCBDIDMzMC44NTU0NjkgMjM3LjM1MTU2MyAzMzcuNzgxMjUgMjQwLjIxODc1IDM0NSAyNDAuMjE4NzUgQyAzNTIuMjE4NzUgMjQwLjIxODc1IDM1OS4xNDQ1MzEgMjM3LjM1MTU2MyAzNjQuMjQ2MDk0IDIzMi4yNDYwOTQgQyAzNjkuMzUxNTYzIDIyNy4xNDQ1MzEgMzcyLjIxODc1IDIyMC4yMTg3NSAzNzIuMjE4NzUgMjEzIFogTSAzNzIuMjE4NzUgMjEzICIvPgo8ZyBzdHlsZT0iZmlsbDpyZ2IoOTkuOTk4NDc0JSw5OS45OTg0NzQlLDk5Ljk5ODQ3NCUpO2ZpbGwtb3BhY2l0eToxOyI+CiAgPHVzZSB4bGluazpocmVmPSIjZ2x5cGgwLTIiIHg9IjMzMC43NjY0MTciIHk9IjIyMy4zMjg0ODciLz4KICA8dXNlIHhsaW5rOmhyZWY9IiNnbHlwaDAtMyIgeD0iMzQ1LjM4MjYyOCIgeT0iMjIzLjMyODQ4NyIvPgo8L2c+CjxwYXRoIHN0eWxlPSIgc3Ryb2tlOm5vbmU7ZmlsbC1ydWxlOmV2ZW5vZGQ7ZmlsbDpyZ2IoNjcuMDU3OCUsMjEuNTY4Mjk4JSw1NC45MDExMjMlKTtmaWxsLW9wYWNpdHk6MTsiIGQ9Ik0gMzk2LjIxODc1IDMxNyBDIDM5Ni4yMTg3NSAzMDkuNzgxMjUgMzkzLjM1MTU2MyAzMDIuODU1NDY5IDM4OC4yNDYwOTQgMjk3Ljc1MzkwNiBDIDM4My4xNDQ1MzEgMjkyLjY0ODQzOCAzNzYuMjE4NzUgMjg5Ljc4MTI1IDM2OSAyODkuNzgxMjUgQyAzNjEuNzgxMjUgMjg5Ljc4MTI1IDM1NC44NTU0NjkgMjkyLjY0ODQzOCAzNDkuNzUzOTA2IDI5Ny43NTM5MDYgQyAzNDQuNjQ4NDM4IDMwMi44NTU0NjkgMzQxLjc4MTI1IDMwOS43ODEyNSAzNDEuNzgxMjUgMzE3IEMgMzQxLjc4MTI1IDMyNC4yMTg3NSAzNDQuNjQ4NDM4IDMzMS4xNDQ1MzEgMzQ5Ljc1MzkwNiAzMzYuMjQ2MDk0IEMgMzU0Ljg1NTQ2OSAzNDEuMzUxNTYzIDM2MS43ODEyNSAzNDQuMjE4NzUgMzY5IDM0NC4yMTg3NSBDIDM3Ni4yMTg3NSAzNDQuMjE4NzUgMzgzLjE0NDUzMSAzNDEuMzUxNTYzIDM4OC4yNDYwOTQgMzM2LjI0NjA5NCBDIDM5My4zNTE1NjMgMzMxLjE0NDUzMSAzOTYuMjE4NzUgMzI0LjIxODc1IDM5Ni4yMTg3NSAzMTcgWiBNIDM5Ni4yMTg3NSAzMTcgIi8+CjxnIHN0eWxlPSJmaWxsOnJnYig5OS45OTg0NzQlLDk5Ljk5ODQ3NCUsOTkuOTk4NDc0JSk7ZmlsbC1vcGFjaXR5OjE7Ij4KICA8dXNlIHhsaW5rOmhyZWY9IiNnbHlwaDAtNCIgeD0iMzQ1LjQxODc2OSIgeT0iMzI2Ljk1NjIxMSIvPgogIDx1c2UgeGxpbms6aHJlZj0iI2dseXBoMC01IiB4PSIzNjkuMDIyMjg1IiB5PSIzMjYuOTU2MjExIi8+CiAgPHVzZSB4bGluazpocmVmPSIjZ2x5cGgwLTYiIHg9IjM4NC4zOTQzNTUiIHk9IjMyNi45NTYyMTEiLz4KPC9nPgo8cGF0aCBzdHlsZT0iIHN0cm9rZTpub25lO2ZpbGwtcnVsZTpldmVub2RkO2ZpbGw6cmdiKDI1LjQ4OTgwNyUsMTUuNjg2MDM1JSw1MS43NjM5MTYlKTtmaWxsLW9wYWNpdHk6MTsiIGQ9Ik0gMzMwLjIxODc1IDQwMCBDIDMzMC4yMTg3NSAzOTIuNzgxMjUgMzI3LjM1MTU2MyAzODUuODU1NDY5IDMyMi4yNDYwOTQgMzgwLjc1MzkwNiBDIDMxNy4xNDQ1MzEgMzc1LjY0ODQzOCAzMTAuMjE4NzUgMzcyLjc4MTI1IDMwMyAzNzIuNzgxMjUgQyAyOTUuNzgxMjUgMzcyLjc4MTI1IDI4OC44NTU0NjkgMzc1LjY0ODQzOCAyODMuNzUzOTA2IDM4MC43NTM5MDYgQyAyNzguNjQ4NDM4IDM4NS44NTU0NjkgMjc1Ljc4MTI1IDM5Mi43ODEyNSAyNzUuNzgxMjUgNDAwIEMgMjc1Ljc4MTI1IDQwNy4yMTg3NSAyNzguNjQ4NDM4IDQxNC4xNDQ1MzEgMjgzLjc1MzkwNiA0MTkuMjQ2MDk0IEMgMjg4Ljg1NTQ2OSA0MjQuMzUxNTYzIDI5NS43ODEyNSA0MjcuMjE4NzUgMzAzIDQyNy4yMTg3NSBDIDMxMC4yMTg3NSA0MjcuMjE4NzUgMzE3LjE0NDUzMSA0MjQuMzUxNTYzIDMyMi4yNDYwOTQgNDE5LjI0NjA5NCBDIDMyNy4zNTE1NjMgNDE0LjE0NDUzMSAzMzAuMjE4NzUgNDA3LjIxODc1IDMzMC4yMTg3NSA0MDAgWiBNIDMzMC4yMTg3NSA0MDAgIi8+CjxnIHN0eWxlPSJmaWxsOnJnYig5OS45OTg0NzQlLDk5Ljk5ODQ3NCUsOTkuOTk4NDc0JSk7ZmlsbC1vcGFjaXR5OjE7Ij4KICA8dXNlIHhsaW5rOmhyZWY9IiNnbHlwaDAtNyIgeD0iMjg4LjE0NjM1MiIgeT0iNDEwLjA1OTE5NCIvPgogIDx1c2UgeGxpbms6aHJlZj0iI2dseXBoMC04IiB4PSIzMDEuMDgxODk5IiB5PSI0MTAuMDU5MTk0Ii8+CjwvZz4KPHBhdGggc3R5bGU9IiBzdHJva2U6bm9uZTtmaWxsLXJ1bGU6ZXZlbm9kZDtmaWxsOnJnYig5LjgwMzc3MiUsMzYuNDcwMDMyJSw2Ni4yNzM0OTklKTtmaWxsLW9wYWNpdHk6MTsiIGQ9Ik0gMjIzLjIxODc1IDQwMCBDIDIyMy4yMTg3NSAzOTIuNzgxMjUgMjIwLjM1MTU2MyAzODUuODU1NDY5IDIxNS4yNDYwOTQgMzgwLjc1MzkwNiBDIDIxMC4xNDQ1MzEgMzc1LjY0ODQzOCAyMDMuMjE4NzUgMzcyLjc4MTI1IDE5NiAzNzIuNzgxMjUgQyAxODguNzgxMjUgMzcyLjc4MTI1IDE4MS44NTU0NjkgMzc1LjY0ODQzOCAxNzYuNzUzOTA2IDM4MC43NTM5MDYgQyAxNzEuNjQ4NDM4IDM4NS44NTU0NjkgMTY4Ljc4MTI1IDM5Mi43ODEyNSAxNjguNzgxMjUgNDAwIEMgMTY4Ljc4MTI1IDQwNy4yMTg3NSAxNzEuNjQ4NDM4IDQxNC4xNDQ1MzEgMTc2Ljc1MzkwNiA0MTkuMjQ2MDk0IEMgMTgxLjg1NTQ2OSA0MjQuMzUxNTYzIDE4OC43ODEyNSA0MjcuMjE4NzUgMTk2IDQyNy4yMTg3NSBDIDIwMy4yMTg3NSA0MjcuMjE4NzUgMjEwLjE0NDUzMSA0MjQuMzUxNTYzIDIxNS4yNDYwOTQgNDE5LjI0NjA5NCBDIDIyMC4zNTE1NjMgNDE0LjE0NDUzMSAyMjMuMjE4NzUgNDA3LjIxODc1IDIyMy4yMTg3NSA0MDAgWiBNIDIyMy4yMTg3NSA0MDAgIi8+CjxnIHN0eWxlPSJmaWxsOnJnYig5OS45OTg0NzQlLDk5Ljk5ODQ3NCUsOTkuOTk4NDc0JSk7ZmlsbC1vcGFjaXR5OjE7Ij4KICA8dXNlIHhsaW5rOmhyZWY9IiNnbHlwaDAtOSIgeD0iMTg3Ljg1MzY0OCIgeT0iNDEwLjA1OTE5NCIvPgo8L2c+CjxwYXRoIHN0eWxlPSIgc3Ryb2tlOm5vbmU7ZmlsbC1ydWxlOmV2ZW5vZGQ7ZmlsbDpyZ2IoMzguNDMwNzg2JSw2NS44ODEzNDglLDE4LjgyMzI0MiUpO2ZpbGwtb3BhY2l0eToxOyIgZD0iTSAxNTcuMjE4NzUgMzE3IEMgMTU3LjIxODc1IDMwOS43ODEyNSAxNTQuMzUxNTYzIDMwMi44NTU0NjkgMTQ5LjI0NjA5NCAyOTcuNzUzOTA2IEMgMTQ0LjE0NDUzMSAyOTIuNjQ4NDM4IDEzNy4yMTg3NSAyODkuNzgxMjUgMTMwIDI4OS43ODEyNSBDIDEyMi43ODEyNSAyODkuNzgxMjUgMTE1Ljg1NTQ2OSAyOTIuNjQ4NDM4IDExMC43NTM5MDYgMjk3Ljc1MzkwNiBDIDEwNS42NDg0MzggMzAyLjg1NTQ2OSAxMDIuNzgxMjUgMzA5Ljc4MTI1IDEwMi43ODEyNSAzMTcgQyAxMDIuNzgxMjUgMzI0LjIxODc1IDEwNS42NDg0MzggMzMxLjE0NDUzMSAxMTAuNzUzOTA2IDMzNi4yNDYwOTQgQyAxMTUuODU1NDY5IDM0MS4zNTE1NjMgMTIyLjc4MTI1IDM0NC4yMTg3NSAxMzAgMzQ0LjIxODc1IEMgMTM3LjIxODc1IDM0NC4yMTg3NSAxNDQuMTQ0NTMxIDM0MS4zNTE1NjMgMTQ5LjI0NjA5NCAzMzYuMjQ2MDk0IEMgMTU0LjM1MTU2MyAzMzEuMTQ0NTMxIDE1Ny4yMTg3NSAzMjQuMjE4NzUgMTU3LjIxODc1IDMxNyBaIE0gMTU3LjIxODc1IDMxNyAiLz4KPGcgc3R5bGU9ImZpbGw6cmdiKDk5Ljk5ODQ3NCUsOTkuOTk4NDc0JSw5OS45OTg0NzQlKTtmaWxsLW9wYWNpdHk6MTsiPgogIDx1c2UgeGxpbms6aHJlZj0iI2dseXBoMC0xMCIgeD0iMTIyLjA4MTIzMSIgeT0iMzI2Ljk1NjIxMSIvPgo8L2c+CjxwYXRoIHN0eWxlPSIgc3Ryb2tlOm5vbmU7ZmlsbC1ydWxlOmV2ZW5vZGQ7ZmlsbDpyZ2IoOTIuNTQ3NjA3JSw0MC4zOTE1NDElLDE1LjY4NjAzNSUpO2ZpbGwtb3BhY2l0eToxOyIgZD0iTSAxODEuMjE4NzUgMjEzIEMgMTgxLjIxODc1IDIwNS43ODEyNSAxNzguMzUxNTYzIDE5OC44NTU0NjkgMTczLjI0NjA5NCAxOTMuNzUzOTA2IEMgMTY4LjE0NDUzMSAxODguNjQ4NDM4IDE2MS4yMTg3NSAxODUuNzgxMjUgMTU0IDE4NS43ODEyNSBDIDE0Ni43ODEyNSAxODUuNzgxMjUgMTM5Ljg1NTQ2OSAxODguNjQ4NDM4IDEzNC43NTM5MDYgMTkzLjc1MzkwNiBDIDEyOS42NDg0MzggMTk4Ljg1NTQ2OSAxMjYuNzgxMjUgMjA1Ljc4MTI1IDEyNi43ODEyNSAyMTMgQyAxMjYuNzgxMjUgMjIwLjIxODc1IDEyOS42NDg0MzggMjI3LjE0NDUzMSAxMzQuNzUzOTA2IDIzMi4yNDYwOTQgQyAxMzkuODU1NDY5IDIzNy4zNTE1NjMgMTQ2Ljc4MTI1IDI0MC4yMTg3NSAxNTQgMjQwLjIxODc1IEMgMTYxLjIxODc1IDI0MC4yMTg3NSAxNjguMTQ0NTMxIDIzNy4zNTE1NjMgMTczLjI0NjA5NCAyMzIuMjQ2MDk0IEMgMTc4LjM1MTU2MyAyMjcuMTQ0NTMxIDE4MS4yMTg3NSAyMjAuMjE4NzUgMTgxLjIxODc1IDIxMyBaIE0gMTgxLjIxODc1IDIxMyAiLz4KPGcgc3R5bGU9ImZpbGw6cmdiKDk5Ljk5ODQ3NCUsOTkuOTk4NDc0JSw5OS45OTg0NzQlKTtmaWxsLW9wYWNpdHk6MTsiPgogIDx1c2UgeGxpbms6aHJlZj0iI2dseXBoMC00IiB4PSIxNDEuNzMzNTgzIiB5PSIyMjMuMzI4NDg3Ii8+CjwvZz4KPHBhdGggc3R5bGU9IiBzdHJva2U6bm9uZTtmaWxsLXJ1bGU6ZXZlbm9kZDtmaWxsOnJnYig5OC40Mjk4NzElLDgzLjEzNTk4NiUsNTEuNzYzOTE2JSk7ZmlsbC1vcGFjaXR5OjE7IiBkPSJNIDI3OS45NDE0MDYgNzIgQyAyNzkuOTQxNDA2IDY0LjA1ODU5NCAyNzYuNzg5MDYzIDU2LjQ0MTQwNiAyNzEuMTcxODc1IDUwLjgyODEyNSBDIDI2NS41NTg1OTQgNDUuMjEwOTM4IDI1Ny45NDE0MDYgNDIuMDU4NTk0IDI1MCA0Mi4wNTg1OTQgQyAyNDIuMDU4NTk0IDQyLjA1ODU5NCAyMzQuNDQxNDA2IDQ1LjIxMDkzOCAyMjguODI4MTI1IDUwLjgyODEyNSBDIDIyMy4yMTA5MzggNTYuNDQxNDA2IDIyMC4wNTg1OTQgNjQuMDU4NTk0IDIyMC4wNTg1OTQgNzIgQyAyMjAuMDU4NTk0IDc5Ljk0MTQwNiAyMjMuMjEwOTM4IDg3LjU1ODU5NCAyMjguODI4MTI1IDkzLjE3MTg3NSBDIDIzNC40NDE0MDYgOTguNzg5MDYzIDI0Mi4wNTg1OTQgMTAxLjk0MTQwNiAyNTAgMTAxLjk0MTQwNiBDIDI1Ny45NDE0MDYgMTAxLjk0MTQwNiAyNjUuNTU4NTk0IDk4Ljc4OTA2MyAyNzEuMTcxODc1IDkzLjE3MTg3NSBDIDI3Ni43ODkwNjMgODcuNTU4NTk0IDI3OS45NDE0MDYgNzkuOTQxNDA2IDI3OS45NDE0MDYgNzIgWiBNIDI3OS45NDE0MDYgNzIgIi8+CjxwYXRoIHN0eWxlPSIgc3Ryb2tlOm5vbmU7ZmlsbC1ydWxlOmV2ZW5vZGQ7ZmlsbDpyZ2IoMCUsMCUsMCUpO2ZpbGwtb3BhY2l0eToxOyIgZD0iTSAyNDQuMjg1MTU2IDc3LjM3NSBDIDI0Mi44MzIwMzEgNzQuNzUzOTA2IDI0MS42ODc1IDcxLjg0Mzc1IDI0MC40OTIxODggNjkuMDc4MTI1IEMgMjM5LjMyODEyNSA2Ni40MTAxNTYgMjM4LjA2MjUgNjMuNjkxNDA2IDIzNy4xMzY3MTkgNjAuOTAyMzQ0IEwgMjM2LjUzOTA2MyA2MC45MDIzNDQgQyAyMzUuMzQ3NjU2IDYzLjg4MjgxMyAyMzQuMDExNzE5IDY2Ljc4OTA2MyAyMzIuNjk5MjE5IDY5Ljc0NjA5NCBDIDIzMS41NTg1OTQgNzIuMjczNDM4IDIzMC40NjA5MzggNzQuOTE3OTY5IDIyOS4xNDg0MzggNzcuMzc1IEwgMjI5LjMxMjUgNzcuNjEzMjgxIEMgMjMxLjgzOTg0NCA3Ny41MTk1MzEgMjM0LjM3MTA5NCA3Ny41MTk1MzEgMjM2LjkxNzk2OSA3Ny41MTk1MzEgQyAyMzkuMzI4MTI1IDc3LjUxOTUzMSAyNDEuNzM0Mzc1IDc3LjU0Mjk2OSAyNDQuMTQ0NTMxIDc3LjYxMzI4MSBaIE0gMjQxLjMwNDY4OCA3Ni42MzY3MTkgTCAyMzEuMDA3ODEzIDc2LjYzNjcxOSBDIDIzMi41ODIwMzEgNzIuMzk0NTMxIDIzNC4yNzM0MzggNjguMjQyMTg4IDIzNi4wODU5MzggNjQuMDc0MjE5IEwgMjM2LjI1IDY0LjA3NDIxOSBDIDIzOC4wNDI5NjkgNjguMTk1MzEzIDIzOS43NTc4MTMgNzIuMzk0NTMxIDI0MS4zMDQ2ODggNzYuNjM2NzE5IFogTSAyNDEuMzA0Njg4IDc2LjYzNjcxOSAiLz4KPHBhdGggc3R5bGU9IiBzdHJva2U6bm9uZTtmaWxsLXJ1bGU6ZXZlbm9kZDtmaWxsOnJnYigwJSwwJSwwJSk7ZmlsbC1vcGFjaXR5OjE7IiBkPSJNIDI1Ni4xMjg5MDYgNjcuNjk1MzEzIEMgMjU2LjEyODkwNiA2Ny4xNDg0MzggMjU1Ljg0NzY1NiA2Ni43NDIxODggMjU1LjQ4ODI4MSA2Ni4zNjMyODEgQyAyNTQuOTQxNDA2IDY2LjU3NDIxOSAyNTQuMzkwNjI1IDY2LjgzNTkzOCAyNTMuODkwNjI1IDY3LjEwMTU2MyBMIDI1My43OTY4NzUgNjcuMzYzMjgxIEMgMjU0LjEwNTQ2OSA2Ny44MTY0MDYgMjU0LjIyMjY1NiA2OC4yNDIxODggMjU0LjIyMjY1NiA2OC43OTI5NjkgQyAyNTQuMjIyNjU2IDcxLjI1IDI1MS40NTcwMzEgNzQuMjUzOTA2IDI0OS43NDIxODggNzUuODI0MjE5IEwgMjQ5LjUyNzM0NCA3NS43MDcwMzEgTCAyNDkuMzYzMjgxIDcwLjY3NTc4MSBDIDI0OS4zMzU5MzggNzAuMTc1NzgxIDI0OS4zMTI1IDY2LjcxODc1IDI0OS4wMDM5MDYgNjYuNDEwMTU2IEMgMjQ4Ljg1OTM3NSA2Ni4yODkwNjMgMjQ4Ljc0MjE4OCA2Ni4yNDIxODggMjQ4LjYwMTU2MyA2Ni4yNDIxODggQyAyNDcuODgyODEzIDY2LjI0MjE4OCAyNDUuNTkzNzUgNjcuNzg5MDYzIDI0NC45Mjk2ODggNjguMjQyMTg4IEwgMjQ0Ljg3ODkwNiA2OC40NjA5MzggTCAyNDUgNjguNjQ4NDM4IEwgMjQ1LjIxMDkzOCA2OC42NDg0MzggQyAyNDUuNTkzNzUgNjguMzYzMjgxIDI0Ni4xOTE0MDYgNjcuOTYwOTM4IDI0Ni42OTE0MDYgNjcuOTYwOTM4IEMgMjQ4LjA3NDIxOSA2Ny45NjA5MzggMjQ3Ljk3NjU2MyA3MS41MzUxNTYgMjQ3Ljk3NjU2MyA3Mi40ODgyODEgQyAyNDcuOTc2NTYzIDc0LjE3OTY4OCAyNDcuOTU3MDMxIDc1LjgyNDIxOSAyNDcuOTI5Njg4IDc3LjUxOTUzMSBMIDI0OC4xNjc5NjkgNzcuNjgzNTk0IEMgMjQ4LjYwMTU2MyA3Ny41MTk1MzEgMjQ5LjA3NDIxOSA3Ny4zOTg0MzggMjQ5LjU1NDY4OCA3Ny4zMjgxMjUgQyAyNTEuMTAxNTYzIDc0LjkxNzk2OSAyNTYuMTI4OTA2IDcwLjI3MzQzOCAyNTYuMTI4OTA2IDY3LjY5NTMxMyBaIE0gMjU2LjEyODkwNiA2Ny42OTUzMTMgIi8+CjxnIHN0eWxlPSJmaWxsOnJnYigxOS45OTk2OTUlLDE5Ljk5OTY5NSUsMTkuOTk5Njk1JSk7ZmlsbC1vcGFjaXR5OjE7Ij4KICA8dXNlIHhsaW5rOmhyZWY9IiNnbHlwaDEtMSIgeD0iMjU4LjUiIHk9IjgwLjQzOTkzMSIvPgogIDx1c2UgeGxpbms6aHJlZj0iI2dseXBoMS0yIiB4PSIyNjUuODYxMzI4IiB5PSI4MC40Mzk5MzEiLz4KPC9nPgo8cGF0aCBzdHlsZT0iIHN0cm9rZTpub25lO2ZpbGwtcnVsZTpldmVub2RkO2ZpbGw6cmdiKDkwLjU4Njg1MyUsNTMuNzI0NjclLDU4LjgyMjYzMiUpO2ZpbGwtb3BhY2l0eToxOyIgZD0iTSA0NDcuMjE4NzUgMTU0IEMgNDQ3LjIxODc1IDE0Ni43ODEyNSA0NDQuMzUxNTYzIDEzOS44NTU0NjkgNDM5LjI0NjA5NCAxMzQuNzUzOTA2IEMgNDM0LjE0NDUzMSAxMjkuNjQ4NDM4IDQyNy4yMTg3NSAxMjYuNzgxMjUgNDIwIDEyNi43ODEyNSBDIDQxMi43ODEyNSAxMjYuNzgxMjUgNDA1Ljg1NTQ2OSAxMjkuNjQ4NDM4IDQwMC43NTM5MDYgMTM0Ljc1MzkwNiBDIDM5NS42NDg0MzggMTM5Ljg1NTQ2OSAzOTIuNzgxMjUgMTQ2Ljc4MTI1IDM5Mi43ODEyNSAxNTQgQyAzOTIuNzgxMjUgMTYxLjIxODc1IDM5NS42NDg0MzggMTY4LjE0NDUzMSA0MDAuNzUzOTA2IDE3My4yNDYwOTQgQyA0MDUuODU1NDY5IDE3OC4zNTE1NjMgNDEyLjc4MTI1IDE4MS4yMTg3NSA0MjAgMTgxLjIxODc1IEMgNDI3LjIxODc1IDE4MS4yMTg3NSA0MzQuMTQ0NTMxIDE3OC4zNTE1NjMgNDM5LjI0NjA5NCAxNzMuMjQ2MDk0IEMgNDQ0LjM1MTU2MyAxNjguMTQ0NTMxIDQ0Ny4yMTg3NSAxNjEuMjE4NzUgNDQ3LjIxODc1IDE1NCBaIE0gNDQ3LjIxODc1IDE1NCAiLz4KPGcgc3R5bGU9ImZpbGw6cmdiKDE5Ljk5OTY5NSUsMTkuOTk5Njk1JSwxOS45OTk2OTUlKTtmaWxsLW9wYWNpdHk6MTsiPgogIDx1c2UgeGxpbms6aHJlZj0iI2dseXBoMi0xIiB4PSI0MTIuNzUxNDA5IiB5PSIxNjMuNDI4Njg5Ii8+CjwvZz4KPHBhdGggc3R5bGU9IiBzdHJva2U6bm9uZTtmaWxsLXJ1bGU6ZXZlbm9kZDtmaWxsOnJnYig4My41MjgxMzclLDYwLjc4MzM4NiUsNzcuNjQ1ODc0JSk7ZmlsbC1vcGFjaXR5OjE7IiBkPSJNIDQ4OS4yMTg3NSAzMzggQyA0ODkuMjE4NzUgMzMwLjc4MTI1IDQ4Ni4zNTE1NjMgMzIzLjg1NTQ2OSA0ODEuMjQ2MDk0IDMxOC43NTM5MDYgQyA0NzYuMTQ0NTMxIDMxMy42NDg0MzggNDY5LjIxODc1IDMxMC43ODEyNSA0NjIgMzEwLjc4MTI1IEMgNDU0Ljc4MTI1IDMxMC43ODEyNSA0NDcuODU1NDY5IDMxMy42NDg0MzggNDQyLjc1MzkwNiAzMTguNzUzOTA2IEMgNDM3LjY0ODQzOCAzMjMuODU1NDY5IDQzNC43ODEyNSAzMzAuNzgxMjUgNDM0Ljc4MTI1IDMzOCBDIDQzNC43ODEyNSAzNDUuMjE4NzUgNDM3LjY0ODQzOCAzNTIuMTQ0NTMxIDQ0Mi43NTM5MDYgMzU3LjI0NjA5NCBDIDQ0Ny44NTU0NjkgMzYyLjM1MTU2MyA0NTQuNzgxMjUgMzY1LjIxODc1IDQ2MiAzNjUuMjE4NzUgQyA0NjkuMjE4NzUgMzY1LjIxODc1IDQ3Ni4xNDQ1MzEgMzYyLjM1MTU2MyA0ODEuMjQ2MDk0IDM1Ny4yNDYwOTQgQyA0ODYuMzUxNTYzIDM1Mi4xNDQ1MzEgNDg5LjIxODc1IDM0NS4yMTg3NSA0ODkuMjE4NzUgMzM4IFogTSA0ODkuMjE4NzUgMzM4ICIvPgo8ZyBzdHlsZT0iZmlsbDpyZ2IoMTkuOTk5Njk1JSwxOS45OTk2OTUlLDE5Ljk5OTY5NSUpO2ZpbGwtb3BhY2l0eToxOyI+CiAgPHVzZSB4bGluazpocmVmPSIjZ2x5cGgyLTIiIHg9IjQ0OC4zMDAwMzQiIHk9IjM0Ny42NTU3NTQiLz4KPC9nPgo8ZyBzdHlsZT0iZmlsbDpyZ2IoMTkuOTk5Njk1JSwxOS45OTk2OTUlLDE5Ljk5OTY5NSUpO2ZpbGwtb3BhY2l0eToxOyI+CiAgPHVzZSB4bGluazpocmVmPSIjZ2x5cGgzLTEiIHg9IjQ2NC4zMDAwMzQiIHk9IjM1Mi4xNTU3NTQiLz4KPC9nPgo8cGF0aCBzdHlsZT0iIHN0cm9rZTpub25lO2ZpbGwtcnVsZTpldmVub2RkO2ZpbGw6cmdiKDYyLjc0NDE0MSUsNTcuNjQ2MTc5JSw3Ni4wNzcyNzElKTtmaWxsLW9wYWNpdHk6MTsiIGQ9Ik0gMzcxLjIxODc1IDQ4NiBDIDM3MS4yMTg3NSA0NzguNzgxMjUgMzY4LjM1MTU2MyA0NzEuODU1NDY5IDM2My4yNDYwOTQgNDY2Ljc1MzkwNiBDIDM1OC4xNDQ1MzEgNDYxLjY0ODQzOCAzNTEuMjE4NzUgNDU4Ljc4MTI1IDM0NCA0NTguNzgxMjUgQyAzMzYuNzgxMjUgNDU4Ljc4MTI1IDMyOS44NTU0NjkgNDYxLjY0ODQzOCAzMjQuNzUzOTA2IDQ2Ni43NTM5MDYgQyAzMTkuNjQ4NDM4IDQ3MS44NTU0NjkgMzE2Ljc4MTI1IDQ3OC43ODEyNSAzMTYuNzgxMjUgNDg2IEMgMzE2Ljc4MTI1IDQ5My4yMTg3NSAzMTkuNjQ4NDM4IDUwMC4xNDQ1MzEgMzI0Ljc1MzkwNiA1MDUuMjQ2MDk0IEMgMzI5Ljg1NTQ2OSA1MTAuMzUxNTYzIDMzNi43ODEyNSA1MTMuMjE4NzUgMzQ0IDUxMy4yMTg3NSBDIDM1MS4yMTg3NSA1MTMuMjE4NzUgMzU4LjE0NDUzMSA1MTAuMzUxNTYzIDM2My4yNDYwOTQgNTA1LjI0NjA5NCBDIDM2OC4zNTE1NjMgNTAwLjE0NDUzMSAzNzEuMjE4NzUgNDkzLjIxODc1IDM3MS4yMTg3NSA0ODYgWiBNIDM3MS4yMTg3NSA0ODYgIi8+CjxnIHN0eWxlPSJmaWxsOnJnYigxOS45OTk2OTUlLDE5Ljk5OTY5NSUsMTkuOTk5Njk1JSk7ZmlsbC1vcGFjaXR5OjE7Ij4KICA8dXNlIHhsaW5rOmhyZWY9IiNnbHlwaDItMyIgeD0iMzI1Ljk4MjQwNCIgeT0iNDk1LjM5NDM5Ii8+CjwvZz4KPGcgc3R5bGU9ImZpbGw6cmdiKDE5Ljk5OTY5NSUsMTkuOTk5Njk1JSwxOS45OTk2OTUlKTtmaWxsLW9wYWNpdHk6MTsiPgogIDx1c2UgeGxpbms6aHJlZj0iI2dseXBoMy0yIiB4PSIzNDEuOTgyNDA0IiB5PSI0OTkuODk0MzkiLz4KICA8dXNlIHhsaW5rOmhyZWY9IiNnbHlwaDMtMyIgeD0iMzUwLjUxMDcyNCIgeT0iNDk5Ljg5NDM5Ii8+CjwvZz4KPHBhdGggc3R5bGU9IiBzdHJva2U6bm9uZTtmaWxsLXJ1bGU6ZXZlbm9kZDtmaWxsOnJnYig1NC45MDExMjMlLDY4LjIzNDI1MyUsODMuMTM1OTg2JSk7ZmlsbC1vcGFjaXR5OjE7IiBkPSJNIDE4Mi4yMTg3NSA0ODYgQyAxODIuMjE4NzUgNDc4Ljc4MTI1IDE3OS4zNTE1NjMgNDcxLjg1NTQ2OSAxNzQuMjQ2MDk0IDQ2Ni43NTM5MDYgQyAxNjkuMTQ0NTMxIDQ2MS42NDg0MzggMTYyLjIxODc1IDQ1OC43ODEyNSAxNTUgNDU4Ljc4MTI1IEMgMTQ3Ljc4MTI1IDQ1OC43ODEyNSAxNDAuODU1NDY5IDQ2MS42NDg0MzggMTM1Ljc1MzkwNiA0NjYuNzUzOTA2IEMgMTMwLjY0ODQzOCA0NzEuODU1NDY5IDEyNy43ODEyNSA0NzguNzgxMjUgMTI3Ljc4MTI1IDQ4NiBDIDEyNy43ODEyNSA0OTMuMjE4NzUgMTMwLjY0ODQzOCA1MDAuMTQ0NTMxIDEzNS43NTM5MDYgNTA1LjI0NjA5NCBDIDE0MC44NTU0NjkgNTEwLjM1MTU2MyAxNDcuNzgxMjUgNTEzLjIxODc1IDE1NSA1MTMuMjE4NzUgQyAxNjIuMjE4NzUgNTEzLjIxODc1IDE2OS4xNDQ1MzEgNTEwLjM1MTU2MyAxNzQuMjQ2MDk0IDUwNS4yNDYwOTQgQyAxNzkuMzUxNTYzIDUwMC4xNDQ1MzEgMTgyLjIxODc1IDQ5My4yMTg3NSAxODIuMjE4NzUgNDg2IFogTSAxODIuMjE4NzUgNDg2ICIvPgo8ZyBzdHlsZT0iZmlsbDpyZ2IoMTkuOTk5Njk1JSwxOS45OTk2OTUlLDE5Ljk5OTY5NSUpO2ZpbGwtb3BhY2l0eToxOyI+CiAgPHVzZSB4bGluazpocmVmPSIjZ2x5cGgyLTQiIHg9IjE0Mi41MTc1OTYiIHk9IjQ5NS4zOTQzOSIvPgo8L2c+CjxnIHN0eWxlPSJmaWxsOnJnYigxOS45OTk2OTUlLDE5Ljk5OTY5NSUsMTkuOTk5Njk1JSk7ZmlsbC1vcGFjaXR5OjE7Ij4KICA8dXNlIHhsaW5rOmhyZWY9IiNnbHlwaDMtNCIgeD0iMTU1LjUxNzU5NiIgeT0iNDk5Ljg5NDM5Ii8+CjwvZz4KPHBhdGggc3R5bGU9IiBzdHJva2U6bm9uZTtmaWxsLXJ1bGU6ZXZlbm9kZDtmaWxsOnJnYig2OS4wMTg1NTUlLDgzLjEzNTk4NiUsNTkuNjA2OTM0JSk7ZmlsbC1vcGFjaXR5OjE7IiBkPSJNIDY0LjIxODc1IDMzOCBDIDY0LjIxODc1IDMzMC43ODEyNSA2MS4zNTE1NjMgMzIzLjg1NTQ2OSA1Ni4yNDYwOTQgMzE4Ljc1MzkwNiBDIDUxLjE0NDUzMSAzMTMuNjQ4NDM4IDQ0LjIxODc1IDMxMC43ODEyNSAzNyAzMTAuNzgxMjUgQyAyOS43ODEyNSAzMTAuNzgxMjUgMjIuODU1NDY5IDMxMy42NDg0MzggMTcuNzUzOTA2IDMxOC43NTM5MDYgQyAxMi42NDg0MzggMzIzLjg1NTQ2OSA5Ljc4MTI1IDMzMC43ODEyNSA5Ljc4MTI1IDMzOCBDIDkuNzgxMjUgMzQ1LjIxODc1IDEyLjY0ODQzOCAzNTIuMTQ0NTMxIDE3Ljc1MzkwNiAzNTcuMjQ2MDk0IEMgMjIuODU1NDY5IDM2Mi4zNTE1NjMgMjkuNzgxMjUgMzY1LjIxODc1IDM3IDM2NS4yMTg3NSBDIDQ0LjIxODc1IDM2NS4yMTg3NSA1MS4xNDQ1MzEgMzYyLjM1MTU2MyA1Ni4yNDYwOTQgMzU3LjI0NjA5NCBDIDYxLjM1MTU2MyAzNTIuMTQ0NTMxIDY0LjIxODc1IDM0NS4yMTg3NSA2NC4yMTg3NSAzMzggWiBNIDY0LjIxODc1IDMzOCAiLz4KPGcgc3R5bGU9ImZpbGw6cmdiKDE5Ljk5OTY5NSUsMTkuOTk5Njk1JSwxOS45OTk2OTUlKTtmaWxsLW9wYWNpdHk6MTsiPgogIDx1c2UgeGxpbms6aHJlZj0iI2dseXBoMi01IiB4PSIzMC42OTk5NjYiIHk9IjM0Ny42NTU3NTQiLz4KPC9nPgo8cGF0aCBzdHlsZT0iIHN0cm9rZTpub25lO2ZpbGwtcnVsZTpldmVub2RkO2ZpbGw6cmdiKDk2LjQ2OTExNiUsNzAuMTk1MDA3JSw1Ny42NDYxNzklKTtmaWxsLW9wYWNpdHk6MTsiIGQ9Ik0gMTA2LjIxODc1IDE1NCBDIDEwNi4yMTg3NSAxNDYuNzgxMjUgMTAzLjM1MTU2MyAxMzkuODU1NDY5IDk4LjI0NjA5NCAxMzQuNzUzOTA2IEMgOTMuMTQ0NTMxIDEyOS42NDg0MzggODYuMjE4NzUgMTI2Ljc4MTI1IDc5IDEyNi43ODEyNSBDIDcxLjc4MTI1IDEyNi43ODEyNSA2NC44NTU0NjkgMTI5LjY0ODQzOCA1OS43NTM5MDYgMTM0Ljc1MzkwNiBDIDU0LjY0ODQzOCAxMzkuODU1NDY5IDUxLjc4MTI1IDE0Ni43ODEyNSA1MS43ODEyNSAxNTQgQyA1MS43ODEyNSAxNjEuMjE4NzUgNTQuNjQ4NDM4IDE2OC4xNDQ1MzEgNTkuNzUzOTA2IDE3My4yNDYwOTQgQyA2NC44NTU0NjkgMTc4LjM1MTU2MyA3MS43ODEyNSAxODEuMjE4NzUgNzkgMTgxLjIxODc1IEMgODYuMjE4NzUgMTgxLjIxODc1IDkzLjE0NDUzMSAxNzguMzUxNTYzIDk4LjI0NjA5NCAxNzMuMjQ2MDk0IEMgMTAzLjM1MTU2MyAxNjguMTQ0NTMxIDEwNi4yMTg3NSAxNjEuMjE4NzUgMTA2LjIxODc1IDE1NCBaIE0gMTA2LjIxODc1IDE1NCAiLz4KPGcgc3R5bGU9ImZpbGw6cmdiKDE5Ljk5OTY5NSUsMTkuOTk5Njk1JSwxOS45OTk2OTUlKTtmaWxsLW9wYWNpdHk6MTsiPgogIDx1c2UgeGxpbms6aHJlZj0iI2dseXBoMi02IiB4PSI3My43NDg1OTEiIHk9IjE2My40Mjg2ODkiLz4KPC9nPgo8cGF0aCBzdHlsZT0iZmlsbDpub25lO3N0cm9rZS13aWR0aDozLjQ5MztzdHJva2UtbGluZWNhcDpidXR0O3N0cm9rZS1saW5lam9pbjptaXRlcjtzdHJva2U6cmdiKDU5Ljk5OTA4NCUsNTkuOTk5MDg0JSw1OS45OTkwODQlKTtzdHJva2Utb3BhY2l0eToxO3N0cm9rZS1taXRlcmxpbWl0OjMuMjU7IiBkPSJNIDM0OS4yNSAxOTIuNjA5Mzc1IEwgMzg5LjgzNTkzOCAyMTIuMTU2MjUgIiB0cmFuc2Zvcm09Im1hdHJpeCgxLDAsMCwxLC03NCwtMTMpIi8+CjxwYXRoIHN0eWxlPSJmaWxsOm5vbmU7c3Ryb2tlLXdpZHRoOjMuNDkzO3N0cm9rZS1saW5lY2FwOnNxdWFyZTtzdHJva2UtbGluZWpvaW46bWl0ZXI7c3Ryb2tlOnJnYig1OS45OTkwODQlLDU5Ljk5OTA4NCUsNTkuOTk5MDg0JSk7c3Ryb2tlLW9wYWNpdHk6MTtzdHJva2UtbWl0ZXJsaW1pdDozLjI1OyIgZD0iTSAzODEuMzA0Njg4IDIwMS4xMjUgTCAzODkuODM1OTM4IDIxMi4xNTYyNSBMIDM3NS44OTA2MjUgMjEyLjM2MzI4MSAiIHRyYW5zZm9ybT0ibWF0cml4KDEsMCwwLDEsLTc0LC0xMykiLz4KPHBhdGggc3R5bGU9ImZpbGw6bm9uZTtzdHJva2Utd2lkdGg6My40OTM7c3Ryb2tlLWxpbmVjYXA6YnV0dDtzdHJva2UtbGluZWpvaW46bWl0ZXI7c3Ryb2tlOnJnYig1OS45OTkwODQlLDU5Ljk5OTA4NCUsNTkuOTk5MDg0JSk7c3Ryb2tlLW9wYWNpdHk6MTtzdHJva2UtbWl0ZXJsaW1pdDozLjI1OyIgZD0iTSAzMjkuODU5Mzc1IDIwOC4wNzQyMTkgTCAzNjkuMzc4OTA2IDM4MS4yMTQ4NDQgIiB0cmFuc2Zvcm09Im1hdHJpeCgxLDAsMCwxLC03NCwtMTMpIi8+CjxwYXRoIHN0eWxlPSJmaWxsOm5vbmU7c3Ryb2tlLXdpZHRoOjMuNDkzO3N0cm9rZS1saW5lY2FwOnNxdWFyZTtzdHJva2UtbGluZWpvaW46bWl0ZXI7c3Ryb2tlOnJnYig1OS45OTkwODQlLDU5Ljk5OTA4NCUsNTkuOTk5MDg0JSk7c3Ryb2tlLW9wYWNpdHk6MTtzdHJva2UtbWl0ZXJsaW1pdDozLjI1OyIgZD0iTSAzNzIuNjgzNTk0IDM2Ny42NjQwNjMgTCAzNjkuMzc4OTA2IDM4MS4yMTQ4NDQgTCAzNjAuNTE5NTMxIDM3MC40NDE0MDYgIiB0cmFuc2Zvcm09Im1hdHJpeCgxLDAsMCwxLC03NCwtMTMpIi8+CjxwYXRoIHN0eWxlPSJmaWxsOm5vbmU7c3Ryb2tlLXdpZHRoOjMuNDkzO3N0cm9rZS1saW5lY2FwOmJ1dHQ7c3Ryb2tlLWxpbmVqb2luOm1pdGVyO3N0cm9rZTpyZ2IoNTkuOTk5MDg0JSw1OS45OTkwODQlLDU5Ljk5OTA4NCUpO3N0cm9rZS1vcGFjaXR5OjE7c3Ryb2tlLW1pdGVybGltaXQ6My4yNTsiIGQ9Ik0gMzE3LjE0MDYyNSAyMDguMDc0MjE5IEwgMjc3LjYyMTA5NCAzODEuMjE0ODQ0ICIgdHJhbnNmb3JtPSJtYXRyaXgoMSwwLDAsMSwtNzQsLTEzKSIvPgo8cGF0aCBzdHlsZT0iZmlsbDpub25lO3N0cm9rZS13aWR0aDozLjQ5MztzdHJva2UtbGluZWNhcDpzcXVhcmU7c3Ryb2tlLWxpbmVqb2luOm1pdGVyO3N0cm9rZTpyZ2IoNTkuOTk5MDg0JSw1OS45OTkwODQlLDU5Ljk5OTA4NCUpO3N0cm9rZS1vcGFjaXR5OjE7c3Ryb2tlLW1pdGVybGltaXQ6My4yNTsiIGQ9Ik0gMjg2LjQ4MDQ2OSAzNzAuNDQxNDA2IEwgMjc3LjYyMTA5NCAzODEuMjE0ODQ0IEwgMjc0LjMxNjQwNiAzNjcuNjY0MDYzICIgdHJhbnNmb3JtPSJtYXRyaXgoMSwwLDAsMSwtNzQsLTEzKSIvPgo8cGF0aCBzdHlsZT0iZmlsbDpub25lO3N0cm9rZS13aWR0aDozLjQ5MztzdHJva2UtbGluZWNhcDpidXR0O3N0cm9rZS1saW5lam9pbjptaXRlcjtzdHJva2U6cmdiKDU5Ljk5OTA4NCUsNTkuOTk5MDg0JSw1OS45OTkwODQlKTtzdHJva2Utb3BhY2l0eToxO3N0cm9rZS1taXRlcmxpbWl0OjMuMjU7IiBkPSJNIDMwNS42Nzk2ODggMjAyLjU1NDY4OCBMIDIyNC40NDUzMTMgMzA0LjQxNzk2OSAiIHRyYW5zZm9ybT0ibWF0cml4KDEsMCwwLDEsLTc0LC0xMykiLz4KPHBhdGggc3R5bGU9ImZpbGw6bm9uZTtzdHJva2Utd2lkdGg6My40OTM7c3Ryb2tlLWxpbmVjYXA6c3F1YXJlO3N0cm9rZS1saW5lam9pbjptaXRlcjtzdHJva2U6cmdiKDU5Ljk5OTA4NCUsNTkuOTk5MDg0JSw1OS45OTkwODQlKTtzdHJva2Utb3BhY2l0eToxO3N0cm9rZS1taXRlcmxpbWl0OjMuMjU7IiBkPSJNIDIzNy4xMDE1NjMgMjk4LjU1NDY4OCBMIDIyNC40NDUzMTMgMzA0LjQxNzk2OSBMIDIyNy4zNDc2NTYgMjkwLjc3NzM0NCAiIHRyYW5zZm9ybT0ibWF0cml4KDEsMCwwLDEsLTc0LC0xMykiLz4KPHBhdGggc3R5bGU9ImZpbGw6bm9uZTtzdHJva2Utd2lkdGg6My40OTM7c3Ryb2tlLWxpbmVjYXA6YnV0dDtzdHJva2UtbGluZWpvaW46bWl0ZXI7c3Ryb2tlOnJnYig1OS45OTkwODQlLDU5Ljk5OTA4NCUsNTkuOTk5MDg0JSk7c3Ryb2tlLW9wYWNpdHk6MTtzdHJva2UtbWl0ZXJsaW1pdDozLjI1OyIgZD0iTSAyOTcuNzUgMTkyLjYwOTM3NSBMIDI1Ny4xNjQwNjMgMjEyLjE1NjI1ICIgdHJhbnNmb3JtPSJtYXRyaXgoMSwwLDAsMSwtNzQsLTEzKSIvPgo8cGF0aCBzdHlsZT0iZmlsbDpub25lO3N0cm9rZS13aWR0aDozLjQ5MztzdHJva2UtbGluZWNhcDpzcXVhcmU7c3Ryb2tlLWxpbmVqb2luOm1pdGVyO3N0cm9rZTpyZ2IoNTkuOTk5MDg0JSw1OS45OTkwODQlLDU5Ljk5OTA4NCUpO3N0cm9rZS1vcGFjaXR5OjE7c3Ryb2tlLW1pdGVybGltaXQ6My4yNTsiIGQ9Ik0gMjcxLjEwOTM3NSAyMTIuMzYzMjgxIEwgMjU3LjE2NDA2MyAyMTIuMTU2MjUgTCAyNjUuNjk1MzEzIDIwMS4xMjUgIiB0cmFuc2Zvcm09Im1hdHJpeCgxLDAsMCwxLC03NCwtMTMpIi8+CjxwYXRoIHN0eWxlPSJmaWxsOm5vbmU7c3Ryb2tlLXdpZHRoOjMuNDkzO3N0cm9rZS1saW5lY2FwOmJ1dHQ7c3Ryb2tlLWxpbmVqb2luOm1pdGVyO3N0cm9rZTpyZ2IoNTkuOTk5MDg0JSw1OS45OTkwODQlLDU5Ljk5OTA4NCUpO3N0cm9rZS1vcGFjaXR5OjE7c3Ryb2tlLW1pdGVybGltaXQ6My4yNTsiIGQ9Ik0gNDEyLjkwNjI1IDI1NC4xOTE0MDYgTCAzODMuOTE0MDYzIDM4MS4yMTQ4NDQgIiB0cmFuc2Zvcm09Im1hdHJpeCgxLDAsMCwxLC03NCwtMTMpIi8+CjxwYXRoIHN0eWxlPSJmaWxsOm5vbmU7c3Ryb2tlLXdpZHRoOjMuNDkzO3N0cm9rZS1saW5lY2FwOnNxdWFyZTtzdHJva2UtbGluZWpvaW46bWl0ZXI7c3Ryb2tlOnJnYig1OS45OTkwODQlLDU5Ljk5OTA4NCUsNTkuOTk5MDg0JSk7c3Ryb2tlLW9wYWNpdHk6MTtzdHJva2UtbWl0ZXJsaW1pdDozLjI1OyIgZD0iTSAzOTIuNzczNDM4IDM3MC40NDE0MDYgTCAzODMuOTE0MDYzIDM4MS4yMTQ4NDQgTCAzODAuNjA5Mzc1IDM2Ny42NjQwNjMgIiB0cmFuc2Zvcm09Im1hdHJpeCgxLDAsMCwxLC03NCwtMTMpIi8+CjxwYXRoIHN0eWxlPSJmaWxsOm5vbmU7c3Ryb2tlLXdpZHRoOjMuNDkzO3N0cm9rZS1saW5lY2FwOmJ1dHQ7c3Ryb2tlLWxpbmVqb2luOm1pdGVyO3N0cm9rZTpyZ2IoNTkuOTk5MDg0JSw1OS45OTkwODQlLDU5Ljk5OTA4NCUpO3N0cm9rZS1vcGFjaXR5OjE7c3Ryb2tlLW1pdGVybGltaXQ6My4yNTsiIGQ9Ik0gNDAxLjQ0NTMxMyAyNDguNjc1NzgxIEwgMjkwLjcxODc1IDM4Ny41MTk1MzEgIiB0cmFuc2Zvcm09Im1hdHJpeCgxLDAsMCwxLC03NCwtMTMpIi8+CjxwYXRoIHN0eWxlPSJmaWxsOm5vbmU7c3Ryb2tlLXdpZHRoOjMuNDkzO3N0cm9rZS1saW5lY2FwOnNxdWFyZTtzdHJva2UtbGluZWpvaW46bWl0ZXI7c3Ryb2tlOnJnYig1OS45OTkwODQlLDU5Ljk5OTA4NCUsNTkuOTk5MDg0JSk7c3Ryb2tlLW9wYWNpdHk6MTtzdHJva2UtbWl0ZXJsaW1pdDozLjI1OyIgZD0iTSAzMDMuMzc1IDM4MS42NTYyNSBMIDI5MC43MTg3NSAzODcuNTE5NTMxIEwgMjkzLjYyMTA5NCAzNzMuODc4OTA2ICIgdHJhbnNmb3JtPSJtYXRyaXgoMSwwLDAsMSwtNzQsLTEzKSIvPgo8cGF0aCBzdHlsZT0iZmlsbDpub25lO3N0cm9rZS13aWR0aDozLjQ5MztzdHJva2UtbGluZWNhcDpidXR0O3N0cm9rZS1saW5lam9pbjptaXRlcjtzdHJva2U6cmdiKDU5Ljk5OTA4NCUsNTkuOTk5MDg0JSw1OS45OTkwODQlKTtzdHJva2Utb3BhY2l0eToxO3N0cm9rZS1taXRlcmxpbWl0OjMuMjU7IiBkPSJNIDI1Ni4zMTY0MDYgMjI2LjMyODEyNSBMIDM4Ni42MDE1NjMgMjI2LjMyODEyNSAiIHRyYW5zZm9ybT0ibWF0cml4KDEsMCwwLDEsLTc0LC0xMykiLz4KPHBhdGggc3R5bGU9ImZpbGw6bm9uZTtzdHJva2Utd2lkdGg6My40OTM7c3Ryb2tlLWxpbmVjYXA6c3F1YXJlO3N0cm9rZS1saW5lam9pbjptaXRlcjtzdHJva2U6cmdiKDU5Ljk5OTA4NCUsNTkuOTk5MDg0JSw1OS45OTkwODQlKTtzdHJva2Utb3BhY2l0eToxO3N0cm9rZS1taXRlcmxpbWl0OjMuMjU7IiBkPSJNIDM3NC4xMjg5MDYgMjIwLjA4OTg0NCBMIDM4Ni42MDE1NjMgMjI2LjMyODEyNSBMIDM3NC4xMjg5MDYgMjMyLjU2NjQwNiAiIHRyYW5zZm9ybT0ibWF0cml4KDEsMCwwLDEsLTc0LC0xMykiLz4KPHBhdGggc3R5bGU9ImZpbGw6bm9uZTtzdHJva2Utd2lkdGg6My40OTM7c3Ryb2tlLWxpbmVjYXA6YnV0dDtzdHJva2UtbGluZWpvaW46bWl0ZXI7c3Ryb2tlOnJnYig1OS45OTkwODQlLDU5Ljk5OTA4NCUsNTkuOTk5MDg0JSk7c3Ryb2tlLW9wYWNpdHk6MTtzdHJva2UtbWl0ZXJsaW1pdDozLjI1OyIgZD0iTSAyNDUuNTU0Njg4IDI0OC42NzU3ODEgTCAzNTYuMjgxMjUgMzg3LjUxOTUzMSAiIHRyYW5zZm9ybT0ibWF0cml4KDEsMCwwLDEsLTc0LC0xMykiLz4KPHBhdGggc3R5bGU9ImZpbGw6bm9uZTtzdHJva2Utd2lkdGg6My40OTM7c3Ryb2tlLWxpbmVjYXA6c3F1YXJlO3N0cm9rZS1saW5lam9pbjptaXRlcjtzdHJva2U6cmdiKDU5Ljk5OTA4NCUsNTkuOTk5MDg0JSw1OS45OTkwODQlKTtzdHJva2Utb3BhY2l0eToxO3N0cm9rZS1taXRlcmxpbWl0OjMuMjU7IiBkPSJNIDM1My4zNzg5MDYgMzczLjg3ODkwNiBMIDM1Ni4yODEyNSAzODcuNTE5NTMxIEwgMzQzLjYyNSAzODEuNjU2MjUgIiB0cmFuc2Zvcm09Im1hdHJpeCgxLDAsMCwxLC03NCwtMTMpIi8+CjxwYXRoIHN0eWxlPSJmaWxsOm5vbmU7c3Ryb2tlLXdpZHRoOjMuNDkzO3N0cm9rZS1saW5lY2FwOmJ1dHQ7c3Ryb2tlLWxpbmVqb2luOm1pdGVyO3N0cm9rZTpyZ2IoNTkuOTk5MDg0JSw1OS45OTkwODQlLDU5Ljk5OTA4NCUpO3N0cm9rZS1vcGFjaXR5OjE7c3Ryb2tlLW1pdGVybGltaXQ6My4yNTsiIGQ9Ik0gMjM0LjA5Mzc1IDI1NC4xOTE0MDYgTCAyNjMuMDg1OTM4IDM4MS4yMTQ4NDQgIiB0cmFuc2Zvcm09Im1hdHJpeCgxLDAsMCwxLC03NCwtMTMpIi8+CjxwYXRoIHN0eWxlPSJmaWxsOm5vbmU7c3Ryb2tlLXdpZHRoOjMuNDkzO3N0cm9rZS1saW5lY2FwOnNxdWFyZTtzdHJva2UtbGluZWpvaW46bWl0ZXI7c3Ryb2tlOnJnYig1OS45OTkwODQlLDU5Ljk5OTA4NCUsNTkuOTk5MDg0JSk7c3Ryb2tlLW9wYWNpdHk6MTtzdHJva2UtbWl0ZXJsaW1pdDozLjI1OyIgZD0iTSAyNjYuMzkwNjI1IDM2Ny42NjQwNjMgTCAyNjMuMDg1OTM4IDM4MS4yMTQ4NDQgTCAyNTQuMjI2NTYzIDM3MC40NDE0MDYgIiB0cmFuc2Zvcm09Im1hdHJpeCgxLDAsMCwxLC03NCwtMTMpIi8+CjxwYXRoIHN0eWxlPSJmaWxsOm5vbmU7c3Ryb2tlLXdpZHRoOjMuNDkzO3N0cm9rZS1saW5lY2FwOmJ1dHQ7c3Ryb2tlLWxpbmVqb2luOm1pdGVyO3N0cm9rZTpyZ2IoNTkuOTk5MDg0JSw1OS45OTkwODQlLDU5Ljk5OTA4NCUpO3N0cm9rZS1vcGFjaXR5OjE7c3Ryb2tlLW1pdGVybGltaXQ6My4yNTsiIGQ9Ik0gMzIzLjUgMTEzLjUxOTUzMSBMIDMyMy41IDE0Ny41NDY4NzUgIiB0cmFuc2Zvcm09Im1hdHJpeCgxLDAsMCwxLC03NCwtMTMpIi8+CjxwYXRoIHN0eWxlPSJmaWxsOm5vbmU7c3Ryb2tlLXdpZHRoOjMuNDkzO3N0cm9rZS1saW5lY2FwOnNxdWFyZTtzdHJva2UtbGluZWpvaW46bWl0ZXI7c3Ryb2tlOnJnYig1OS45OTkwODQlLDU5Ljk5OTA4NCUsNTkuOTk5MDg0JSk7c3Ryb2tlLW9wYWNpdHk6MTtzdHJva2UtbWl0ZXJsaW1pdDozLjI1OyIgZD0iTSAzMjkuNzM4MjgxIDEzNS4wNzAzMTMgTCAzMjMuNSAxNDcuNTQ2ODc1IEwgMzE3LjI2MTcxOSAxMzUuMDcwMzEzICIgdHJhbnNmb3JtPSJtYXRyaXgoMSwwLDAsMSwtNzQsLTEzKSIvPgo8cGF0aCBzdHlsZT0iZmlsbDpub25lO3N0cm9rZS13aWR0aDozLjQ5MztzdHJva2UtbGluZWNhcDpidXR0O3N0cm9rZS1saW5lam9pbjptaXRlcjtzdHJva2U6cmdiKDU5Ljk5OTA4NCUsNTkuOTk5MDg0JSw1OS45OTkwODQlKTtzdHJva2Utb3BhY2l0eToxO3N0cm9rZS1taXRlcmxpbWl0OjMuMjU7IiBkPSJNIDQ3MS40MDYyNSAxODQuNzUgTCA0NDQuODA0Njg4IDIwNS45NjA5MzggIiB0cmFuc2Zvcm09Im1hdHJpeCgxLDAsMCwxLC03NCwtMTMpIi8+CjxwYXRoIHN0eWxlPSJmaWxsOm5vbmU7c3Ryb2tlLXdpZHRoOjMuNDkzO3N0cm9rZS1saW5lY2FwOnNxdWFyZTtzdHJva2UtbGluZWpvaW46bWl0ZXI7c3Ryb2tlOnJnYig1OS45OTkwODQlLDU5Ljk5OTA4NCUsNTkuOTk5MDg0JSk7c3Ryb2tlLW9wYWNpdHk6MTtzdHJva2UtbWl0ZXJsaW1pdDozLjI1OyIgZD0iTSA0NTguNDQ1MzEzIDIwMy4wNjI1IEwgNDQ0LjgwNDY4OCAyMDUuOTYwOTM4IEwgNDUwLjY2Nzk2OSAxOTMuMzA4NTk0ICIgdHJhbnNmb3JtPSJtYXRyaXgoMSwwLDAsMSwtNzQsLTEzKSIvPgo8cGF0aCBzdHlsZT0iZmlsbDpub25lO3N0cm9rZS13aWR0aDozLjQ5MztzdHJva2UtbGluZWNhcDpidXR0O3N0cm9rZS1saW5lam9pbjptaXRlcjtzdHJva2U6cmdiKDU5Ljk5OTA4NCUsNTkuOTk5MDg0JSw1OS45OTkwODQlKTtzdHJva2Utb3BhY2l0eToxO3N0cm9rZS1taXRlcmxpbWl0OjMuMjU7IiBkPSJNIDUwNy45Mzc1IDM0NC43OTY4NzUgTCA0NzQuNzY1NjI1IDMzNy4yMjY1NjMgIiB0cmFuc2Zvcm09Im1hdHJpeCgxLDAsMCwxLC03NCwtMTMpIi8+CjxwYXRoIHN0eWxlPSJmaWxsOm5vbmU7c3Ryb2tlLXdpZHRoOjMuNDkzO3N0cm9rZS1saW5lY2FwOnNxdWFyZTtzdHJva2UtbGluZWpvaW46bWl0ZXI7c3Ryb2tlOnJnYig1OS45OTkwODQlLDU5Ljk5OTA4NCUsNTkuOTk5MDg0JSk7c3Ryb2tlLW9wYWNpdHk6MTtzdHJva2UtbWl0ZXJsaW1pdDozLjI1OyIgZD0iTSA0ODUuNTM5MDYzIDM0Ni4wODIwMzEgTCA0NzQuNzY1NjI1IDMzNy4yMjY1NjMgTCA0ODguMzEyNSAzMzMuOTE3OTY5ICIgdHJhbnNmb3JtPSJtYXRyaXgoMSwwLDAsMSwtNzQsLTEzKSIvPgo8cGF0aCBzdHlsZT0iZmlsbDpub25lO3N0cm9rZS13aWR0aDozLjQ5MztzdHJva2UtbGluZWNhcDpidXR0O3N0cm9rZS1saW5lam9pbjptaXRlcjtzdHJva2U6cmdiKDU5Ljk5OTA4NCUsNTkuOTk5MDg0JSw1OS45OTkwODQlKTtzdHJva2Utb3BhY2l0eToxO3N0cm9rZS1taXRlcmxpbWl0OjMuMjU7IiBkPSJNIDQwNS41ODIwMzEgNDczLjE0NDUzMSBMIDM5MC44MjAzMTMgNDQyLjQ4ODI4MSAiIHRyYW5zZm9ybT0ibWF0cml4KDEsMCwwLDEsLTc0LC0xMykiLz4KPHBhdGggc3R5bGU9ImZpbGw6bm9uZTtzdHJva2Utd2lkdGg6My40OTM7c3Ryb2tlLWxpbmVjYXA6c3F1YXJlO3N0cm9rZS1saW5lam9pbjptaXRlcjtzdHJva2U6cmdiKDU5Ljk5OTA4NCUsNTkuOTk5MDg0JSw1OS45OTkwODQlKTtzdHJva2Utb3BhY2l0eToxO3N0cm9rZS1taXRlcmxpbWl0OjMuMjU7IiBkPSJNIDM5MC42MTMyODEgNDU2LjQzMzU5NCBMIDM5MC44MjAzMTMgNDQyLjQ4ODI4MSBMIDQwMS44NTE1NjMgNDUxLjAyMzQzOCAiIHRyYW5zZm9ybT0ibWF0cml4KDEsMCwwLDEsLTc0LC0xMykiLz4KPHBhdGggc3R5bGU9ImZpbGw6bm9uZTtzdHJva2Utd2lkdGg6My40OTM7c3Ryb2tlLWxpbmVjYXA6YnV0dDtzdHJva2UtbGluZWpvaW46bWl0ZXI7c3Ryb2tlOnJnYig1OS45OTkwODQlLDU5Ljk5OTA4NCUsNTkuOTk5MDg0JSk7c3Ryb2tlLW9wYWNpdHk6MTtzdHJva2UtbWl0ZXJsaW1pdDozLjI1OyIgZD0iTSAyNDEuNDE3OTY5IDQ3My4xNDQ1MzEgTCAyNTYuMTc5Njg4IDQ0Mi40ODgyODEgIiB0cmFuc2Zvcm09Im1hdHJpeCgxLDAsMCwxLC03NCwtMTMpIi8+CjxwYXRoIHN0eWxlPSJmaWxsOm5vbmU7c3Ryb2tlLXdpZHRoOjMuNDkzO3N0cm9rZS1saW5lY2FwOnNxdWFyZTtzdHJva2UtbGluZWpvaW46bWl0ZXI7c3Ryb2tlOnJnYig1OS45OTkwODQlLDU5Ljk5OTA4NCUsNTkuOTk5MDg0JSk7c3Ryb2tlLW9wYWNpdHk6MTtzdHJva2UtbWl0ZXJsaW1pdDozLjI1OyIgZD0iTSAyNDUuMTQ4NDM4IDQ1MS4wMjM0MzggTCAyNTYuMTc5Njg4IDQ0Mi40ODgyODEgTCAyNTYuMzg2NzE5IDQ1Ni40MzM1OTQgIiB0cmFuc2Zvcm09Im1hdHJpeCgxLDAsMCwxLC03NCwtMTMpIi8+CjxwYXRoIHN0eWxlPSJmaWxsOm5vbmU7c3Ryb2tlLXdpZHRoOjMuNDkzO3N0cm9rZS1saW5lY2FwOmJ1dHQ7c3Ryb2tlLWxpbmVqb2luOm1pdGVyO3N0cm9rZTpyZ2IoNTkuOTk5MDg0JSw1OS45OTkwODQlLDU5Ljk5OTA4NCUpO3N0cm9rZS1vcGFjaXR5OjE7c3Ryb2tlLW1pdGVybGltaXQ6My4yNTsiIGQ9Ik0gMTM5LjA2MjUgMzQ0Ljc5Njg3NSBMIDE3Mi4yMzQzNzUgMzM3LjIyNjU2MyAiIHRyYW5zZm9ybT0ibWF0cml4KDEsMCwwLDEsLTc0LC0xMykiLz4KPHBhdGggc3R5bGU9ImZpbGw6bm9uZTtzdHJva2Utd2lkdGg6My40OTM7c3Ryb2tlLWxpbmVjYXA6c3F1YXJlO3N0cm9rZS1saW5lam9pbjptaXRlcjtzdHJva2U6cmdiKDU5Ljk5OTA4NCUsNTkuOTk5MDg0JSw1OS45OTkwODQlKTtzdHJva2Utb3BhY2l0eToxO3N0cm9rZS1taXRlcmxpbWl0OjMuMjU7IiBkPSJNIDE1OC42ODc1IDMzMy45MTc5NjkgTCAxNzIuMjM0Mzc1IDMzNy4yMjY1NjMgTCAxNjEuNDYwOTM4IDM0Ni4wODIwMzEgIiB0cmFuc2Zvcm09Im1hdHJpeCgxLDAsMCwxLC03NCwtMTMpIi8+CjxwYXRoIHN0eWxlPSJmaWxsOm5vbmU7c3Ryb2tlLXdpZHRoOjMuNDkzO3N0cm9rZS1saW5lY2FwOmJ1dHQ7c3Ryb2tlLWxpbmVqb2luOm1pdGVyO3N0cm9rZTpyZ2IoNTkuOTk5MDg0JSw1OS45OTkwODQlLDU5Ljk5OTA4NCUpO3N0cm9rZS1vcGFjaXR5OjE7c3Ryb2tlLW1pdGVybGltaXQ6My4yNTsiIGQ9Ik0gMTc1LjU5Mzc1IDE4NC43NSBMIDIwMi4xOTUzMTMgMjA1Ljk2MDkzOCAiIHRyYW5zZm9ybT0ibWF0cml4KDEsMCwwLDEsLTc0LC0xMykiLz4KPHBhdGggc3R5bGU9ImZpbGw6bm9uZTtzdHJva2Utd2lkdGg6My40OTM7c3Ryb2tlLWxpbmVjYXA6c3F1YXJlO3N0cm9rZS1saW5lam9pbjptaXRlcjtzdHJva2U6cmdiKDU5Ljk5OTA4NCUsNTkuOTk5MDg0JSw1OS45OTkwODQlKTtzdHJva2Utb3BhY2l0eToxO3N0cm9rZS1taXRlcmxpbWl0OjMuMjU7IiBkPSJNIDE5Ni4zMzIwMzEgMTkzLjMwODU5NCBMIDIwMi4xOTUzMTMgMjA1Ljk2MDkzOCBMIDE4OC41NTQ2ODggMjAzLjA2MjUgIiB0cmFuc2Zvcm09Im1hdHJpeCgxLDAsMCwxLC03NCwtMTMpIi8+CjwvZz4KPC9zdmc+;" parent="1" vertex="1">
                    <mxGeometry width="500" height="480" as="geometry"/>
                </mxCell>
                <mxCell id="32" value="" style="shape=image;verticalLabelPosition=bottom;labelBackgroundColor=#ffffff;verticalAlign=top;aspect=fixed;imageAspect=0;image=data:image/png,iVBORw0KGgoAAAANSUhEUgAAA3QAAAQZCAMAAAC6g7iDAAADAFBMVEX/////9/f3////lJSc1vcAAACMjIz/zs4Atff/AAAxMTHn5+fGxsb/xsb/5+fG3v/v7++cnJzOzs7W1tb/jIx7xvfe3t7n9/+UlJStra3/SkqMxvf/7+9ra2uMzvf/tbU5tfe1tbVzc3Pn7//39/f/Y2PO5/+11vdKvff/3t7/vb3/nJzv9/+EhIT/e3v/ISH/MTFavfelpaW9vb3W7/8ptfe93vf/ra293v/e7/8xtfeczvf/UlL/1tZjvff/hITG5///a2trvff/OTn39///QkJCtfet1vdSvff/paWUzvf/c3OExve13v+l1vcAre8htff////////////////////////////////////////////////////////////////////////////////////////////////////////////////////////////////////////////////////////////////////////////////////////////////////////////////////////////////////////////////////////////////////////////////////////////////////////////////////////////////////////////////////////////////////////////////////////////////////////////////////////////////////////////////////////////////////////////////////////////////////////////////////////////////////////////////////////////////////////////////////////////////////////////////////////////////////////////////////////////////////////////////////////////////////////////////////////////pcxWFAAAACXBIWXMAAA9hAAAPYQGoP6dpAAAgAElEQVR4nO2dfY/TSNenHwklKLHVyDJECtBinQ4gmoGFRjeoGRg0s4h7YdH09/80Xtv16rfELpfrzb/rD0gcx3F3+0pVnXOq/D85AMAo/2P7BABYGpAOAMNAOgAMA+kAMAykA8AwkA4Aw0A6AAwD6QAwDKQDwDCQDgDDQDoADAPpADAMpAPAMJAOAMNAOgAMA+kAMAykA8AwkA4Aw0A6AAwD6QAwDKQDwDCQDgDDQDoADAPpADAMpAPAMJAOAMNAOgAMA+kAMAykA8AwkA4Aw0A6AAwD6QAwDKQDwDCQDgDDQDqQp9vt3vY5LAlIB/J4u01tn8OSgHQgX2+3ke1zWBKQDuTb7db2KSwKSAei7TaxfQ6LwgXpUvmbdrfFAMMoxYCOAfXM4IJ0ebLdZvRhBOcMkwjpYtvnshCckK407cgfwTmjHIR0+M2bwQnp8owmiuCcBYpf+tr2OSwLN6Q7bqugNZyzQSo698AIbkhXjuYTOGeHDL91wzgiXZkqiuGcFQ5IjRvGFelSjORtgdS4aVyRrgqiwTkL7FDtbBpXpCvHc/jCtUGM/JxpHJEuQnLWFgmGdKZxQ7qUxlGOtk9kgaCHYRwnpEur8VyGwYUFij7GwfY5LA0XpCPOsQw5MEqKls44DkiXsrhljDp388RkLH2METo2hn3pUpErQNbAPBGrdkYnwxjWpZOcK791Mb4wzZpKZ/s8FoRt6dJa63ZA2sA8caldgi6GOWxLB8DigHQAGAbSAWAYSAeAYSAdAIaBdAAYBtIBYBhIB4BhIB0AhvFBuj+vbJ8BABrxQLpfdz9gHQgI96X7dXcH60BIOC/d1ec7WAeCwnnp8ltYB8LCfelgHQgMD6SDdSAsfJAO1oGg8EI6WAdCwg/pYJ1GXl3bPoOl44l0sE4XT19vNhe2T2Lh+CIdrNPDs3ebzeah7bNYON5IB+s0cP/LpuKV7RNZNv5IB+umcvGNKLd5i/6lVTySDtZNohzMVXy5b/tUlo5P0sG6CVy/I8q9e2b7TIBX0sE6Vb7Swdzm3lPbpwI8kw7WKXHxkCr3NyIoLuCZdLBuPE8/UeUeIyvuBr5JB+vGcv2YOvfM9pkAinfSwbpRvPqbKvcQaQJn8E86WDeci3tUuecYzDmEh9LBuqE8w2DOSXyUDtYN4j4bzL1GmsAtvJQO1p3n4i1V7hsGc67hp3Sw7gyi5uur7VMBLTyVDtad5BlqvlzGV+lgXT+85guDOTfxVjpY1wMm8DiPv9LBui74YO4xJvA4i8fSwbo2qPnyAZ+lg3UNXj1nE3jQs3QZr6WDdTKYwOMLfksH6wSo+fIGz6WDdRQ+mPuENIHz+C4drCvBBB6v8F46WJc/ZRN4UPPlB/5Lt3jreM0XBnOeEIB0y7buPmq+vCME6RZsHSbw+EgQ0i3VOiza7CdhSLdM67Bos6cEIt0CrcMEHm8JRbqlWccn8KDmyz+CkW5R1mHRZq8JR7oFWYcJPH4TkHSd1l3919bZzAafwIOaL08JSboO665+fLZ3OrOARZv9JyjpWtZd/bi7e2HzhLSDCTwBEJZ0DetK5+6e2D0jVZ52FS/zwdxPpAk8JjDpatbdls7d3f1h+5yUePiu5RVqvgIhNOkk68iju7uPtk9JheuiNatvwaLNwRCcdNw65tzdP7bPSIGLssKr1p5hAk84hCcdte5//eeO4WHmrpoJ/lY8R81XSAQoHe9XMvxL1f0khrG5A1i0OSxClK5p3Q/b5zOWr2z0Vj3DBJ7QCFK6/GO9qbu1fT7jeMoSA1WZF5vAg5qvYAhSumb/8pftExoHWzR2s3n3FIs2B0iI0jWdu/v83fYpjeF6I2DxE0zgCYkApXvRdO7u7oHtcxrBxaYFar7CIjzpXrSUu7v7bfukRvC85RwWbQ6M4KTrcs6nVN3PpnKYwBMcoUnX7dzdS9vnNZT7Tef+D5q54AhMuh7n7t7bPrGBPH3XlG7zyfY5Ad0EJt0fL993W+dJqu5by7lGCSYIgMCkK7j9sx29vLv71/ZpDeK6w7nNQ9tnBTQTnnQFLx61pPNi1YaObEEJcnSBEaR05XpEzW6mD6s2fOmW7ovt8wJ6CVS6ghd/1qTzYNWG193ObTbIjYdFuNLl+fcH/0jWOV8K1soWcNorNwCfCVm6vOxm/mDSub5qw0U7W8B5bfvkgE4Cl67gxS8ineurNrzt1O3bw9fX16+QNQiK8KXL8z8+/lVa53Yp2DNZtYdENbgWJkuQruD2389ul4JdVKr9vL6+uAhjAJfG8dH2ObjKQqTLy26m7TM4RSCqCbbbre1TcJblSAdMEm23a9vn4CyQDsxBut1mts/BWSAdmIP9dpvaPgdngXRAP3F8KFq6uATRlDaQDmjnuBVEtk/GQSAd0E4kSWf7XFwE0gHtRPF6u91XvUsM7DpYoHRRVOvyHMnTSIbu1zUeic5vFkeJmhzrH944lXBYo195ggVKd6j3efbVU7lHRC6YYkvcfGu6Jq9nx87Ne/K9Lo6SbBvEiXw1Fh+xn+EHdAD0K0+xQOniejSbJJSK6/+QcLqli0q3ir0qe8TmXfl8TTZXR06SdbVflMfkcIfq9ZL0WLzC37kO9dIsfneJ7XNwmAVKd6y1L+l2u8s7FWtuKRtDEgHfraXUb7plEkcZu9Ya742l5i0WL6XB5rLijl4C4CxQunoDQ58MkO4gObLmLxbt3EGM5tZnpSsPQ/cPt1JqT77JQDdLlE5uYY5Uj/PS1b+9+cDwUA8ZxF3vrUm3Yw3tPtxgA4Z0J1midEepiUnplX9eunr8hYmbdnakTkmXJ/2BmkCI5IEraLFE6crLnvUI1/TyOCtd1KjgpeLuxaH631uXjsZSDuFemKh2Ps0ipRP9S9a7rJyq5+na4tSiHnQs2P2dflI60lGNAx72ZOE24lpYpHQihMF6l+fzdA1x2IisOzZ+5r3lODDYFF1efSEF+4Wig2VKxzuFa2bf2Txd0hCHiNSTkDojHTE83Pr7Le1ehhonmsoypWP9y4j3Gc+O6XRKV0ofcgesaMm3SRwfQs2ITGWZ0rH+Zczbm7PSNQP8k6Q7hh3ey2gvPdwO9DQWKl1GNDjw3MFZ6ZriJCyQoiJdz9uCgdacBlpvM5mFSrerrBC9y/PSNRNyNP976EwDL126PErjeBfuoHUiC5WOhPpjYcxZ6Y71oi2Wtss6v88XLx04xVKlq/qXBzHqOF+RUh/UZaKSpTY6O3a9F9IBmaVKV2oh9S4HSFdbyTHl1iS13dLzBc8VkG7JLFW6sgpL6l0OmWVQ7L6mw5RUSrNJ0f/j/vzUHvYmSLdcFitdvN3KFYKdZWCNLWUkPEujqJoozi2KyqxUvCs2l9m30qXiYfVe+bMgHeAsVrqqKmRXf9osAxMQRXYH/lyOzGV8t0PVXZWPUgHpgMxipcuzJJEu/CiRiZpbWGdxVy7AkKXNYHhKNlOz5KOQl6XHbJeAC1LAGZYrHQCWgHQAGAbSAWAYSAfUCe1OloaAdECV6y9vbZ+Cn0A6oMb1l81m89X2WXgJpAMqVMptNmjqVIB0YDxUuYIL26fiI5AOjOU+V+4nIikqQDo1ntzd3T2xfRJWuP8cyk0E0qmxVOmEcq/Rs1QF0qmxTOmgnBYgnRpLlA7KaQLSqbE86V69hXKagHRqLE06odw9KDcVSKfGsqQTyj2EctOBdGosSToopxlIp8ZypINy2oF0aixFuouHUE47kE6NZUgnlHsL5fQB6dRYgnSScq9sn0tQQDo1wpcOys0GpFMjdOmg3IxAOjXClu7iNZSbEUinRsjSCeWeYzmGOYB0aoQrnaTcfdvnEiiQTo1QpYNyBoB0aoQp3VMoZwJIp0aI0j39CeWMAOnUCE86odyXa9vnEjiQTo3QpINyBoF0aoQlHZQzCqRTIyTpnj57B+VMAunUCEc6odxjKGcGSKdGKNJBOQtAOjXCkA7KWQHSqRGEdFDODpBOjQCku34M5ewA6dTwXjqu3Ltntk9lcUA6NTyXTlIOt94xDqRTw2vpoJxdIJ0aHksH5WwD6dTwVjp+52IoZw1Ip4an0l3jzsUOAOnU8FI6KOcGkE4ND6WDcq4A6dTwTjpxG1UoZxtIp4Zn0kl3LoZy1oF0anglHW4W7haQTg2PpINyrgHp1PBGuq9QzjkgnRqeSCduowrl3AHSqeGFdLhzsZtAOjU8kA7KuQqkU8N56aCcu0A6NRyX7gLKOQykU8Np6cRtVKGci0A6NRyWDncudh1Ip4az0kE594F0ajgqHZTzAUinhpPSXdyDcj4A6dRwUDpx52Io5zaQTg3npMPNwv0B0qnhmHRQzicgnRpOSQfl/ALSqeGQdOI2qlDODyCdGs5IJ925GMp5AqRTwxHpcLNwH4F0ajghHZTzE0inhgPSPf0E5fwE0qlhXTpx52Io5xuQTg3L0uFm4T4D6dSwKh2U8xtIp4ZF6aCc70A6NexJdw3lfAfSqWFLOn4bVSjnL5BODTvS4c7FQQDp1LAhHZQLBEinhnnpoFwwQDo1TEvHb6MK5fwH0qlhVjpx52IoFwCQTg2T0uFm4YEB6cZwy3lUSPdIPP0+32dCueCAdGP4ddfD1VyfCOUCBNKN4bbHuV8zfZ64czGUCwhIN4pHszR0F687N0s3C4dyIQHpRvGi07lHE4/6fNNxc537uFl4qEC6cbzvku522jHvFV41t0G5gIF04/jY4dw/0w55XapVN+sVlAsZSDeO75/b0j2YdMRXRC55y1soFzSQbiQvW869n3S8C1pSyfXCzcKDB9KN5Kol3cdJx/ubNWrkKZRbAJBuLM0E+edJ1Sj8LgRVUwflFgGkG0szQf5yysGuuXNFU3fxDcotAkg3mkaC/I8Jh3q1kfh/7ME3KBc2kG409QT5lAqwp483bXAb1eCBdOOpJcinVID9DeUWCaQbj5wg/z3hOK+h3DKBdOORE+QTKsCuW84903aKwGUgnQIiQT6h1PlVy7nNW32nCBwG0ikgEuQvlI/RGURB73IRQDoVWIJ8QgXY2w7n0NQtA0inAkuQq5c6t4MoaOoWA6RT4tHECrB2EAVN3XKAdEq8mFYBdtHjHJq6RQDp1Hg/paHrDKKgqVsMkE6NB1MqwL71OoembglAOjXKBLlqBdjFSbSeJnARSKfIy9kWuwShA+kUuZq6BhhYLJBOlWmrNIAFA+kAMAykA8AwkA4Aw0A6AAwD6QAwDKQDwDCQDgDDQDoADAPpADAMpAPAMJAOAMMEJ91xu92uG9vS/aHYmmS7/m3JViKhW2oH6dyjYp1FvacQbZvkOXvE30XPJT7yQ8RkT/7Jar8L4CbBSVddrkd5Sypd8XHftinSFez7TmGAdNGBv5bVDhGLT9byqwGOEJx0h21xDafShmy7PaTl9b3L+IXe3ta+sDuk69ljt65b1zqFvBQtkZ5FwqjK/7g8hTQRDWQhnfg8SBcYoUlXXM5pcdGLDZkkxDEh0nVsmyJdqZnoK7ZPoaRXukjqZ2bcukI6sQ+kC4zQpCuu1uqKZc+j+givGn11bZsmXSq1XK1TqOiVruZrxlrI8hj88JAuMEKTrhwXHSUFkubV37/tzJZTe8jdxdYp0I3d0u2kgVy1G2khS+n4TpAuMAKTrriGd3m+5p27Y/1i792mUbrmKRD6pMvqXwDsaSkdPz6kC4zApMuq6zPlV3Laimh0b5so3U6SrnkKhD7ptvWjsn5qJV0kIqut8wUeE5h0pLN25H221tiqZ5tqyoC+JrdXzVNgW/ukq7W6EX1bJR37AEgXGGFJR7p2ZedOxCAGDemmSRdJ0dDWKRB6pIuaXV36nEhHd4N0gRGWdHt6eab0yh8l3ZktvXtEsRwNbZ0CQUk6+gmQLjDCko716Xjnbm7pGoUuXafANqtIR/aDdIERlHQiesE6d2PGdGe2nJBO8qZ9CgSlMR39UEgXGEFJt5eHXVWE0kT0ci23ae1TIKhEL9mOkC4wZpcuPmy3++rL/xgXl+chO/cGdY61wuIqtBG1pxx0bpuUMliL/mXHKRD6pNufyNOxz4B0gTGfdNVwJeXf+cdMlNnPhJwb2wshWn3Jrm1TpItEo9Z1ChUKFSl8T0gXGPNJV1w3exFqkObSzNbWyVUgqehftuosu7ZNSo6LouWuU6hQqL3kH7KGdGExn3SVcMmuuMLoOKecv1J8sXf07fRwbEQRyefsO2YZdGybXPBcHaX7FMjjYbMM6F5Cumje3gGwwHzSFZfKIeIP2UUWz3cF1aOSezaPdE19l+fTtbdNk6787EP/KeTn5tNlHfPppE+BdGExm3TRVvS0pEBeNN8VVJ/DJjp3sejZHtil3tp2cl54pdLpmhUyFa7vFOrSSQctkWaO8/ZXki6CdKExm3SpNHjbiq/8tKvEXwu16TW53Lk7pqSrG0slIs1tU6WrEgf9p3BKOrFGimglJemqDx77ywAuM5t0mfiaP25r/bC45x0ALIPZpJOicjup35TUSxIBWB5zSddo3aSxDbpKYOHMJZ3cuknJ6M5qEAAWxVzS9bRuKYZ0YPHMJV29deORu31XsTEAi2Iu6XoClofG6ssALI+ZpJNbNylgedw2F2EFYHHMJJ3cutWHdPvuNwCwGGaSTmrd5IBljCEdADNJV2/deD1Y10w2ABbGPNLJrVuG1DgAMkGtkQKAD0A6NV4+efLkpe2TAH4C6dR4cnd398T2SQA/gXRqQDqgDKRTA9IBZSCdGpAOKAPp1IB0QBlIpwakA8pAOjUgHVAG0qkB6YAykE4NSAeUsS7d7a3tM1AC0gFlrEv3/s7LaipIB5SxLd2/xcX7+8rySSgA6YAylqV7cVfy+YXds1AA0gFlLEt39aiy7u6X3dMYD6QDytjuXuYviXXvPYunQDqgjHXp8tv3RDu/4imQDihjX7o8/0Ws8yqeAumAMi5Il7/47F08BdIBZZyQzsN4CqQDyrghnX/xFEgHlHFFOt/iKZAOKOOMdJ7FUyAdUMYh6byKp0A6oIxL0vkUT4F0QBmnpPMongLpgDKOSedNPAXSAWVck86XeAqkA8q4J50f8RRIB5RxUDov4imQDijjonQ+xFMgHVDGTencj6dAOqCMo9I5H0+BdEAZZ6VzPJ4C6YAy7krndjwF0gFlHJbO6XgKpAPKOC2dw/EUSAeUcVs6d+MpkA4o47p0rsZTIB1QxnnpHI2nQDqgjPvSuRlPgXRAGR+kczGeAumAMl5I52A8BdIBZTyRzrl4CqQDyvginWvxFEgHlPFGOsfiKZAOKOORdE7FUyAdUMYn6VyKp0A6oIxf0rkTT4F0QBnPpHMmngLpgDK+SedKPAXSAWX8k86NeAqkA8p4KB2PpzyyGE+BdEAZL6VzIJ4C6YAyfkqXX/22HE+BdEAZT6WzHk+BdEAZb6WzHE+BdEAZf6WzG0+BdEAZn6WzGU+BdEAZr6WzGE+BdEAZv6WzF0+BdEAZ36WzFU+BdEAZ76WzFE+BdECZAKSzEk+BdECZEKSzEU+BdECZIKSzEE+BdECZQKQzHk+BdECZUKQzHU+BdECZcKQzG0+BdECZgKQzGk+BdECZkKQzGU+BdECZsKQzF0+BdECZwKSbOZ5yyylXAnwknn6f49NAoAQnXW885eqv6WZQo9vYX3Ia+EN40vXFUx5p6HPe9jhne+lb4BUBStcdT3mppT16hIYOTCZI6TriKVUbNT3y8aLTuUeTjwuWRJjSteMpxMLpqYT3XdI5ccc84A2hSteIp1AH/5p82I8dzv0z+ahgUQQrXS2ewnuFH6ce9fvntnQPNJwtWBDhSifFU664KZ8npw1etpx7r+NcwYIIWToeT5EGYn9OPeZVS7rJrSdYGEFL15XNnhzdbx5yeuMJFkbg0rF4imByeL+ZILd6mzzgI6FLx++XzJk83a5xwD90nCVYEsFL1+oOTo571BPkqAADYwleunYNyeT+YC1BjgowMJbQpfujnVf7PLVDKCfIf2s5S7AoQpfud8u56T1COUGOCjAwmsCl66ramm6KSJCj1BmMJ2zpeua/TVVFJMgt3BkPeE/Y0v3VLd3kakkWEUUFGFAgaOn+7HHu7v3EKpJbTfKCRRKydFd9Dd30tAFJkKMCDKgQsnQFtx//7F5hYWJ67YUWdcEyCVy6itsX/33SlG7qyg3v0dABVZYgXcXVi49PfkjWTUwbPLhDBRhQZDHSVXy//fiLDvQmrtxQJshRAQaUWJZ0hNuP/z6aPPf0JRo6oMgSpau4mpjXvkIFGFBksdJNBqs0AEUgHQCGgXQAGAbSAWAYSAeAYSAdAIaBdAAYBtIBYBhIJxHJ1DYfu3brPgJ/fOw5HFg6kE5iK0O3pWvyNOPeRXyXfU2lY3ygu+6q53HX4QCAdDKFGwmn2hKVyh2SpNQmpntF1Zb6tpw6RjcfIrJh3TgcADmkq1FIU99QNmpx1cTtCvsyvjHmr+7YrlmhGHmyS8gOhXToVE4miotvrNT2WegF0km0pCv6i/zvvZZcow1c8WhNXy0M2/O37SCdLlLaOw/qNwnpJJrSxbX+44EOzIR0pYjkwbHoUkpvjNIc0mkhPsS7KD1I32gBAOkkmtIdavGPlDZ7knQJ2yGTOpoMSKcBEr6KwgpEQTqJhnQRH8axl9d0c0u6ekNHgHT6gHTBUljF0mrlN2wsjehKaGdSkk7qcdb0rCjfjjydFiJ0L4NFSqt1RUL25HktkEJc29UGfxTk6bSRhNVngHQSUp6ubOKShnRxUzoeR4l7pEOeTgvZNqycAaSTaIzp+qXLiv7iLhaR7D7pgvp+tkbW8cv1Gkgn0ZBu3ysdhY/jUkg3H0lg7Rykq9GQrmlNwgMpZRmYnDiPIN1cROvgnIN0Mg3pmu3Xtha9LBs8djkcRWmKANJpYBfiLxHSSTSka6jEYpWsWYuk6qSi2avN/imBdBpIWDAqpOYO0kk0K1Lqg7qMPuN9yVRYlzYSdTTNB+mmksg5nFCAdBJN6SK5qUvZq2IAF4vXt7U6sAwFz5qI5GqFUIB0Eq1ZBqVV9K9dNmu8EJB97WbcOnmEV4z9IR3oB9JJtKQrrdpmaRRV88epQnKoUsyyK6U8xMVXcrwWBS0oAwMdQDqJtnT57sAGFQnr4NTyAwdRE8aHH1sy6kcZGOhmhHRHeS7hcdtV4+s5SdIxXN+VU5ezVIwpIjmUVjxJ2C/lmGbFs5jtmiYyM5428IwxLV0sTWBZB+gcsM2xuQpbmL3yUd1LESyAc2AG5NRnHm9DjUSNki5lTR2cA7OQiWF1GqxzIwMpNGwA58A8iLhBwM6NlC6qwnBwDswFqzcI2bmxKYOk8A3OgfkgcYOgnRsrXVSfRwaAZqq4QdjOjU6OZ3AOzMphu03Cdm60dOvAfx/ANlF4Kzo3GSfdsbqFDaorwIyE/70+SrrySyjbbsObPw/cobp7QUgTedqMka5yTmTIAdAPKRMPam3ZFiOki2gM5RDWNN6hxKeWDEg7a6XBaMqO1C70/uVw6Zhz5VoxC5yosuMTx8s5A6z7k7I5BvuOO4iA0WSVb3HXOk8BMVi6SOQKkiVmDXinOpIzlWJ2+HqJ30S6yWgbF3jcYKh0knPV47BHum0yeeK4WPsrljcv75tIM8y50OMGA6WLajnx/eLSBsfaV45Y+0taByVe3jeRZjIxlgs7boDlGgaRCaMK6SL+VF58CE3dNCTnqryB1ZOZFUg3CEmoUjre8MnSZWjqppBKC18Uv8ywlpetA+mGkEpuldJxweL6C+FeJ0AjkG4IiTSur6RjTV1tbcvD0ka6QA1INwR5WF9Jx5q6mnRxyOMQoA9IN4Bax5FIR5u6mnRp4IUUQBOQbgCRbBN9Qpq6uOMVAE4D6QaQyv1GqhZp6ur3K0AkBQwB0g0g7pCONHVN6QLO6AJtQLoBdEpXNXWQDowH0g2gU7qqqYN0YDyQbgCRXGvCpSubupp0RwRSwBAg3QC6opd51dRliF6C0eiW7krz8dygnacrOTbWrUqRHAdD0Czd1d2v73qP6AQHadEOqT3L6tLtg54ENgevfto+Ayvole7q893d+1uth3SCTGrDJOmOdekwt2ckF483i7ROq3TfC+cKXuo8phPIdWDyyE2eAlb2LrFMyij+3mw2b22fhAX0Sverku7ud3Aju4M8zaB+s1D+eI3e5TjuFc5tvjy1fRrm0Tym+0jauh8v9B7WOgNaMUynG8mz0rl3F7ZPwwLao5f/kMbuX83Htc3hbDN2fg8g87V0bnPf9mnYQH+e7k9i3T9hdTF356pNYozoRnHxrnTume3TsMIMyfEXpIv5+YH+Q1tkf7r3GIW+FLhmnj4vnXto+zTsMEdFytUj0tj9muHY9jicqjeJwl6oUT8PS+ee2z4LS8xTBvaSWBdUyu4oRyqbFK9hJbARfFpsEKVkptrL2x9Eu4/zHB74zf0qiPLK9mnYYq6C5+9PaMouxKqwwSz6h+9nyUGUkvlmGXwk1v0IqYs5kl/vwwrhauLpl9K517ZPwx4zTu25ek+0++98H2GRqycFp50qvnY+h1YloIO3pXN/2z4Li8w6n+5XkCk7wm35k51sxW+DrBKYzuvSuccLrP7izDuJlaXsAvy+Py8d/eEf/WHqlPzgetlBlJKZZ46zqrCwUnYl56Vj/eslj2rbvKqcu7Z9GlaZfbmG/xLr/gqtizlAuvz7byROGjx9vPAgSsn8a6QEmrIbIh2vEgivoVelnEK3+Wb7LCxjYGGiP+j3/ZOgslbDpGMDuyBjSQq8XuoUuhpGVgN7GWDKbqB0+dVfwcaSxrPcKXQ1zCzBd0tTdgEt5DBUOp44CehnV+XVcqfQ1TC17iW98h4F080aLh2rzVl2RVyO6i+OscVmHwSWshshHYslLb0obMlT6GqYW+E5sIUcxkiX//EoxHm9I1n0FLoaJpdV/zekqrBR0vFFLP6c8YwcB0EUjtF7Gbwg3RqM7aQAACAASURBVKzPIaTsRkq3+KKwhU+hq2H2BiJXNGUXwNrrY6VbeFEYgigSpu/aE8xCDqOl4/N6Q2jnx7L4KXQ1jN8qK5SU3XjpllwU9m3pU+hqmL8/HV973e/RjYp0bGAXXPX3OTCFroaNm0KyhRy8TtkpScfyJsFkK4eBKXR1rNyJldYjep2yU5OOl+aEuYZFN5hC18DS7Y/9X3tdVbrlFYVhCl0TW/cc937tdWXpeFGY9wHcgWAKXRNb0nm/9rq6dKwo7M7bL5xRYApdC2vSiZSdn13MCdLxNSyWUBSG6q82FqXzeyGHSdItZ0I5ptB1YFM6vnCPj0GFadItpSgM1V9dWJXO57XXJ0qX50/CqMw5DabQdWFZOn/XXp8sHRvTPtF1Rg6CKXSd2JbO27XXp0vHxrThFoUhiNKNfek8XXtdg3ShF4VhCl0PDkjHF3LwKoKuQ7qwi8IQROnDBem8XHtdj3T5A3/jt2cgU+ju2T4NF3FDOraQg0cpO03SsYGdh/HbM2AKXS+OSOff2uu6pOPJysCKwsgUOgRRunBFOu/WXtcmHe9c+1qF2gmm0J3AHek8W8hBo3QBFoVdYArdCRySjsfyfvtw8emUjs3q9aWVPwum0J3EKenY2us+LOSgVbrQisKqKXRvbZ+Fs7glnUdrr2uWLqiiMEyhO41j0vmz9rpu6QK6y8g1qr9O45x0vqy9rl26YIrCMIXuHO5J58na6/ql48s1+V0URqq/Ptk+DZdxUDo/1l6fQzpWFOb1XUYwhe4sTkrnQ8puFunYD+5x7oBMoUMQ5RRuSsdvtuHu2uvzSMeLwhwf0faCKXQDcFQ699den0k6z4vCyBS6r7ZPw3Gclc71tddnk87nojBMoRuEu9I5vvb6fNKxrxv/cgeYQjcMl6Vzeu31GaXjRagOx5E6wRS6YTgtnctrr88qHRvRejO7sOInptANw23pHF57fV7pfCwKwxS6obgunbNrr88sHWvk/RnYYQrdYJyXztW11+eWjseRPFkjDVPohuO+dI6uvT6/dGx2oR9FYZhCNxwfpHNy7XUD0vl0lxFMoRuBF9LxGPojd+IKJqTzpygMU+jG4Il07q29bkQ6Hr11MGcigyl0o/BFOufWXjcknRdFYZhCNw5vpOMLOTiy9rop6XyYUI4pdOPwSDq31l43Jp37RWGYQjcSn6Rzau11g9KxnIljmUoGptCNxSvpXFp73aR0TheFYQrdaDyTzp2FHIxKl/9Bi8Lcm2+BKXTj8U06Z9ZeNyuds0VhmEKngH/S5R+dWHvdtHQsd+BQfUBJNYXuue2z8AwPpXNj7XXj0jlZFIYpdCr4KJ0Ta6+bl44vkeZEyqQCU+iU8FM6vva6vcCCBemcKwojQRRMoRuLp9KJtddtnYAV6djAzo2qHEyhU8RX6ayvvW5HOqeKwt5iCp0a/krHF3Kwk7KzJB1PmdiYW3jxTH5WTaF7jOqv8Xgsnd21161JZ7Eo7FquasYUOmV8ls7q2uv2pONFYc1Pn/0urkXb9pxZ9grrECnjt3QW1163KB0rCrurx27/vJs7llsGTt6RKsuLx5hCp4zn0tlbe92mdPwuI3JR2IOi7Zv3Q8kie6TOsppC923ezwsW76WztZCDXenaE8pv548pkVR4NV31HqbQTcB/6XhVmNmUnWXpWMeaFYX9UdWIfZ41uHKPSrd5/hNBlCkEIB3vbBmdbmZbujx/ImdMfhtIn7zb1MAUOlWCkM7G2uv2pWPlAWXQkn7tzNrUXdSdezbfJ4VOGNJZWHvdAenYd81fVy/uGDM2ddc1577M90HBE4h05tded0E6Npz9z3+4dDM2dQ/rLd1zDOlUCUY6vva6oaowJ6TjRWGC+cJJjSHd5jGm9CgSjnT9a6/f6guw3D5hVPnpR/yptQm1D5rWzRVNagzpUI+iTkjSsdvcNFJ2398/0vcRn5vXOMXixL7/1M9krqbuui0dpvWoEZR03Wuv/9LZDXzZ7dzMtSCneNE8l5mauocd0m3+xsBOgbCk61p7/YFWJ753S2dvRcCrVts7U1PXHNJhYKdMaNK11l4nF6W+BF4rclEybyXISf5qn80sTV3HkK6SDuO68QQnHV97/RcR4R/NVly51dB1fQf8nuODuoZ0UE6N8KSrL+TASjX0RRd/d1zm1pYs+dj1FTBLJqNjSAflFAlROmnt9Vv9Xty2L3K7qyO10Rit5bSGdF+gnCpBSpd/Zym7H/xC1Detuj2KstXQ/fGjdSpzNXWvoJw+wpSOr70+x4X4wETDMoh/epyb4YyeQTl9hCodT9lx/tJ26Gb7Yq0Y7PbjE1NN3Vsop49gpeMpO462opFGgtxaQ1dx9fFXR5WMvm8YCpTTSMDS5f+3fiH+0JU2+F6/yu3fM+7qwa/3c33DEPiQ7vl9vQdeJAFL12zp9GXTaskxixVgMlcv/vxrvrN6BuU0Eq50rZpEfVHGWoLcnXvo5H+8+JePZPU2dW+hnEaCla4rnK4tnyYlyC1WgHXy/cXLR/qbOiink2Cl6yoc0RbUk5LS1m9+3sXty99am7pXUE4noUrXXR+lLdAo8hGONXQCnRn7ayink0Cl66mP0vb1/0B7jxUsh0Cla0bQGe91NUzsA5y4OyPwizCl65z0pnUIJq05CcA4wpQuv/34Z3dh4mdNTRNNkNtfDgz4R6DSVXSap2sQ9qfWwAxYEiFLV9EyT1PjVCXIXbjzN/CO4KWrkM3T1To9caYCDHjGMqSrYOZpap5uLZY6p3FFGrENUdzcwneiL/A9y827qHa4Xf2d0t75MY4jupEgv1P+gLh+SHCCBUlXUZinK+L4z2dNBxpPsmXEZEPMNxx27Z0KErrfgW3ImCTRnm1aU9f43uWr7CPEoTL+ovwB7EzAeZYmnUYe2KsAK3wqG5dSl3W1oZAuK7ck0tVPd5JbunXx8j6Os/L/LbEuLY9B30ll65HuUB4nK6090hfpNrR0I4F06tirACsMIQ8yKkjMHIq4TWIn+W20mTpmdDdp//RwWrqk/pGNHcFwIJ2PCJ8S4kws1OFitaQrBNpLTyLp/YRsiHT5gTd1kE4NSOcjwqeUSCGkEya0pCt22klPj2TvtbQpqh8h75ROfBakUwPS+YjwKeqQbt3ciRLLrRrfu+3Neel2/W8G54F0PnJaur6WLu0IMW5bAz+0dLMD6XxE+FQYkOayCJE8pqtHL48dgf2saBibzd8Z6fbSmA7RSxUgnY8I6Q7kkZAuk6OXjTxdlc1bZ7IfR/JqLat+WrqjHL1Enk4FSOcjTLrjml7ssZR2O5Gn4zn0NVck4unyfauDmndIV34k8nTTgHRlpZPEkW1hL0dkW1fRU//1VhVbsdYjqu0Rabg+qU8Jrw+hyfEydR1LO3X8rGvmGC/1SnlJCnXtVHK8OOiBnz7GdGpAuio/LIjYFnbx8kak3ZnqKo3KSeaZtR50LHUQr647XBgL7zmyoi9RBhbJO3X/vDtSfiKrH6VVqcnJPF37R4V0akC68rpK6i0d0ZC+LEnX7Ex1lUaRwqpDxiqrDuQQvP2JpTZGGdrSiYEYbekO8sH7pCs57uVEuThv+mP1tnRZLa8H6dSAdOK6qm2Ra4nbOeO8vkUqjSr35x2wlMY5RBHHUcuF2peCi+Ru4ynpOnMFMW/A+8d0NesgnRqQrlu6iF+yQ6STrNrVazziLT0g3XPfkaAeT2/eWyqlPCNdx6vsF3GoS0d6sOwnSKQOJqRTA9L1SMe3DpJOThhLPc0Ccsnu6bW70xNa7y82ScXnt3aSa8AKs8qO71H+BkhpM5lJb4zZ4fjPuhY/AqRTA9L1SMev2aHSkUu6q+ojF7GUgxxSUedEhVfWXwaWSKM4+kNHcjUme4P8zcCPxn9WqQsL6dSAdH3SRc0U2KCWLmk0dLnYIe6uflThVFnlnnnSlq44B3pyKR3Slf1eql0ZW4n5jkSrMinXKvkqrds1toExQLru6GXEL9qT0ctWaVR9RCdR5pSjdshQjZO1zGs66molxxNakFKFWw98DEh+fHn6a3mI8mfdS3EZSTApzInkuAqQrjtPF7VribvydM3SqP7gZKn26dDGCE5PIKCn1y4DE2lw7tdRLOCQSNqwTGN3Ijym7WT7NwKGAOl6Wzp6aQ9o6URplAhT8joX9jHVdTw9RVeRxs0OMSuboU/ivGdholqpDD3TalWjXaNXHDX2k1crKg+9y7EwkSqQrm9Mx144OaZrlkZFtXiDnGOv2oWeridYFpCuXzrS1J2UrlkadWy0dId69H2XAzBVulRXaMAi/dJVr5xt6RpFGrWcQFKXDl0wkE+WTksloWX6paucOZ8ykK1rpAwgHWgzUbp1ABfSCenKlwbk6aTSqEZyHNKBNhOl6yib9Y4T0lW5rgHJ8VpplKwWpANtpkkXhVCTcEq6SJqjdkI6qTQqrcUoIR1oM0U6MXPSa/VOSZcng6STSqOqfBwb5+4OkA60mCKdVPLgczlCb3KcvjikDEyURtHvon1cuz0A3Q7pQD5NuoOQzucQZl8ZGCGRpOstA8tFaVQuL9dwkOs0IB0gTBrTRUHUWHQuTMTj/lF8amGidmkUfVfarqyqlWqBBTNJurSxIg8A4DyTpMv87lcuiu3gzm3m9xDdAyZJd8AoxRcSFl1lIeekf1pAgj/rvEySLoTU+DIQhTJxIxjUhaZFJUAPU6TbBVDtvBBExIvGUI/l6oB9A/J25hLoZGJyHH8bL5CyFeLhibrZPbowczIxOY6+vxfU18Klf7Rdf1N3xNfpnEyRDkM6T0ilb8fW7SOPcVLdVCSRA9HaVnMBHUyQLtpivO0Ha+kP1ZJOFORIhQ4pZrnPyATpUrR0niB3FoV0dGmJaF0lD6K4VtCN/uWMTJAuJlHnY4wEudvIpaSSdGmjtCGTJ70nXk8ccZxp3UtRIwzcJZZ7JFy6qNlRabpp5NwWyZRACrupp7aTcZ+kq/DN9bqpLunK3mTjR4nkDemi/qyGmVSRUt1LN1lQ71JkJhO5kXc8d7KXu4pSRQoPlezihEQwxXdH5PaP5DdY93IE0uoUNekcr5tKuqQT35WdhWGQbkYg3Qga6+uJmITbdVNN6eo2lTNuszSK6j8EpJsRSDecplr1+1NZOKGBNLuXNZvERGRIZwpIN5xmmYZ0/TpdN9UdvRTP6diuJh0CKTMC6QbTEku+fl2umzonXVcfGSmDGYF0g4mbN1mVr1+X66Z6kuOEVF47UEiH5PiMQLrBrJurMDXuxOhu/7K7DIxwJLmDan6dtJvLP473zCXdxUzHtUjrOqxdvy43DT0Fz4SULxco/YAuN9z+M5N015vreQ5sj6h1Hca+1E31TO2hRHuStpPHdC4PUf1nHukuNpvNw6ezHNoa7SB67fp1Otw3dl0Np4Ox/jOLdE+fF9JtHr+a49jWaFtVk87pxNbYxaWdTjv6zyzSXXzZVDyb4+C2aPcf/ZEuH7cUt9sFNv4z05juHrHu74DiKV5Ll47SyO1SUv+ZK3p5/a6y7t39mY5vHp+7l9JiswPYu/2j+M9sebqLv0lj93quDzCNz4GUHMuqu8SMyfGfxLovgXQx29JljfIqs+cDvGXOipSvj4l2gaTsWg1AbejjcnIcuMWsZWBPvxHrvgWRshNlYHEWkZyyNGkefTIwlJlrL58R64JI2YmCZzbXWlogGXVTYDBzFzyzlN2nmT/HAKJMY5eU1cF7eYiHuikwmPlnGbwOJmV3QqwQ66b2azCZzvI7A1N77oeSsjtRqBFi3VQAt5O3T+cv0cR8umBSdklzGisjyLopSKcBa9Ll+acwUnbRticvEGTdFKTTgEXp8ldhpOx6boMZZt0UpNOATelCSdl5uay6IpBOA1alKyeTh5OyWwSQTgOWpeMpu5/mPhJMANJpwLZ0IaXslgCk04B96XjKzvN4yjKAdBpwQDqesrtn9mPn4GPBre2TmBNIpwEXpAsmZZfndwUfbZ/EnEA6DbghHU/ZPTP+yXqBdOA8jkgXSsoO0oHzuCKdSNl9tfHhuoB04DzuSJdfPPc/ZQfpwHkcki6ElB2kA+dxSjr/U3aQDpzHLenyi7d+p+wgHTiPY9LxVYs8TdlBOnAe56TzO2UH6cB53JMuf/rQ35QdpAPncVA6kbLzb9UiSAfO46R0/qbsIB04j5vSeZuyg3TgPK5K52nKDtKB8zgrnUjZ+RRPgXTgPO5KJ1J2Hq1aBOnAeVyWzsOUHaTziThuL52owDGOx92cyWnpRMrOl3gKpPOJ1UrLPTt3q9W4JU7dli7Pr995lbKDdD4xRbpdHLNbWAQnHV+1yI+UHaTziSnSxasV61OGJ12e//QoZQfpfALS9XP/sTcpO0jnE5DuBBfffEnZQbrZScVgKpoYfpSkOxaHTdldlkg4MkrFFrbLrnztWO6RrFZZHFc7Eumau5/AC+n8SdlButlJi6udPlytVpPuRiaky1YVCTlcaVGUVFtu2L5H8vzypmrhditG3L37STyRLn/1xYuUHaSbnzer1ZE9mHYHQCZdVOoSxzdM4sKiN9WWy9XqQ97cpZSu2dI1dz+NL9LlT+/5kLKDdPOzo03dZOe4dJerN5XGEd1QtmM31ZYbJvgl+7CMjuXqY7rm7qfxRjqesnvncsoO0hkgqS7t6c4x6Qp/6IaUHHPHW6ziUUp3oYrFndI1dj+DR9LxlN1r2yfSD6QzwK4cO2lwjkl3KTqFRBopHEkfFW0h3dAtXWP3M/gkHU/ZPXe2iwnpTJBUg6jpd3Qn0h3p6KyESNOy6Cg2LE86lrLbuJqyg3QmONJwxlSIdCISSaORbYukbuMCpeMpu4dupuwgnRHejE1Hd8Ol4y0dmS/QJR0zbInS8ZTdYydTdpDOBGVWTcf8AC5do9WEdC1cTtlBOgMUziUau5dRK7vWJd2Cx3QVLGX31r14CqSbn6wcYK1Wl9OPRNvL1rHaFokqmKVK53DKDtLNTuVcec1Pn/Ut8nTiWGVyu23RDU/lMdl2i5PO2ZQdpJubjBqio6ljI8MVty5edQZSeBVM6RyR7UgLLaPlSOdqyg7SzUzKLmsdTZ1ce3mZxWU9ZY90peuXtPSSJgiLnZP4Ayt4bux+Gm+ly7+6mLKDdPNSn2Iw9WitWQaryyqk0mXRB7LDTtSMJfIsg+buJ/FXuvypgyk7SDcv0gS6XRxPrUmRp+MVh+Pz4aTlvcQjMp1OKtSspvPt+nY/hcfSuZiyg3Sh80HDWNJr6fIL11J2kC50LodNmTuJ39LluWMpO0gXKDs6Ty4bNmPuNL5L51jKDtIFSlKFN7NLHelB/6VzK2UH6QIlYeFNDdVnAUjHU3ZfHOhiQrpQieTw5kRCkM6hlB2kA+cJQjqesvtmO2UH6cB5wpDOmZQdpAPnCUU6nrL7ZPUsIB04TzDS5flrB240AunAeQKSLr9vP2UH6cB5QpLOgZQdpAPnCUq6PP9kOWUH6TxFw0Sh4QQmXf7KbsoO0hkg0lKLlddulQXppmA3ZQfpDJDqKDougXTauLaYsoN0BrjRsRJYiZ7VM8cToHQ2U3aQzgCXA++9eBZIpxNrKTtINzv8rgPZ+X1PkvAjkSf06HGelusP3ZTTCdJyn0z0ZY/l3B7y0hTClI6n7EzHUyDd3IjbfUwNpvRId/OGHX93SR8x62JNvgcqHU/Z3TP7sZBufjJtMQ+peymkK5SKqmCNeEQd+0A2RDdTb18SqnSWUnaQbn60Del6pCOdx6JVe8NveFz9L+6XdTNR+3Cl4ym7ZwY/E9LNj57bZJEjdUhHDy4US6mHN3zv48TblwQsnY2UHaSbnfadrZQ5I514tCMvpeKNk7wPWTqRsvtq6gMh3ex80JfGHiVd+4atyoQtHU/Z/TT0eZBudt7oS65Bupkwm7KDdLOjb0g3Wjpd3drgpTObsoN0c6Px2h8tnZ4y6yVIl1+8NZeyg3RzE2usTB4bSNGVqliAdHzVIgMpO0g3N4k16RJdkxuWIZ25lB2kmxud0iViusIA6Yr/37DdB90Rq5dlSJc/fWgmZQfp5iYj92GcfuucnFV47crmboB01d1Y02P54UiOD6M3ZTe9z/n9I6eU7rd4OvnQzmFdOhq51yJd/qZzlgH7nKZ0ouCZ3QJZkcVIl18870zZPX08ffGwf+66eTT5yM5hXbqiYSqu+URTBDO+LPqMZT3zIOny44fywy9vJoYxlyNdT8ru2+bL5AM/6JHudvKRncO+dAGwJOm6UnbXWsIr7zud+2vycd0D0mlgUdKJlB2Lp1xUEk6OrrzslO7B1MM6CKTTwLKkEyk7umrRcz2L037/3OHc+6lHdRFIp4GlSVdP2dFR3mZyBPPfDukCjF1COi0YkG4XJ8leV9nadHjK7iK/T53bvJ160Ku2c5+/6zhb14B0Gphfuv22wqG/FkvZXb9j0m0mT7j71ZLupY5TdQ6H/oz+Mr90yTqOoni7daet46sWCSanDW5b0l3pOFPngHQamF86UiSabu2s69nDz6Z1kyf+PGo490vHaboHpNOAqUBK5JZ0+f3Hdekmpw0eLKKhg3Q6MCVd6lL3suTif9etm7ygQz1B/lvHOToIpNOAKem2W/3HnMS9ZgdzatqgniAPsAKsAtJpwJB06+2ksmz9XDed23ybeMRagjzAUmcCpNOAGenWznUu37Wk20y9tZacIA+xAqwC0mnAhHTRwbV2Lm/lDAqeTzymlCAPsgKsAtJpwERFyvbgmnOfOpybnjb4FX5DB+l0ML90sUvFKIRXnc5NThvwBHmYFWAVzv0tfWR+6bbbhOBMc/f0cbd0k2/dyhLkYVaAVUA6DZiQjuKMdA97nJucNnhBpQu3oXNCurhci2sXxzQ4t4tV1+aq3hilcRyxA6Vikb2oeFo/crlnGvU9HcH80kUMnQedxNdnDzuClyVT16N9H3IFWIUD0kWrVZyx5YGO5NGl0oqUxYHo3VYTdhtIvuIRX4KIbYjYnVuzrqejWNx8OspFt3kT0wYfQ64Aq3BAusqOyw/xm8KV4nESl6sLKS2+XElzU73/zZvy0YdLvnZ6uWBRHJf3GCdWlauQFRsSsnhY8+k4lipdRdu8v6cdsEqQh9zQuSDdTbn8ZPmgWhasauIu1Vag5e8vj3RDj0TXn2WJ5Ru63B5/IV51PB3HoqWrqJs3MW3w34ArwCockO6SLYYe81XyFG9DzhtIsd5e3Fw7/UheOoqbBUXtpyOBdBXcvC/m7trqJfalO/IeoLiXiOJNwE8vclnbaVdf33Y3ablb3dJFUXTse+Y6lXnPbJ+F29iXLuXLK4tbESjeKPKcdNFuF8f0LiONG0FOui+kbuni7fbAnyROrdIwDLR0J7H/9xRdSRE5VGx3TkqX3rD4ZSVdtaT65Q3NLjSfjkN79/Kw3bKvgMxD58Bp7P9B+ZAu4v1M1RtFnpKuus1BknxgLR1LKazeRF1PR6Fdut2WTZ2DcwFi/y/K/Uh5zEP1RpGnb0Z3E9GdWNd1F99UWb1j59MR6A+kJLSpg3MhYv1PKlo1ET1JxI3jRtEv3VGotqqNF483tcFc4+lA9EsXFU3dEc4FivW/6Qeu2iXPiCuVheRnbjAe852SxpuSE08HMUPKoNAtg3OBYv2PygOVInUgBncjGSHd8SjelLWejmQG6Y5FU+dj3BIMwPpflQcqReogVb0Z+IkxHbvVcVmbmVTbxUgybT0dyRzJ8dixFZ2BPmz/WcWQLpNS45e9+5/khHRxVd754c2KS1dVeRYbqpat8XQks1SkwLlgsf13FYHKN1KoQ6nc+XTKIGZzDOigLWNZO7Jj4+k45pCuGM9JGXKfOcaEXb37Us6kktKiR+kJn+VV9DzIwyiWkbeoTcayi23pUv77FXPdps2nKznKj+jf+piSjfwvWv3VpXKVNFb94BmkI3cMcWz5LzUiPgN3LQRJD3RbxlTc8uWro61Y4HO73Zf/xVuZ+paDpltnm8O2dEGgX7p1cYWmW+cWl1WicCgp26S19C2SbMnGg9iW8J82FTPkI/pyoVhWb+nYlvJI6gV8doB0GtAu3boazyX+XU5dROzHiLhMa9qAkW3EupibthcepXRj3Fqogm8RR/UGSKcB3dIR51iG3He4dOUj1lnMpFfJDyl2K5MltKu5p83fCelKMdXSutaAdBrQLN2axS33vEHwGWFTWcidVznIQ+1l4gwb1BUbdqyryX4Bp6STRoOeAOk0oFc67lyVIfes59SBJB0Zt6X1CNGaGsZatfIufPTnjtp9T0ZNOs+uYs9O1020SreWrqHMuy/xDlrSresBInaDWTZ+2xe7r8lb2Ca0dKCJTuniJJG6lC4tL6uKJB3pVzZaJvY6+7+8aUNGupUZ07MzeikinBjTLQ+skXKKSI5FxlWnudYy8efk/2MpWkpsO7AxbWeejkqXedcHh3QagHSn4NLRxGPU7A6y53s64ksq86LqX7Z8Tn9Ll/qXWIF0GoB0p6DJ8exAw0K90pERXFY5dCh140O67jFdRo/qm3OQTgeQ7hSiDIwMvXq7l6RJPGzLsq5qUMeHdN3SuXZ7h8FAOg1AulOwMjAuR08ghTR5RyJaNajjQ7r+lu7gY4EqpNMApDtF1OwA9qQMSMuWEiOrQZ0QqjdlIMrIPALSaQDSnaIlXdydHCdjuJjuXAzqdqIKrj9P52HpJaTTAaQ7RUu6njIwEq1cb8lMnazoPYrdTiTHU/8qVCGdBuxIN/Hmi8ZoSddd8Fxy2PIJPun2sBZ7napI8W/5Js9O102sSPd182zmT9BEW7pqas+RvSj1NaXp8sfaJN6TZWB736zz62wdxYZ0F+82m7+9aOw6pOuaxFqSbkUbeJCbwFNlYJXDXhWCQToNWJDugtwJ7tmsH6KHLunEcg17uQU7Sg5m8sjvVBlYXi3i5FOGHNJpwIZ03+hdT91v7OQlhyQaCxMRYr6kTbnykGgDOxcmQ0MsjQAAERNJREFUOtZe1nzWcwLpNGBlTHdNrHs38banwDyQTgOWopd/E+2+ud/YgRqQTgO28nTP0Nh5CaTTgLXkOG/scOtTn4B0GrBYkfKJWPf4vpFPA1qAdBqwWQb26gvR7h4aO2+AdBqwW3v5E42dZ0A6DVgueGaN3WtjnwgmAek0YHuWwdN7xLovr8x9JlAH0mnAtnR5fv8x0e6nyQ8FikA6DdiXTjR2yJS7D6TTgAPSFY3dO39qoBcOpNOAE9L5VAMtM2S5hbV/SzKcAtJpwA3p8vzaw8Yu2ZL1GQ5iIs+6tjZK9X8g98ekQDoNuCKdh40dX585E6ZJk+rWdE54FMRNwxiQTgPOSOdfDTRfaUHcP2snTR/nk1Pb6zV4DKTTgEPSeTbhR7h05KbFYqGUHe175tWaRcbPbi4gnQZcks6vxk5aYZ0P6tbbmHU1YzGUSwNq6iCdBtySjjd27tdAyyZx04r/WVdzLS3zFdCoDtJpwDHp/KmBXktrD+2oabti257fhlwsfZKFE8CEdBpwTjpfJvzUFvGig7q4+C8mLVwkhnS18Z3vQDoNuCedaOy+2j2Nk0S1cRpt9pKiwYv4MnvS3n4ts3cKSKcBF6XLX7lfA12Xig7qqn9Jq5bUVm5eBxO/hHQacFI6Dyb81KUjg7qoau+SqlWrt217SAcEbkrn/oSfhkbVoC6ugpTVoC6qj+LiYCIpkE4DrkrHG7vnbmbKk7p01aAuqWKY1aAubt080ujZzcdypTvG8fBo2E5exLuFs9I5XgPdkK6yisZWykauPqSDdAGwW62a0bBdr4fxanXCUIelc7oGutG9LLuTNG5ZDeoa4UpI5z9MOqkRi9seilc8lc7lxq6pUWFZSutO4m0SNQq/EEjxHyad5FOY0vHGzrka6KZ0RX9yTwvACuPS1quQbhZ+vPxu6qM6pAuxe1nhaA10sy2r7kJHt5QP65IhOT4Td3ef/70y81Ed0vXjuXSuTvhpeBRtxQzxpHmjR5SBzcVdya9bxXdXDVV5s0HybVk0XCkbrh35yI1FLYl0xzhZrao76+7ES+T/SHo7kS6SWkL5VofuSycaO6dqoOWC5xKpdYuba6eg4Hku7giPXii9u9Bod7kqKf50afVg9YG8tONNFQ+gVP/vVoy4/hI9EH07bemqAxOy1YonEXyQLr9wsAa6OUkuEa1b1FwWBVN75uKO8ZeKdpUmN3Fc+PLmTfnoQ/GIDMz7pKu1dNJLl+ztZI4JlU4yrXidf64X0jk54We4SZjEOht3gh8fR8dUyiaukiIp5aseXa4uq5f6pKsHUsRLtIm7oS/SnXZMwrIdFSMMT6RzcMLP8KVPsFzDbNzJfP7vH+PezVsfkfiOads0VjrarTzSQ7KdiqaPvMBkrvBFOtHYOVMDvd0OuwKxMNF83DX4NSqUyVXbyY928v9DpWNDi4RYxnZKaXd1x7qtFf5Il391rAY6HZYIwBJ8M9KU7u7uyYhQ5gzS0ZaS77QiLdwNa/EqPJLOuQk/yaBMwCGc0GXugXRjYirzSLeTd8qqB0c+tqvwSTrnJvxgWfUGL54Ypku6u7v3H4f9MAakI6GUD/VcuV/S5U8fulsDvQhOS/exWwLzfH45JKZiQLoylHJkncyTv0R3pXO5BnoReCJdwb/nf5gZpMvqgZQqlBKntTCKh9I5PeEnfHyRblAPcwbpLldvGjutVqs3tTCKj9KJxs6xGuhF4MWYbmhZ2AnpjnJBWNz4v1861qZJ0mVl2YscRvFTOldroHMSTRs4ivcTD6KXd38OzRqckI6nteNVwyyW/45q0mXs3ZfsXZKZq1U9lualdM5O+IF0hmkb92NQCIVwSrrSnw9xVvUN681Zslol8YdGwfPqMovjG66XPLWnrOysf66n0rna2EE6szSV++vBmHefko7OOrjctfuQSccsgzdk6kFC65tl6eJGGMVf6Ryd8APpzFJX7vfIqQZ8uttRfsRn4KQdk+Yqyplzu7wx1a6cjcd7kfJqYFkjjOKzdA7WQEM609SGcoamkLfpWChMohlG8Vo6Fyf8QDqzKA3ltHNSurgZRvFcOtHY2T4RBqQzi9JQTjsnpbtshlF8ly7PX7tVAw3pzKI0lNPOKema1SglvkvnWA00pDOL1aEc55R0SSuMEoB0bk34gXRmsTqU45y6zUHXS/5LJxq7T7ZPBNKBIYQgXf7UmRpoSAfOE4R07kz4gXTgPIFI58qEH0gHzhOKdLyxs1sDDenAecKRzokaaEgHzhOQdC5M+IF04DxBSScaO1s10JAOnCcs6XhjZ6sGGtKB84QmneUJP5AOnCc46exO+IF04DwBSscbu9fmPxrSgfOEKF2eW6uBhnTgPGFKZ23CD6QD5wlUOlsTfiAdOE+o0onG7pnJD4V04DzhSmelBhrSgfMELJ2NCT+QDpwnaOnMN3aQDpwnbOmKxs5sDTSkA+cJXTrDE34gHThP8NKZnfAD6cB5FiAdb+wezl8DDenAeZYgncEaaEgHzrMM6YxN+IF04DwLkU40dl9n/RRIB86zGOnyVyZqoCEdOM9ypDNSAw3pwHkWJJ2JCT+QDpxnUdKJxm6uTDmkA+dZlnRFYzdvDTSkA+dZmnQz10BDOnCexUk374QfSAfOs0DpeGP3Vn9jB+nAeZYo3Yw10JAOnGeZ0s024QfSgfMsVLq5GjtIB86zWOnyi+cz1EBDOnCe5Uo3y4QfSAfOs2TpZpjwA+nAeRYtnWjsptVA33JK6f4VTzWdpUO4Jt3FTx2hsGMc70a+JY5T5Y9buHQnJvy8Ht78vb/r5r3OM3UD56TbbF5P1263WsXV/33ypXF8rG9ZrRLlj1u6dL0Tfq5HzEV42SPdA83n6gAOSrfZvJ06M5lJF9P/WySrVcNGSDeJzgk/F+82m8HfoN8/dzr3Q/+5WsdJ6Tab59MyP5DOOKyxk2ugy0qxt4OP8GendC9nOFfbOCpdMSy/nhANQ/fSAq0aaLIw9OCvz6su5z5/n+Vc7eKsdJvNu5/K2u36Wrh+IN1kGhN+LoiE7wb/FX91SPff2c7WIg5Lt1GJqRzTsnFj0tEophyZJFt2UktXPE6PNemKLaOin5COUmvsvrE/4tB333ZIdzXbuVrEbek2m2/jkj/ZqiJh3Uvy/5vViu1QbCkFjPmYLubvYNLRLZfDtYN0jIu3vAb6mv8NB/8JH7Wc+zXnyVrDdek2m+cjCowKu97E8YfLVV26lJhWckP849IVll5+iOM3Ky4dOUZp7+DEHaQTsBroT+/4X/Dvoe990JIuwMx47oN0m82XoWPxGyZKWpdO6juuVln5H5Mupc/zI9vlhukoNY/ngHQSbMKPxOBYSjNB/mjOE7VHr3QX11b42SFd8b35bMhoXIRPdg3pinaLDOEKyaLyfyadbGNC30G7lcfhTR2kq/Gs9ecbGktpJsjDbOj6pbvuuvgtMiCmkvG2qSndjgn0ZvWm+p9Kl4p0HZUuozvkZS7vZsovcbnS5RdfGn+8ewPf2EiQ/zXrWdrDG+k2m4fnBuSXvNlqSle8dFn+x1svKp3QlElXHCOmXA5OIkC6Bk+b1g2Npfxbky7ACrAKf6R7d7YUerX6QB+1pItJt/IDk4xKl4h2jUq3koF0irQuni8D31hLkAdY6kzwRbovAwpUREa8Jd2RBEwuadhESJeIN1PpeEs3fN4BpKtz8a7193s28K1ygjzECrAKH6KXm83fg9IGJ6QjqYKdnJ3rk+5DPhpIV+dt+y/4bmCZg5QgD7ICrMIH6YbWpaz6x3QkVZeRkV0uSdcc061Eh3M4kK5GZyfp4cA3Pwq/oXNfunefBtfuJdyptnSFTTdSU0ili1kqgUt3I7YMB9LJdHQuSwbWOLwIuwKswnHpBufFS0QCoEO6D0VTJ4Si0kWylCxPJxIF0cAPhnQyHZ3L6k858O0sQR5mBViF09K9HbnEFOsbpqu2dFEZjuQ+seR4QpPlu0vWN01YjUqeXg6dqQDpJHojcJ+Gvf9j8A2dy9KNn2JQypbF2eXqsi1dWdYlSkyYdKWKN/GHN6tLufay2BTfrKT3ngHSCXo6lyXD/p40QR5oBViFq9KNGMpJpCS/lnZ0L6vX+I684Dm6rN7xIW/NMij8RfdyPBfXPx/2SDdwEvl/Q64Aq3BTulFDuRrVdDq+GlhtVTD5sTSfbkfycXJWblccJR0xoQ7SNXj66vr1t7Z1w0YLV6E3dE5KN3YoZx1I18lFoV4tqvJ4WO/lV8AVYBXuSadhBT7TQLoTXHy9vsdm+wxbkO9FwBVgFa5J91TnnShMAenOUqj38PnQWMqjsBs656TzEkg3kIth0r0ItwKsAtJpANJpJujbh0A6LUA6MAZIpwFIB8YA6TQA6cAYIJ0GIB0YA6TTAKQDY4B0GoB0YAyQTgOQDowB0mkA0oExQDoNQDowBkinAUgHxgDpNADpCiLKkT05Sq9Ir3Na23reSDnKr+TiPa3jHmtvqx/EDSCdBiBdQbIlxOzJgb2y3SbFtb9tIr2nIul+Y8UxPtCd0iN9iRDVj1GdQFJuZhSfu5//hx8HpNMApCuIk/LyT5JqAn5lApuKT6RLCNU+FWS3hBN3v7EkrXxL1lv+avXkkCRR+bklhZRr8ig9St7m68put4B0GoB0BNEyJdvCgkNrc/NJ0jKi8407LuIuoU1p1YTJC0fFUvMWi5dSobA7QDoNQDpCTTpxuY+Urv3GgyTUboB05RuO7BAOXuEOnpJ/QDpCTbqct1gjpWu9sdArE3sc6YpRp6TbsYHcXt7qDJBOA5COUJeOt1hjpWu+saEX5ZR0OY2ldL/TOpBOA5COUJeOt1hjpWu+sTsAeVI6Gks5SBEVh4B0GoB0hIZ0rMU6KV0jT9f5xm1XNOSkdCSWUvwzYvVSc0A6DUA6QkM61tCclK6Vp+t4Y1wm77K0Pjo7LV0VfHEwRVcB6TQA6QhN6WiLdVK6Vp6u640Z9bIwj7/3jHQkGT/+tmcmgHQagHSEpnS0xRo9pmu/Mdqz9vDAOoxnpCsDl05GUXJIpwVIR2hJR1osBek63hilMemNDkgZlNTqUtwC0mkA0hFa0pEWS0G6jjdWRAlX6Zx0He92hXUKJgPpCG3pqhZLRbr2Gym8OsVj6Wxfr2HQ9ZuFdCVli6UiXfuNlDgA6cBcQLqSssVSkk56Yy0ECelAP5CuomixlKST3hhLlZeiyATSgRaQriLlee/mPvlp6cQb4+2Bd+AzXpwC6UCLpUkXRYUGa7qkgnCnjHyMLQNrvLEsSNlmaRTtykcZ/bRCykxaiQHSgeVJ11iugV/w6WnpOsvA6m/kazVIuXGxXAMF0oHlSUeXTSDLNcSJ6PrtE+lJXnsSJ0mjDKznjWVmvNxlJw5D4KKl0uOOTwKLYGnSAWAdSAeAYSAdAIaBdAAYBtIBYBhIB4BhIB0AhoF0ABgG0gFgGEgHgGEgHQCGgXQAGAbSAWAYSAeAYSAdAIaBdAAYBtIBYBhIB4BhIB0AhoF0ABgG0gFgGEgHgGEgHQCGgXQAGAbSAWAYSAeAYSAdAIaBdAAYBtIBYBhIB4BhIB0AhoF0ABgG0gFgGEgHgGEgHQCGgXQAGAbSAWAYSAeAYSAdAIaBdAAYBtIBYBhIB4BhIB0AhoF0ABgG0gFgGEgHgGEgHQCGgXQAGAbSAWAYSAeAYSAdAIaBdAAYBtIBYBhIB4BhIB0AhoF0ABgG0gFgGEgHgGEgHQCGgXQAGAbSAWAYSAeAYSAdAIaBdAAYBtIBYBhIB4BhIB0AhoF0ABgG0gFgGEgHgGEgHQCGgXQAGAbSAWAYSAeAYSAdAIaBdAAYBtIBYBhIB4Bh/j8fDgECaWmpFwAAAABJRU5ErkJggg==;" vertex="1" parent="1">
                    <mxGeometry x="560" width="404.5" height="480" as="geometry"/>
                </mxCell>
            </root>
        </mxGraphModel>
    </diagram>
</mxfile>